<svg width="346" height="124" viewBox="0 0 346 124" fill="none" xmlns="http://www.w3.org/2000/svg">
<path d="M40.4807 1.20424C45.8457 6.3527 49.4401 12.5422 51.0778 19.8033C53.2701 29.5227 51.4691 38.7253 47.1794 47.5327C46.0889 49.7745 45.405 49.7441 43.8661 47.7227C39.318 41.7574 35.7008 35.2258 33.915 27.9686C31.9088 19.8261 31.8632 11.6 35.9022 3.84877C36.3087 3.06985 36.8635 2.36693 37.3422 1.626C38.7063 -0.463774 38.7063 -0.46758 40.4807 1.20424Z" fill="#86953B"/>
<path d="M64.7408 40.4198C61.1388 44.5766 56.8984 47.886 51.8373 50.0936C50.6101 50.6294 50.1047 50.6218 50.3251 48.9537C50.9862 43.9459 52.905 39.3901 55.257 35.0396C58.6804 28.7095 62.4078 22.5503 66.7508 16.7863C67.6855 15.5477 68.2516 15.6465 68.8253 16.9345C71.6066 23.1659 71.4509 29.2414 68.1034 35.279C67.0965 37.0876 66.044 38.8202 64.7408 40.4198Z" fill="#86953B"/>
<path d="M84.8703 51.2562C76.724 54.729 68.836 57.4761 60.2451 57.309C57.7678 57.2596 55.3398 56.8644 53.1437 55.5802C52.3685 55.128 51.9126 54.824 52.9727 54.0185C59.128 49.3602 65.8229 46.4307 73.7337 47.2438C77.6397 47.6466 81.2835 48.8245 84.8703 51.2562Z" fill="#86953B"/>
<path d="M54.1283 82.033C53.737 82.5878 53.3456 83.1463 52.9542 83.7011C51.0734 85.692 49.1926 87.6792 47.3118 89.6702C47.1446 89.8336 46.9813 89.997 46.8141 90.1604C46.1947 90.4453 45.6932 90.8823 45.279 91.4218C45.1005 91.5814 44.9257 91.741 44.7471 91.9006C43.8656 92.4971 42.8663 92.9721 42.1368 93.7168C41.0425 94.8263 40.1838 94.6933 39.2795 93.5914C39.1199 93.2076 38.8425 92.9303 38.4816 92.7327C37.5051 91.2508 36.1372 90.1414 34.8453 88.8381C35.6471 91.0609 36.7451 93.0671 37.3493 95.2746C37.7026 96.5627 37.2581 97.3112 36.2246 97.9951C34.739 98.9792 33.1887 99.8911 31.8855 101.134C31.7753 101.141 31.7031 101.198 31.6651 101.301C31.2585 101.362 30.9318 101.555 30.7038 101.905C30.5936 101.928 30.5176 101.992 30.4834 102.099C29.4689 102.334 28.7242 103.824 27.4285 102.76C27.269 102.581 27.1094 102.403 26.9498 102.228C25.9125 101.099 24.8714 99.9709 23.8341 98.8424C24.556 100.358 25.392 101.791 26.2431 103.212C26.7598 104.071 26.7978 104.77 25.8403 105.401C25.1336 105.868 24.5332 106.502 23.8873 107.065C23.7201 107.198 23.5491 107.327 23.382 107.46C22.0217 108.36 21.0186 107.84 20.1523 106.666C19.4304 105.686 18.4995 104.941 17.4242 104.367C18.7427 105.663 19.0314 107.532 20.0459 108.984C20.0117 109.094 20.0421 109.185 20.1295 109.253C19.5368 110.431 18.2145 110.823 17.4242 111.788C17.3406 111.795 17.2798 111.837 17.2418 111.913L17.1582 111.795L17.2456 111.902C17.0784 112.08 16.9112 112.259 16.7441 112.437C16.1703 112.624 15.7106 112.962 15.3838 113.475C15.2812 113.566 15.1748 113.653 15.0722 113.744C14.0312 114.197 13.2598 114.998 12.4771 115.781C12.2681 115.96 12.0592 116.134 11.8502 116.313C11.36 116.636 10.8509 116.932 10.3797 117.286C7.46165 119.489 4.50556 121.636 1.10112 123.053C0.0676323 121.765 0.166421 120.177 0.0676318 118.692C-0.346524 112.559 1.21511 106.711 2.74255 100.86C2.98192 99.9481 3.58986 99.8873 4.36118 99.9405C6.52315 100.089 8.60533 100.632 10.7141 101.198C9.18287 99.3326 7.06269 98.3409 5.0641 97.2314C4.05721 96.6691 3.88623 96.1485 4.29279 95.191C4.52456 94.6439 4.66895 94.055 4.85133 93.485C5.81263 90.5213 5.81262 90.5175 8.97009 90.8975C11.2802 91.1749 13.541 91.684 16.0107 92.4553C15.4712 91.6232 14.8329 91.2395 14.2287 90.8557C13.1307 90.1566 11.9908 89.5182 10.8851 88.8305C9.70341 88.0934 7.61363 87.8578 7.49205 86.6077C7.30207 84.6737 8.51414 82.7854 9.25886 80.9197C9.55143 80.1826 10.1936 80.5018 10.6761 80.593C15.1938 81.4441 19.4456 83.0285 23.4542 85.2779C24.936 86.11 26.414 86.9535 28.0897 87.5273C26.9156 86.5242 25.7719 85.4755 24.556 84.5256C20.6501 81.4669 16.4363 78.887 12.0136 76.6604C11.1929 76.2462 10.9991 75.8663 11.322 75.0342C12.2909 72.553 13.237 70.0605 14.1337 67.5528C14.5137 66.4813 15.0798 66.2001 16.2159 66.4167C23.268 67.7579 29.8679 70.2999 36.1068 73.8221C37.2885 74.487 38.4816 75.133 39.6708 75.7865C40.9665 76.6984 42.2622 77.6065 43.5578 78.5184C43.6376 78.3968 43.7212 78.279 43.801 78.1574C42.5167 77.2151 41.7112 75.7181 40.1344 75.1178C34.3248 69.2626 27.3259 65.3756 19.6356 62.6209C16.6453 61.5494 16.6529 61.5418 18.4615 58.8441C21.6076 54.1554 25.5477 50.5989 31.4181 49.9454C34.4274 49.6111 37.3683 50.1506 40.1762 51.2525C45.1461 53.2055 49.5346 56.078 53.1176 60.0561C56.9552 64.3193 58.513 69.35 57.6467 75.0798C57.5897 75.171 57.51 75.2545 57.4834 75.3533C56.7082 78.4538 56.5069 78.5374 54.0941 76.7516C53.8509 76.3336 53.4786 76.0715 53.0606 75.8587C51.7992 74.62 50.4275 73.5257 48.6265 72.3783C49.6372 73.8373 50.5149 74.9468 51.2178 76.1551C52.3235 78.0397 53.9155 79.7001 54.1283 82.033Z" fill="#EF742A"/>
<path d="M272.343 83.1005C272.51 94.9514 262.301 105.001 250.374 105.051C238.77 105.1 227.884 96.2129 227.96 83.2943C228.028 71.6599 237.93 61.6366 250.56 61.5226C262.601 61.4162 272.343 71.166 272.343 83.1005ZM250.062 100.366C259.318 100.362 267.362 92.5577 267.259 83.4956C267.157 74.5476 260.142 66.3785 250.488 66.3557C241.342 66.3329 233.397 73.6357 233.287 83.2677C233.162 93.899 241.779 100.4 250.062 100.366Z" fill="white"/>
<path d="M220.6 106.043C211.785 95.5177 203.578 84.4989 194.721 73.3699C194.671 74.354 194.622 74.9011 194.622 75.4483C194.618 84.3925 194.63 93.3368 194.592 102.281C194.588 102.999 194.329 104.283 194.022 104.337C192.794 104.549 191.491 104.451 190.245 104.272C190.036 104.242 189.85 103.239 189.85 102.68C189.819 96.9464 189.831 91.2166 189.831 85.483C189.831 77.7242 189.827 69.9655 189.831 62.2067C189.831 61.5873 189.891 60.9718 189.922 60.3525C190.093 60.2689 190.264 60.1815 190.435 60.0979C198.98 71.0559 207.525 82.014 216.075 92.972C216.208 92.9264 216.344 92.8808 216.477 92.8352C216.504 92.2767 216.553 91.7182 216.553 91.1596C216.557 82.3141 216.542 73.4687 216.58 64.6232C216.584 63.9051 216.846 62.6246 217.154 62.5714C218.381 62.3625 219.684 62.4575 220.93 62.6398C221.139 62.6702 221.318 63.6771 221.318 64.2356C221.345 70.7102 221.337 77.1809 221.337 83.6554C221.337 90.4263 221.341 97.1972 221.329 103.964C221.329 104.58 221.223 105.192 221.162 105.807C220.976 105.887 220.79 105.963 220.6 106.043Z" fill="white"/>
<path d="M78.8749 83.4046C78.8749 77.0782 78.8711 70.7481 78.8749 64.4218C78.8749 62.4194 78.9356 62.3586 80.9798 62.3586C85.3798 62.3548 89.7797 62.313 94.1796 62.3738C100.415 62.4612 105.362 64.9993 108.208 70.6569C111.141 76.4893 110.871 82.3863 107.11 87.8121C103.872 92.4856 99.0241 94.2676 93.5109 94.431C90.8436 94.5108 88.1725 94.4804 85.5014 94.4386C84.3501 94.4196 83.9093 94.8832 83.9321 96.023C83.9739 98.3446 83.9131 100.67 83.9511 102.991C83.9701 104.128 83.5142 104.584 82.3667 104.572C78.4455 104.527 78.8938 104.865 78.8824 101.202C78.8672 95.2707 78.8787 89.3357 78.8787 83.4046C78.8825 83.4046 78.8787 83.4046 78.8749 83.4046ZM83.9397 78.2333C83.9435 78.2333 83.9473 78.2333 83.9511 78.2333C83.9511 81.5466 83.9701 84.8598 83.9397 88.1693C83.9283 89.2332 84.3387 89.6929 85.4254 89.6777C88.2447 89.6397 91.064 89.7537 93.8795 89.6321C99.4497 89.3927 103.109 86.7254 104.45 81.9341C106.19 75.7104 103.8 68.2138 95.5361 67.3589C91.9645 66.9903 88.3283 67.1841 84.7262 67.2183C84.4603 67.2221 83.9853 68.0086 83.9777 68.438C83.9131 71.7056 83.9397 74.9695 83.9397 78.2333Z" fill="white"/>
<path d="M342.916 104.534C340.519 104.53 340.515 104.534 339.603 102.27C338.919 100.571 338.14 98.9033 337.612 97.163C337.164 95.6888 336.301 95.2822 334.873 95.324C329.69 95.4646 324.507 95.552 319.321 95.6166C316.137 95.6546 316.137 95.6204 314.909 98.5499C314.279 100.055 313.58 101.533 313.013 103.056C312.611 104.143 311.972 104.587 310.798 104.549C307.253 104.443 306.858 105.078 308.492 101.251C313.906 88.576 319.378 75.9233 324.781 63.244C325.271 62.0927 326.103 62.1345 327.057 62.0852C328.193 62.0244 328.858 62.4157 329.302 63.529C332.916 72.5682 336.582 81.5885 340.241 90.6087C341.822 94.4995 343.437 98.3789 345.014 102.27C345.872 104.394 345.766 104.527 343.509 104.534C343.311 104.534 343.114 104.534 342.916 104.534ZM327.042 71.493C326.848 71.4664 326.654 71.4398 326.46 71.4132C323.808 77.7015 321.156 83.986 318.462 90.377C318.983 90.4872 319.169 90.5593 319.359 90.5631C324.002 90.5707 328.641 90.5631 333.284 90.5821C334.808 90.5897 334.553 89.7576 334.177 88.8267C332.106 83.7011 330.04 78.5716 327.961 73.446C327.688 72.781 327.349 72.1427 327.042 71.493Z" fill="white"/>
<path d="M143.859 104.557C145.071 101.688 146.097 99.2453 147.138 96.806C151.808 85.9049 156.501 75.0115 161.132 64.0952C161.725 62.7008 162.424 61.8991 164.081 62.0549C165.126 62.1536 165.673 62.545 166.057 63.4835C171.372 76.4211 176.707 89.3474 182.038 102.281C182.19 102.646 182.327 103.018 182.467 103.387C182.763 104.154 182.463 104.527 181.677 104.538C180.59 104.55 179.477 104.675 178.424 104.477C177.896 104.379 177.281 103.759 177.045 103.227C176.11 101.103 175.271 98.9338 174.469 96.7528C174.112 95.7801 173.557 95.3431 172.501 95.3469C166.471 95.3735 160.437 95.3811 154.407 95.3432C153.26 95.3356 152.716 95.8903 152.332 96.8592C151.5 98.9756 150.577 101.054 149.779 103.182C149.384 104.234 148.734 104.629 147.648 104.569C146.53 104.508 145.406 104.557 143.859 104.557ZM171.79 90.4265C169.085 83.762 166.49 77.3748 163.898 70.9877C163.724 71.0067 163.549 71.0257 163.374 71.0447C160.673 77.4242 157.971 83.8038 155.167 90.4227C160.779 90.4265 166.072 90.4265 171.79 90.4265Z" fill="white"/>
<path d="M295.851 91.912C298.895 96.0764 301.786 100.032 304.708 104.029C302.12 105.207 299.324 104.595 297.903 102.707C295.585 99.6252 293.256 96.5551 290.972 93.4509C290.269 92.4934 289.441 91.9842 288.221 92.0602C287.089 92.1286 285.949 92.064 284.813 92.0792C282.989 92.1058 282.742 92.349 282.735 94.1348C282.723 97.0035 282.682 99.8684 282.75 102.737C282.78 104.078 282.305 104.572 280.945 104.561C277.97 104.534 277.97 104.591 277.97 101.563C277.97 97.5089 278.008 93.4547 277.947 89.4043C277.928 88.0631 278.392 87.5615 279.752 87.5843C283.358 87.6451 286.971 87.6907 290.577 87.5653C292.485 87.5007 294.449 87.3069 296.258 86.7522C300.414 85.4755 302.975 81.505 302.702 77.1734C302.637 76.1399 302.618 75.0798 302.36 74.0919C301.216 69.7224 298.059 67.2983 293.332 67.1729C290.418 67.0969 287.5 67.1843 284.581 67.1387C283.43 67.1197 282.97 67.587 283.012 68.7231C283.058 70.0074 283.012 71.2916 283.008 72.5797C283.008 73.4878 282.564 73.9399 281.648 73.9551C277.446 74.0387 277.993 74.0463 277.97 70.5849C277.959 68.4115 278.004 66.2344 277.951 64.061C277.925 62.8831 278.323 62.355 279.57 62.3664C284.353 62.4082 289.141 62.2828 293.921 62.4006C302.022 62.5982 307.588 68.4875 307.672 76.6263C307.71 80.2511 307.045 83.5833 304.772 86.5052C302.781 89.07 300.194 90.6582 297.09 91.4751C296.774 91.5663 296.467 91.6955 295.851 91.912Z" fill="white"/>
<path d="M116.871 83.302C116.871 76.9756 116.901 70.6531 116.844 64.3306C116.833 62.8867 117.243 62.3168 118.771 62.3206C121.924 62.3282 121.924 62.2484 121.924 65.3945C121.924 76.2157 121.924 87.037 121.924 97.8582C121.924 100.054 121.932 100.062 124.178 100.062C129.315 100.066 134.456 100.054 139.593 100.062C141.451 100.066 141.508 100.149 141.508 102.319C141.508 104.47 141.447 104.557 139.577 104.561C135.238 104.572 130.903 104.557 126.564 104.58C123.953 104.591 121.343 104.66 118.729 104.698C117.285 104.716 116.822 104.021 116.837 102.577C116.913 96.1484 116.875 89.7233 116.871 83.302Z" fill="white"/>
</svg>
