<svg width="244" height="88" viewBox="0 0 244 88" fill="none" xmlns="http://www.w3.org/2000/svg">
<path d="M28.5868 0.861197C32.3756 4.54304 34.914 8.96941 36.0705 14.162C37.6187 21.1127 36.3469 27.6938 33.3174 33.9924C32.5473 35.5955 32.0644 35.5738 30.9776 34.1282C27.7657 29.8622 25.2113 25.1913 23.9501 20.0014C22.5334 14.1783 22.5011 8.29554 25.3535 2.75239C25.6406 2.19536 26.0323 1.69267 26.3704 1.16281C27.3337 -0.331662 27.3337 -0.334383 28.5868 0.861197Z" fill="#86953B"/>
<path d="M45.7202 28.9058C43.1765 31.8784 40.1819 34.2451 36.6078 35.8238C35.7411 36.207 35.3842 36.2015 35.5398 35.0087C36.0067 31.4273 37.3618 28.1694 39.0227 25.0582C41.4404 20.5313 44.0727 16.1266 47.1397 12.0046C47.7997 11.1188 48.1995 11.1894 48.6047 12.1106C50.5689 16.5668 50.4589 20.9117 48.0949 25.2294C47.3838 26.5228 46.6406 27.7618 45.7202 28.9058Z" fill="#86953B"/>
<path d="M59.9357 36.6552C54.1827 39.1388 48.6122 41.1033 42.5453 40.9838C40.7958 40.9484 39.0812 40.6659 37.5303 39.7474C36.9829 39.4241 36.6609 39.2067 37.4095 38.6307C41.7565 35.2993 46.4844 33.2043 52.071 33.7858C54.8294 34.0739 57.4026 34.9162 59.9357 36.6552Z" fill="#86953B"/>
<path d="M38.2254 58.6649C37.9491 59.0616 37.6727 59.4611 37.3963 59.8578C36.0681 61.2816 34.7398 62.7027 33.4116 64.1265C33.2936 64.2434 33.1782 64.3602 33.0601 64.4771C32.6227 64.6809 32.2686 64.9933 31.9761 65.3792C31.85 65.4933 31.7265 65.6074 31.6004 65.7216C30.9779 66.1482 30.2722 66.4878 29.757 67.0204C28.9842 67.8138 28.3778 67.7187 27.7392 66.9307C27.6265 66.6563 27.4306 66.4579 27.1757 66.3166C26.4861 65.2569 25.5201 64.4635 24.6078 63.5315C25.174 65.121 25.9494 66.5557 26.3761 68.1344C26.6256 69.0556 26.3117 69.5909 25.5818 70.08C24.5327 70.7837 23.4379 71.4359 22.5175 72.3244C22.4397 72.3298 22.3887 72.3706 22.3619 72.444C22.0748 72.4874 21.844 72.626 21.683 72.876C21.6052 72.8923 21.5515 72.9385 21.5274 73.0146C20.811 73.1831 20.285 74.2482 19.37 73.4874C19.2573 73.3597 19.1446 73.232 19.0319 73.107C18.2994 72.3 17.5642 71.4929 16.8317 70.6859C17.3415 71.7701 17.9318 72.7945 18.5329 73.8107C18.8978 74.4248 18.9246 74.9248 18.2484 75.3759C17.7493 75.7101 17.3254 76.1639 16.8692 76.566C16.7512 76.6611 16.6304 76.7535 16.5124 76.8486C15.5517 77.4926 14.8434 77.1203 14.2316 76.2807C13.7217 75.5797 13.0643 75.0471 12.305 74.6368C13.2361 75.5634 13.44 76.9002 14.1564 77.9382C14.1323 78.017 14.1538 78.0822 14.2155 78.1311C13.7969 78.9735 12.8631 79.2533 12.305 79.9435C12.2459 79.949 12.203 79.9788 12.1762 80.0332L12.1171 79.949L12.1789 80.025C12.0608 80.1527 11.9427 80.2805 11.8247 80.4082C11.4195 80.5413 11.0948 80.7831 10.8641 81.15C10.7916 81.2152 10.7165 81.2777 10.644 81.3429C9.90881 81.6662 9.3641 82.2396 8.81135 82.7993C8.66377 82.927 8.51618 83.052 8.3686 83.1797C8.02246 83.4107 7.6629 83.6227 7.33018 83.8754C5.26942 85.4514 3.18183 86.9866 0.777613 88.0001C0.0477619 87.079 0.117527 85.9432 0.0477616 84.8807C-0.244716 80.4951 0.858112 76.3133 1.93679 72.1288C2.10584 71.4766 2.53516 71.4332 3.07987 71.4712C4.60665 71.5772 6.07709 71.9657 7.56631 72.3706C6.48494 71.0364 4.98768 70.3272 3.57627 69.5338C2.8652 69.1317 2.74446 68.7594 3.03157 68.0747C3.19525 67.6834 3.29721 67.2622 3.42601 66.8546C4.10488 64.7352 4.10488 64.7325 6.33468 65.0042C7.96611 65.2026 9.56266 65.5667 11.3068 66.1183C10.9258 65.5232 10.475 65.2488 10.0483 64.9743C9.27287 64.4743 8.46789 64.0178 7.68705 63.526C6.85255 62.9989 5.37675 62.8304 5.29089 61.9364C5.15672 60.5534 6.01269 59.2029 6.53861 57.8688C6.74522 57.3416 7.1987 57.5699 7.53947 57.6351C10.7299 58.2437 13.7325 59.3768 16.5633 60.9854C17.6098 61.5805 18.6536 62.1837 19.8369 62.594C19.0078 61.8767 18.2001 61.1267 17.3415 60.4474C14.5831 58.26 11.6073 56.415 8.48399 54.8227C7.9044 54.5266 7.76755 54.2548 7.99563 53.6598C8.67986 51.8854 9.348 50.1029 9.98125 48.3096C10.2496 47.5433 10.6494 47.3422 11.4517 47.4971C16.4319 48.4563 21.0927 50.2741 25.4986 52.793C26.3331 53.2685 27.1757 53.7304 28.0156 54.1978C28.9306 54.8499 29.8456 55.4993 30.7606 56.1515C30.8169 56.0645 30.8759 55.9803 30.9323 55.8933C30.0253 55.2195 29.4565 54.1489 28.3429 53.7195C24.2402 49.5323 19.2976 46.7526 13.8666 44.7826C11.7549 44.0163 11.7603 44.0109 13.0375 42.0817C15.2593 38.7286 18.0418 36.1853 22.1875 35.7179C24.3126 35.4788 26.3895 35.8646 28.3724 36.6526C31.8822 38.0493 34.9813 40.1035 37.5117 42.9484C40.2218 45.9972 41.3219 49.5948 40.7101 53.6924C40.6699 53.7576 40.6135 53.8174 40.5948 53.888C40.0474 56.1053 39.9052 56.165 38.2013 54.8879C38.0295 54.5891 37.7666 54.4016 37.4714 54.2494C36.5806 53.3636 35.6119 52.581 34.34 51.7604C35.0538 52.8039 35.6736 53.5973 36.17 54.4614C36.9509 55.8091 38.0752 56.9965 38.2254 58.6649Z" fill="#EF742A"/>
<path d="M192.329 59.4285C192.447 67.9035 185.237 75.0906 176.814 75.1259C168.619 75.1612 160.931 68.8056 160.985 59.567C161.033 51.2469 168.026 44.0788 176.945 43.9973C185.449 43.9212 192.329 50.8936 192.329 59.4285ZM176.594 71.7755C183.13 71.7728 188.811 66.1916 188.738 59.711C188.666 53.312 183.712 47.4699 176.894 47.4536C170.436 47.4373 164.825 52.6598 164.747 59.548C164.659 67.1508 170.744 71.8 176.594 71.7755Z" fill="black"/>
<path d="M155.787 75.835C149.562 68.3083 143.766 60.4283 137.511 52.4695C137.477 53.1733 137.442 53.5646 137.442 53.9559C137.439 60.3522 137.447 66.7486 137.42 73.1449C137.418 73.6585 137.235 74.5769 137.018 74.615C136.151 74.7671 135.231 74.6965 134.351 74.5688C134.203 74.547 134.072 73.8297 134.072 73.4303C134.05 69.33 134.058 65.2324 134.058 61.1321C134.058 55.5835 134.055 50.0349 134.058 44.4863C134.058 44.0434 134.101 43.6032 134.123 43.1603C134.243 43.1005 134.364 43.0381 134.485 42.9783C140.519 50.8148 146.554 58.6512 152.592 66.4877C152.685 66.4551 152.782 66.4225 152.876 66.3899C152.895 65.9905 152.93 65.591 152.93 65.1916C152.932 58.8659 152.922 52.5402 152.948 46.2145C152.951 45.7009 153.136 44.7852 153.354 44.7472C154.22 44.5977 155.141 44.6657 156.021 44.7961C156.168 44.8178 156.294 45.5379 156.294 45.9373C156.313 50.5675 156.308 55.1949 156.308 59.8251C156.308 64.6672 156.311 69.5093 156.302 74.3487C156.302 74.7889 156.227 75.2263 156.184 75.6665C156.053 75.7236 155.921 75.7779 155.787 75.835Z" fill="black"/>
<path d="M55.7012 59.6458C55.7012 55.1217 55.6985 50.5948 55.7012 46.0706C55.7012 44.6386 55.7441 44.5951 57.1877 44.5951C60.295 44.5924 63.4022 44.5625 66.5094 44.606C70.9127 44.6685 74.4063 46.4836 76.4161 50.5295C78.4876 54.7005 78.2971 58.9176 75.6406 62.7978C73.3545 66.14 69.9306 67.4144 66.0372 67.5312C64.1535 67.5883 62.2672 67.5666 60.3808 67.5367C59.5678 67.5231 59.2565 67.8546 59.2726 68.6698C59.3021 70.33 59.2592 71.9929 59.286 73.6531C59.2995 74.4656 58.9775 74.7917 58.1671 74.7835C55.398 74.7509 55.7146 74.9928 55.7065 72.3733C55.6958 68.1318 55.7039 63.8874 55.7039 59.6458C55.7066 59.6458 55.7039 59.6458 55.7012 59.6458ZM59.278 55.9477C59.2807 55.9477 59.2834 55.9477 59.286 55.9477C59.286 58.3171 59.2995 60.6865 59.278 63.0533C59.2699 63.8141 59.5597 64.1429 60.3272 64.132C62.3181 64.1048 64.3091 64.1863 66.2974 64.0994C70.2311 63.9282 72.8151 62.0207 73.7623 58.5943C74.9913 54.1435 73.3035 48.7824 67.4674 48.171C64.9451 47.9074 62.3772 48.046 59.8334 48.0705C59.6456 48.0732 59.3102 48.6356 59.3048 48.9427C59.2592 51.2795 59.278 53.6136 59.278 55.9477Z" fill="black"/>
<path d="M242.167 74.7563C240.474 74.7536 240.472 74.7563 239.828 73.1368C239.345 71.9222 238.794 70.7294 238.421 69.4849C238.105 68.4306 237.496 68.1398 236.487 68.1697C232.827 68.2703 229.167 68.3328 225.504 68.3789C223.256 68.4061 223.256 68.3817 222.389 70.4767C221.943 71.5527 221.45 72.6097 221.05 73.6993C220.766 74.4764 220.315 74.7943 219.486 74.7672C216.982 74.6911 216.703 75.1449 217.857 72.4086C221.681 63.3439 225.544 54.2956 229.36 45.2282C229.706 44.4048 230.294 44.4347 230.967 44.3994C231.77 44.3559 232.239 44.6358 232.553 45.432C235.105 51.8962 237.694 58.3469 240.278 64.7976C241.395 67.5801 242.535 70.3544 243.649 73.1368C244.255 74.6558 244.18 74.7509 242.586 74.7563C242.446 74.7563 242.307 74.7563 242.167 74.7563ZM230.957 51.1273C230.82 51.1082 230.683 51.0892 230.546 51.0702C228.673 55.5672 226.8 60.0615 224.898 64.6319C225.265 64.7107 225.397 64.7623 225.531 64.765C228.81 64.7705 232.086 64.765 235.365 64.7786C236.441 64.7841 236.261 64.189 235.996 63.5233C234.533 59.8577 233.074 56.1895 231.606 52.5239C231.413 52.0484 231.174 51.5919 230.957 51.1273Z" fill="black"/>
<path d="M101.593 74.7726C102.449 72.7211 103.173 70.9739 103.908 69.2294C107.206 61.4337 110.52 53.6434 113.791 45.8368C114.21 44.8396 114.703 44.2662 115.873 44.3776C116.611 44.4483 116.997 44.7282 117.268 45.3993C121.022 54.6515 124.79 63.8955 128.554 73.1449C128.662 73.4058 128.758 73.6721 128.858 73.9356C129.067 74.4845 128.855 74.7508 128.299 74.759C127.532 74.7671 126.746 74.8568 126.003 74.7155C125.63 74.6448 125.195 74.2019 125.029 73.8215C124.368 72.3026 123.775 70.7511 123.209 69.1914C122.957 68.4958 122.565 68.1833 121.819 68.186C117.561 68.205 113.3 68.2105 109.042 68.1833C108.231 68.1778 107.847 68.5746 107.576 69.2675C106.989 70.7809 106.337 72.2673 105.773 73.7889C105.494 74.5416 105.035 74.8242 104.268 74.7807C103.479 74.7372 102.685 74.7726 101.593 74.7726ZM121.318 64.6672C119.407 59.9012 117.574 55.3335 115.744 50.7658C115.621 50.7794 115.498 50.793 115.374 50.8066C113.466 55.3688 111.558 59.9311 109.578 64.6645C113.541 64.6672 117.279 64.6672 121.318 64.6672Z" fill="black"/>
<path d="M208.93 65.7296C211.079 68.7077 213.121 71.5363 215.184 74.3949C213.357 75.2372 211.382 74.7997 210.379 73.4493C208.742 71.2456 207.097 69.0501 205.484 66.8301C204.988 66.1454 204.403 65.7813 203.542 65.8356C202.742 65.8845 201.937 65.8383 201.135 65.8492C199.847 65.8682 199.672 66.0421 199.667 67.3192C199.659 69.3707 199.629 71.4195 199.678 73.471C199.699 74.4302 199.364 74.7834 198.403 74.7753C196.302 74.7563 196.302 74.797 196.302 72.6314C196.302 69.7321 196.329 66.8328 196.286 63.9363C196.273 62.9771 196.6 62.6184 197.561 62.6347C200.107 62.6782 202.659 62.7108 205.205 62.6211C206.552 62.5749 207.94 62.4363 209.217 62.0396C212.152 61.1266 213.961 58.2871 213.768 55.1895C213.722 54.4504 213.709 53.6923 213.526 52.9858C212.718 49.861 210.489 48.1274 207.151 48.0378C205.093 47.9834 203.032 48.0459 200.971 48.0133C200.158 47.9997 199.833 48.3339 199.863 49.1464C199.895 50.0648 199.863 50.9832 199.86 51.9044C199.86 52.5538 199.546 52.8771 198.9 52.888C195.932 52.9478 196.318 52.9532 196.302 50.4778C196.294 48.9236 196.326 47.3666 196.289 45.8123C196.27 44.97 196.552 44.5923 197.432 44.6005C200.81 44.6303 204.191 44.5407 207.567 44.6249C213.287 44.7662 217.218 48.9779 217.277 54.7982C217.304 57.3905 216.835 59.7735 215.23 61.863C213.824 63.6971 211.997 64.8329 209.804 65.4171C209.582 65.4823 209.364 65.5747 208.93 65.7296Z" fill="black"/>
<path d="M82.5342 59.5724C82.5342 55.0482 82.5556 50.5268 82.5154 46.0053C82.5073 44.9727 82.7971 44.5652 83.8758 44.5679C86.1029 44.5733 86.1029 44.5163 86.1029 46.7661C86.1029 54.5048 86.1029 62.2435 86.1029 69.9821C86.1029 71.5527 86.1083 71.5581 87.6941 71.5581C91.3219 71.5608 94.9524 71.5527 98.5802 71.5581C99.8923 71.5608 99.9325 71.6206 99.9325 73.1722C99.9325 74.7101 99.8896 74.7726 98.5694 74.7753C95.5051 74.7835 92.4435 74.7726 89.3792 74.7889C87.5358 74.7971 85.6924 74.846 83.8463 74.8731C82.8266 74.8867 82.4993 74.3895 82.51 73.3569C82.5637 68.7594 82.5369 64.1645 82.5342 59.5724Z" fill="black"/>
</svg>
