<svg width="24" height="24" viewBox="0 0 24 24" fill="none" xmlns="http://www.w3.org/2000/svg">
<path fill-rule="evenodd" clip-rule="evenodd" d="M12 2C10.1435 2 8.36301 2.7375 7.05025 4.05025C5.7375 5.36301 5 7.14348 5 9C4.20435 9 3.44129 9.31607 2.87868 9.87868C2.31607 10.4413 2 11.2044 2 12V14C2 14.7956 2.31607 15.5587 2.87868 16.1213C3.44129 16.6839 4.20435 17 5 17H6C6.26522 17 6.51957 16.8946 6.70711 16.7071C6.89464 16.5196 7 16.2652 7 16V9C7 7.67392 7.52678 6.40215 8.46447 5.46447C9.40215 4.52678 10.6739 4 12 4C13.3261 4 14.5979 4.52678 15.5355 5.46447C16.4732 6.40215 17 7.67392 17 9V16.083C16.9992 16.8564 16.6916 17.5979 16.1448 18.1448C15.5979 18.6916 14.8564 18.9992 14.083 19H14C14 18.4696 13.7893 17.9609 13.4142 17.5858C13.0391 17.2107 12.5304 17 12 17H11C10.4696 17 9.96086 17.2107 9.58579 17.5858C9.21071 17.9609 9 18.4696 9 19V20C9 20.5304 9.21071 21.0391 9.58579 21.4142C9.96086 21.7893 10.4696 22 11 22H12C12.3511 22 12.6959 21.9076 13 21.732C13.304 21.5565 13.5565 21.304 13.732 21H14.083C15.2277 20.9993 16.3363 20.5994 17.2179 19.8693C18.0995 19.1392 18.699 18.1245 18.913 17H19C19.7956 17 20.5587 16.6839 21.1213 16.1213C21.6839 15.5587 22 14.7956 22 14V12C22 11.2044 21.6839 10.4413 21.1213 9.87868C20.5587 9.31607 19.7956 9 19 9C19 7.14348 18.2625 5.36301 16.9497 4.05025C15.637 2.7375 13.8565 2 12 2ZM13.45 5.275C12.7097 4.98719 11.9004 4.92632 11.1253 5.10014C10.3503 5.27396 9.64452 5.6746 9.098 6.251C8.91553 6.44355 8.81702 6.70069 8.82415 6.96587C8.83128 7.23105 8.94345 7.48253 9.136 7.665C9.32855 7.84747 9.58569 7.94598 9.85087 7.93885C10.116 7.93172 10.3675 7.81955 10.55 7.627C10.7314 7.43569 10.9488 7.28213 11.1898 7.17516C11.4308 7.06819 11.6905 7.00991 11.9541 7.00368C12.2176 6.99746 12.4798 7.0434 12.7256 7.13888C12.9713 7.23435 13.1958 7.37747 13.386 7.56C13.4807 7.65101 13.5924 7.72247 13.7147 7.77032C13.837 7.81816 13.9675 7.84145 14.0988 7.83885C14.2301 7.83625 14.3596 7.80781 14.4799 7.75516C14.6002 7.70251 14.709 7.62668 14.8 7.532C14.891 7.43732 14.9625 7.32564 15.0103 7.20333C15.0582 7.08103 15.0814 6.9505 15.0788 6.8192C15.0762 6.6879 15.0478 6.55839 14.9952 6.43808C14.9425 6.31777 14.8667 6.20901 14.772 6.118C14.3916 5.75265 13.9426 5.46615 13.451 5.275H13.45Z" fill="#F79256"/>
</svg>
