<svg width="24" height="24" viewBox="0 0 24 24" fill="none" xmlns="http://www.w3.org/2000/svg">
<path d="M5.4062 2.40039H5.3906C5.31816 2.40192 5.24661 2.41656 5.1794 2.44359C5.0822 2.48207 4.99675 2.54527 4.9315 2.62694C4.86625 2.70861 4.82347 2.8059 4.8074 2.90919C4.7882 3.02199 4.2002 6.71439 4.2002 8.40039C4.2002 9.54039 4.7306 10.5568 5.5562 11.2144C5.8562 11.4556 6.0002 11.7172 6.0002 11.9356V12.5356C6.0002 12.5572 5.999 12.5788 5.9966 12.6004C5.9642 12.9124 5.8154 14.3152 5.675 15.7576C5.537 17.1796 5.4002 18.6976 5.4002 19.2004C5.4002 19.8369 5.65305 20.4474 6.10314 20.8974C6.55323 21.3475 7.16368 21.6004 7.8002 21.6004C8.43672 21.6004 9.04716 21.3475 9.49725 20.8974C9.94734 20.4474 10.2002 19.8369 10.2002 19.2004C10.2002 18.6964 10.0634 17.1796 9.9254 15.7576C9.8228 14.7051 9.7156 13.6531 9.6038 12.6016L9.6002 12.5356V11.9356C9.6002 11.716 9.7442 11.4556 10.0442 11.2144C10.4671 10.8773 10.8085 10.4493 11.0433 9.96212C11.2781 9.47496 11.4 8.94117 11.4002 8.40039C11.4002 6.71079 10.8086 3.00159 10.793 2.90799C10.7753 2.79521 10.7259 2.6898 10.6504 2.60414C10.575 2.51848 10.4767 2.45612 10.367 2.42439C10.3167 2.40966 10.2646 2.40159 10.2122 2.40039H10.1882H10.1894C10.0295 2.40166 9.8766 2.46606 9.76399 2.57957C9.65138 2.69308 9.58819 2.8465 9.5882 3.00639V7.80639C9.58985 7.8844 9.57612 7.96196 9.5478 8.03466C9.51948 8.10736 9.47711 8.17377 9.42313 8.2301C9.36914 8.28643 9.30458 8.33157 9.23315 8.36295C9.16172 8.39433 9.0848 8.41134 9.0068 8.41299C8.92879 8.41465 8.85122 8.40092 8.77852 8.3726C8.70582 8.34427 8.63941 8.30191 8.58308 8.24792C8.52676 8.19393 8.48161 8.12938 8.45023 8.05795C8.41885 7.98651 8.40185 7.9096 8.4002 7.83159V3.00039C8.4002 2.84126 8.33698 2.68865 8.22446 2.57613C8.11194 2.4636 7.95933 2.40039 7.8002 2.40039C7.64107 2.40039 7.48845 2.4636 7.37593 2.57613C7.26341 2.68865 7.2002 2.84126 7.2002 3.00039V7.80039L7.2014 7.83879C7.1971 7.99633 7.1304 8.14571 7.01596 8.25407C6.90153 8.36243 6.74873 8.42089 6.5912 8.41659C6.43366 8.41229 6.28428 8.34559 6.17592 8.23116C6.06756 8.11672 6.0091 7.96393 6.0134 7.80639V3.00759C6.0134 2.84676 5.94959 2.6925 5.83597 2.57866C5.72236 2.46482 5.56703 2.40071 5.4062 2.40039ZM13.2002 7.80039C13.2002 6.36822 13.7691 4.99471 14.7818 3.98201C15.7945 2.96932 17.168 2.40039 18.6002 2.40039C18.7593 2.40039 18.9119 2.4636 19.0245 2.57613C19.137 2.68865 19.2002 2.84126 19.2002 3.00039V11.374L19.2242 11.6428C19.3177 12.721 19.4089 13.7994 19.4978 14.878C19.6466 16.6864 19.8002 18.6712 19.8002 19.2004C19.8002 19.8369 19.5473 20.4474 19.0973 20.8974C18.6472 21.3475 18.0367 21.6004 17.4002 21.6004C16.7637 21.6004 16.1532 21.3475 15.7031 20.8974C15.2531 20.4474 15.0002 19.8369 15.0002 19.2004C15.0002 18.6724 15.1538 16.6864 15.3026 14.878C15.377 13.9648 15.4526 13.0816 15.509 12.4276L15.545 12.0004H15.0002C14.5228 12.0004 14.065 11.8107 13.7274 11.4732C13.3898 11.1356 13.2002 10.6778 13.2002 10.2004V7.80039Z" fill="#F79256"/>
</svg>
