<svg width="24" height="25" viewBox="0 0 24 25" fill="none" xmlns="http://www.w3.org/2000/svg">
<path d="M22.5 11.75C22.5 11.9489 22.421 12.1397 22.2803 12.2803C22.1397 12.421 21.9489 12.5 21.75 12.5H18.75V15.5H19.5C19.8978 15.5 20.2794 15.658 20.5607 15.9393C20.842 16.2206 21 16.6022 21 17V20C21 20.3978 20.842 20.7794 20.5607 21.0607C20.2794 21.342 19.8978 21.5 19.5 21.5H16.5C16.1022 21.5 15.7206 21.342 15.4393 21.0607C15.158 20.7794 15 20.3978 15 20V17C15 16.6022 15.158 16.2206 15.4393 15.9393C15.7206 15.658 16.1022 15.5 16.5 15.5H17.25V12.5H6.75V15.5H7.5C7.89782 15.5 8.27936 15.658 8.56066 15.9393C8.84196 16.2206 9 16.6022 9 17V20C9 20.3978 8.84196 20.7794 8.56066 21.0607C8.27936 21.342 7.89782 21.5 7.5 21.5H4.5C4.10218 21.5 3.72064 21.342 3.43934 21.0607C3.15804 20.7794 3 20.3978 3 20V17C3 16.6022 3.15804 16.2206 3.43934 15.9393C3.72064 15.658 4.10218 15.5 4.5 15.5H5.25V12.5H2.25C2.05109 12.5 1.86032 12.421 1.71967 12.2803C1.57902 12.1397 1.5 11.9489 1.5 11.75C1.5 11.5511 1.57902 11.3603 1.71967 11.2197C1.86032 11.079 2.05109 11 2.25 11H11.25V8.75H10.5C10.1022 8.75 9.72064 8.59196 9.43934 8.31066C9.15804 8.02936 9 7.64782 9 7.25V4.25C9 3.85218 9.15804 3.47064 9.43934 3.18934C9.72064 2.90804 10.1022 2.75 10.5 2.75H13.5C13.8978 2.75 14.2794 2.90804 14.5607 3.18934C14.842 3.47064 15 3.85218 15 4.25V7.25C15 7.64782 14.842 8.02936 14.5607 8.31066C14.2794 8.59196 13.8978 8.75 13.5 8.75H12.75V11H21.75C21.9489 11 22.1397 11.079 22.2803 11.2197C22.421 11.3603 22.5 11.5511 22.5 11.75Z" fill="#F79256"/>
</svg>
