<svg width="24" height="25" viewBox="0 0 24 25" fill="none" xmlns="http://www.w3.org/2000/svg">
<path d="M19.14 13.4404C19.18 13.1404 19.2 12.8304 19.2 12.5004C19.2 12.1804 19.18 11.8604 19.13 11.5604L21.16 9.98039C21.2474 9.90829 21.3072 9.80809 21.3291 9.69686C21.351 9.58563 21.3336 9.47026 21.28 9.37039L19.36 6.05039C19.3031 5.95025 19.2129 5.87331 19.105 5.83308C18.9971 5.79285 18.8785 5.7919 18.77 5.83039L16.38 6.79039C15.88 6.41039 15.35 6.09039 14.76 5.85039L14.4 3.31039C14.3823 3.19592 14.3241 3.0916 14.236 3.01637C14.1479 2.94114 14.0358 2.89999 13.92 2.90039H10.08C9.83996 2.90039 9.64996 3.07039 9.60996 3.31039L9.24996 5.85039C8.65996 6.09039 8.11996 6.42039 7.62996 6.79039L5.23996 5.83039C5.01996 5.75039 4.76996 5.83039 4.64996 6.05039L2.73996 9.37039C2.61996 9.58039 2.65996 9.84039 2.85996 9.98039L4.88996 11.5604C4.83996 11.8604 4.79996 12.1904 4.79996 12.5004C4.79996 12.8104 4.81996 13.1404 4.86996 13.4404L2.83996 15.0204C2.75249 15.0925 2.69272 15.1927 2.67084 15.3039C2.64896 15.4152 2.66632 15.5305 2.71996 15.6304L4.63996 18.9504C4.75996 19.1704 5.00996 19.2404 5.22996 19.1704L7.61996 18.2104C8.11996 18.5904 8.64996 18.9104 9.23996 19.1504L9.59996 21.6904C9.64996 21.9304 9.83996 22.1004 10.08 22.1004H13.92C14.16 22.1004 14.36 21.9304 14.39 21.6904L14.75 19.1504C15.34 18.9104 15.88 18.5904 16.37 18.2104L18.76 19.1704C18.98 19.2504 19.23 19.1704 19.35 18.9504L21.27 15.6304C21.39 15.4104 21.34 15.1604 21.15 15.0204L19.14 13.4404ZM12 16.1004C10.02 16.1004 8.39996 14.4804 8.39996 12.5004C8.39996 10.5204 10.02 8.90039 12 8.90039C13.98 8.90039 15.6 10.5204 15.6 12.5004C15.6 14.4804 13.98 16.1004 12 16.1004Z" fill="#F79256"/>
</svg>
