<svg width="108" height="108" viewBox="0 0 108 108" fill="none" xmlns="http://www.w3.org/2000/svg">
<g clip-path="url(#clip0_7399_15365)">
<path d="M108 54C108 24.1768 83.8232 0 54 0C24.1768 0 0 24.1768 0 54C0 80.9528 19.7471 103.293 45.5625 107.344V69.6094H31.8516V54H45.5625V42.1031C45.5625 28.5694 53.6245 21.0938 65.9593 21.0938C71.8673 21.0938 78.0469 22.1484 78.0469 22.1484V35.4375H71.2378C64.5296 35.4375 62.4375 39.6001 62.4375 43.8708V54H77.4141L75.0199 69.6094H62.4375V107.344C88.2529 103.293 108 80.9532 108 54Z" fill="#1877F2"/>
<path d="M75.0199 69.6094L77.4141 54H62.4375V43.8708C62.4375 39.5997 64.5296 35.4375 71.2378 35.4375H78.0469V22.1484C78.0469 22.1484 71.8672 21.0938 65.9589 21.0938C53.6245 21.0938 45.5625 28.5694 45.5625 42.1031V54H31.8516V69.6094H45.5625V107.344C48.3537 107.781 51.1747 108.001 54 108C56.8253 108.001 59.6463 107.781 62.4375 107.344V69.6094H75.0199Z" fill="white"/>
</g>
<defs>
<clipPath id="clip0_7399_15365">
<rect width="108" height="108" fill="white"/>
</clipPath>
</defs>
</svg>
