<svg width="108" height="108" viewBox="0 0 108 108" fill="none" xmlns="http://www.w3.org/2000/svg">
<g clip-path="url(#clip0_7399_15368)">
<path d="M82.6875 0H25.3125C11.3328 0 0 11.3328 0 25.3125V82.6875C0 96.6672 11.3328 108 25.3125 108H82.6875C96.6672 108 108 96.6672 108 82.6875V25.3125C108 11.3328 96.6672 0 82.6875 0Z" fill="url(#paint0_radial_7399_15368)"/>
<path d="M82.6875 0H25.3125C11.3328 0 0 11.3328 0 25.3125V82.6875C0 96.6672 11.3328 108 25.3125 108H82.6875C96.6672 108 108 96.6672 108 82.6875V25.3125C108 11.3328 96.6672 0 82.6875 0Z" fill="url(#paint1_radial_7399_15368)"/>
<path d="M54.0038 11.8125C42.5465 11.8125 41.1083 11.8627 36.6086 12.0673C32.1173 12.2732 29.0516 12.984 26.3693 14.0273C23.5942 15.1048 21.2406 16.5464 18.8958 18.892C16.5489 21.2372 15.1073 23.5908 14.0265 26.3647C12.9803 29.0478 12.2685 32.1148 12.0665 36.604C11.8652 41.1041 11.8125 42.5427 11.8125 54.0004C11.8125 65.4581 11.8631 66.8917 12.0673 71.3914C12.274 75.8827 12.9849 78.9484 14.0273 81.6307C15.1057 84.4058 16.5472 86.7594 18.8928 89.1042C21.2372 91.4511 23.5908 92.896 26.3638 93.9735C29.0482 95.0168 32.1144 95.7277 36.6048 95.9335C41.105 96.1381 42.5419 96.1883 53.9987 96.1883C65.4573 96.1883 66.8908 96.1381 71.3905 95.9335C75.8818 95.7277 78.951 95.0168 81.6353 93.9735C84.4092 92.896 86.7594 91.4511 89.1034 89.1042C91.4503 86.7594 92.8914 84.4058 93.9727 81.632C95.0096 78.9484 95.7217 75.8818 95.9327 71.3922C96.1348 66.8925 96.1875 65.4581 96.1875 54.0004C96.1875 42.5427 96.1348 41.105 95.9327 36.6048C95.7217 32.1135 95.0096 29.0482 93.9727 26.3659C92.8914 23.5908 91.4503 21.2372 89.1034 18.892C86.7569 16.5455 84.41 15.104 81.6328 14.0278C78.9434 12.984 75.8759 12.2728 71.3846 12.0673C66.8845 11.8627 65.4518 11.8125 53.9907 11.8125H54.0038ZM50.2192 19.4151C51.3426 19.4134 52.596 19.4151 54.0038 19.4151C65.2683 19.4151 66.6031 19.4556 71.0513 19.6577C75.1646 19.8458 77.3972 20.5331 78.8843 21.1106C80.8532 21.8751 82.2568 22.7893 83.7325 24.2663C85.209 25.7428 86.1228 27.1489 86.8894 29.1178C87.4669 30.6028 88.155 32.8354 88.3423 36.9487C88.5444 41.3961 88.5883 42.7317 88.5883 53.9907C88.5883 65.2497 88.5444 66.5858 88.3423 71.0328C88.1542 75.1461 87.4669 77.3786 86.8894 78.8641C86.1249 80.8329 85.209 82.2348 83.7325 83.7106C82.2559 85.1871 80.854 86.1009 78.8843 86.8658C77.3989 87.4458 75.1646 88.1314 71.0513 88.3195C66.6039 88.5216 65.2683 88.5655 54.0038 88.5655C42.7389 88.5655 41.4037 88.5216 36.9567 88.3195C32.8434 88.1297 30.6108 87.4425 29.1225 86.8649C27.154 86.1001 25.7475 85.1863 24.2709 83.7097C22.7943 82.2331 21.8805 80.8304 21.114 78.8607C20.5365 77.3753 19.8484 75.1427 19.6611 71.0294C19.459 66.582 19.4185 65.2463 19.4185 53.9802C19.4185 42.714 19.459 41.3855 19.6611 36.9381C19.8492 32.8248 20.5365 30.5923 21.114 29.1052C21.8789 27.1363 22.7943 25.7302 24.2713 24.2536C25.7483 22.777 27.154 21.8628 29.1229 21.0967C30.61 20.5166 32.8434 19.8311 36.9567 19.6421C40.8485 19.4662 42.3567 19.4134 50.2192 19.4046V19.4151ZM76.5235 26.4199C73.7286 26.4199 71.461 28.6854 71.461 31.4807C71.461 34.2757 73.7286 36.5432 76.5235 36.5432C79.3184 36.5432 81.586 34.2757 81.586 31.4807C81.586 28.6858 79.3184 26.4182 76.5235 26.4182V26.4199ZM54.0038 32.335C42.0394 32.335 32.3388 42.0356 32.3388 54.0004C32.3388 65.9652 42.0394 75.6612 54.0038 75.6612C65.9686 75.6612 75.6658 65.9652 75.6658 54.0004C75.6658 42.0361 65.9678 32.335 54.003 32.335H54.0038ZM54.0038 39.9376C61.7701 39.9376 68.0666 46.2333 68.0666 54.0004C68.0666 61.7667 61.7701 68.0632 54.0038 68.0632C46.2375 68.0632 39.9414 61.7667 39.9414 54.0004C39.9414 46.2333 46.2371 39.9376 54.0038 39.9376Z" fill="white"/>
</g>
<defs>
<radialGradient id="paint0_radial_7399_15368" cx="0" cy="0" r="1" gradientUnits="userSpaceOnUse" gradientTransform="translate(28.6875 116.318) rotate(-90) scale(107.036 99.552)">
<stop stop-color="#FFDD55"/>
<stop offset="0.1" stop-color="#FFDD55"/>
<stop offset="0.5" stop-color="#FF543E"/>
<stop offset="1" stop-color="#C837AB"/>
</radialGradient>
<radialGradient id="paint1_radial_7399_15368" cx="0" cy="0" r="1" gradientUnits="userSpaceOnUse" gradientTransform="translate(-18.0904 7.7798) rotate(78.681) scale(47.8457 197.221)">
<stop stop-color="#3771C8"/>
<stop offset="0.128" stop-color="#3771C8"/>
<stop offset="1" stop-color="#6600FF" stop-opacity="0"/>
</radialGradient>
<clipPath id="clip0_7399_15368">
<rect width="108" height="108" fill="white"/>
</clipPath>
</defs>
</svg>
