<svg width="15" height="16" viewBox="0 0 15 16" fill="none" xmlns="http://www.w3.org/2000/svg">
<g clip-path="url(#clip0_4829_12262)">
<path fill-rule="evenodd" clip-rule="evenodd" d="M7.3174 1.47485C7.94158 0.850665 8.78816 0.5 9.6709 0.5C10.5536 0.5 11.4002 0.850665 12.0244 1.47485C12.6486 2.09904 12.9992 2.94562 12.9992 3.82835C12.9992 4.71109 12.6486 5.55766 12.0244 6.18185L6.2674 11.9389C6.08965 12.1167 5.87863 12.2577 5.64637 12.354C5.41411 12.4502 5.16516 12.4998 4.91375 12.4998C4.40599 12.4999 3.919 12.2983 3.5599 11.9394C3.20079 11.5804 2.999 11.0935 2.9989 10.5857C2.99881 10.078 3.20043 9.59095 3.5594 9.23185L9.1444 3.64585L9.8524 4.35385L4.2664 9.93885C4.1815 10.0238 4.11415 10.1245 4.0682 10.2355C4.02226 10.3464 3.99861 10.4653 3.99861 10.5854C3.99861 10.7054 4.02226 10.8243 4.0682 10.9352C4.11415 11.0462 4.1815 11.147 4.2664 11.2319C4.3513 11.3168 4.45209 11.3841 4.56301 11.43C4.67394 11.476 4.79283 11.4996 4.9129 11.4996C5.03296 11.4996 5.15185 11.476 5.26278 11.43C5.37371 11.3841 5.4745 11.3168 5.5594 11.2319L11.3164 5.47485C11.5326 5.25863 11.7041 5.00194 11.8212 4.71943C11.9382 4.43692 11.9984 4.13414 11.9984 3.82835C11.9984 3.52257 11.9382 3.21978 11.8212 2.93727C11.7041 2.65477 11.5326 2.39807 11.3164 2.18185C11.1002 1.96563 10.8435 1.79411 10.561 1.6771C10.2785 1.56008 9.97568 1.49985 9.6699 1.49985C9.36411 1.49985 9.06132 1.56008 8.77882 1.6771C8.49631 1.79411 8.23962 1.96563 8.0234 2.18185L2.0954 8.11085C1.40772 8.81568 1.0255 9.7631 1.03156 10.7478C1.03762 11.7325 1.43148 12.6752 2.12779 13.3715C2.82409 14.0678 3.76674 14.4616 4.75144 14.4677C5.73615 14.4738 6.68357 14.0915 7.3884 13.4039L13.1454 7.64585L13.8534 8.35385L8.0954 14.1109C7.20056 14.9735 6.00285 15.4504 4.75995 15.439C3.51706 15.4276 2.32832 14.9287 1.44949 14.0498C0.57066 13.1708 0.0719795 11.982 0.060741 10.7391C0.0495026 9.4962 0.526605 8.29856 1.3894 7.40385L7.3174 1.47485Z" fill="#FAFAFA"/>
</g>
<defs>
<clipPath id="clip0_4829_12262">
<rect width="15" height="15" fill="white" transform="translate(0 0.5)"/>
</clipPath>
</defs>
</svg>
