<svg width="20" height="20" viewBox="0 0 20 20" fill="none" xmlns="http://www.w3.org/2000/svg">
<g clip-path="url(#clip0_6046_8092)">
<path d="M15 2.0625C13.5625 1.15625 11.8438 0.625 10 0.625C8.15625 0.625 6.4375 1.15625 5 2.0625V17.9062C6.4375 18.8125 8.15625 19.3438 10 19.3438C11.8438 19.3438 13.5625 18.8125 15 17.9062V2.0625Z" fill="#F9F9F9"/>
<path d="M15 2.0625V17.9062C17.625 16.2812 19.375 13.2812 19.375 9.96875C19.375 6.65625 17.625 3.71875 15 2.0625ZM5 2.0625C2.375 3.71875 0.625 6.71875 0.625 10C0.625 13.2812 2.375 16.2813 5 17.9375V2.0625ZM13.4062 9.875C13.2812 9.8125 13.25 9.6875 13.2812 9.625L13.5938 8.5L12.5 8.71875C12.4688 8.71875 12.3438 8.71875 12.3125 8.5L12.2188 8.125L11.4688 9C11.4688 9 10.9688 9.53125 11.125 8.71875L11.4375 7L10.8438 7.3125C10.8125 7.3125 10.6875 7.34375 10.5312 7.03125L10 5.9375L9.4375 6.96875C9.28125 7.28125 9.15625 7.25 9.125 7.25L8.53125 6.9375L8.84375 8.65625C9 9.46875 8.5 8.9375 8.5 8.9375L7.75 8.0625L7.65625 8.4375C7.59375 8.65625 7.5 8.65625 7.46875 8.65625L6.375 8.4375L6.6875 9.5625C6.6875 9.65625 6.6875 9.75 6.5625 9.8125L6.25 10C6.25 10 7.5 11 7.90625 11.3438C8 11.4062 8.1875 11.5938 8.125 11.8125L7.96875 12.25L9.6875 12C9.78125 12 9.96875 12 9.9375 12.2812L9.84375 14.0625H10.1562L10.0625 12.2812C10.0625 12 10.25 12 10.3125 12L12.0312 12.25L11.875 11.8125C11.8125 11.5938 12 11.4062 12.0938 11.3438C12.5 11 13.75 10 13.75 10L13.4062 9.875Z" fill="#ED4C5C"/>
</g>
<defs>
<clipPath id="clip0_6046_8092">
<rect width="20" height="20" fill="white"/>
</clipPath>
</defs>
</svg>
