<svg width="24" height="24" viewBox="0 0 24 24" fill="none" xmlns="http://www.w3.org/2000/svg">
<path d="M16.4766 3.00412C16.6436 3.01912 16.7166 3.22312 16.5966 3.34212L8.27663 11.6621C8.18264 11.7562 8.11534 11.8735 8.08163 12.0021L7.08163 15.8321C7.04862 15.9587 7.04928 16.0917 7.08356 16.2179C7.11784 16.3442 7.18453 16.4592 7.27702 16.5517C7.36952 16.6442 7.48459 16.7109 7.61082 16.7452C7.73706 16.7795 7.87006 16.7801 7.99663 16.7471L11.8256 15.7471C11.9544 15.7131 12.0717 15.6455 12.1656 15.5511L20.6036 7.11312C20.63 7.08602 20.6636 7.06705 20.7005 7.05846C20.7373 7.04986 20.7759 7.052 20.8115 7.06463C20.8472 7.07725 20.8785 7.09983 20.9017 7.12969C20.925 7.15956 20.9392 7.19545 20.9426 7.23312C21.2939 10.5827 21.2737 13.9609 20.8826 17.3061C20.6596 19.2111 19.1286 20.7061 17.2306 20.9191C13.7543 21.3043 10.246 21.3043 6.76963 20.9191C4.87063 20.7061 3.33963 19.2111 3.11663 17.3061C2.70461 13.7811 2.70461 10.2201 3.11663 6.69512C3.33963 4.78912 4.87063 3.29412 6.76963 3.08212C9.99414 2.7247 13.2468 2.69856 16.4766 3.00412Z" fill="#FAFAFA"/>
<path d="M17.8231 4.23751C17.8463 4.21423 17.8739 4.19576 17.9043 4.18315C17.9347 4.17055 17.9672 4.16406 18.0001 4.16406C18.033 4.16406 18.0656 4.17055 18.0959 4.18315C18.1263 4.19576 18.1539 4.21423 18.1771 4.23751L19.5911 5.65251C19.6378 5.69937 19.6641 5.76284 19.6641 5.82901C19.6641 5.89518 19.6378 5.95865 19.5911 6.00551L11.2981 14.3005C11.2666 14.3319 11.2272 14.3544 11.1841 14.3655L9.27012 14.8655C9.22793 14.8765 9.1836 14.8763 9.14152 14.8649C9.09944 14.8534 9.06109 14.8312 9.03025 14.8004C8.99942 14.7695 8.97719 14.7312 8.96577 14.6891C8.95434 14.647 8.95412 14.6027 8.96512 14.5605L9.46512 12.6465C9.47625 12.6034 9.49869 12.564 9.53012 12.5325L17.8231 4.23751Z" fill="#FAFAFA"/>
</svg>
