<svg width="28" height="16" viewBox="0 0 28 16" fill="none" xmlns="http://www.w3.org/2000/svg">
<path d="M26.8734 1.2305C26.4984 0.855555 25.9897 0.644924 25.4594 0.644924C24.9291 0.644924 24.4205 0.855555 24.0454 1.2305L14.1454 11.1305L4.24541 1.2305C3.86821 0.866179 3.363 0.664591 2.83861 0.669147C2.31421 0.673704 1.81259 0.884041 1.44177 1.25486C1.07095 1.62567 0.860618 2.1273 0.856061 2.65169C0.851504 3.17609 1.05309 3.68129 1.41741 4.05849L12.7314 15.3725C13.1065 15.7474 13.6151 15.9581 14.1454 15.9581C14.6757 15.9581 15.1844 15.7474 15.5594 15.3725L26.8734 4.0585C27.2484 3.68344 27.459 3.17482 27.459 2.6445C27.459 2.11417 27.2484 1.60555 26.8734 1.2305Z" fill="white"/>
</svg>
