<svg width="14" height="13" viewBox="0 0 14 13" fill="none" xmlns="http://www.w3.org/2000/svg">
<g clip-path="url(#clip0_5389_8091)">
<path d="M6.90478 4.55645C6.44695 4.55645 6.00787 4.71646 5.68414 5.00128C5.3604 5.2861 5.17853 5.6724 5.17853 6.0752C5.17853 6.47799 5.3604 6.86429 5.68414 7.14911C6.00787 7.43394 6.44695 7.59395 6.90478 7.59395C7.36261 7.59395 7.80169 7.43394 8.12542 7.14911C8.44916 6.86429 8.63103 6.47799 8.63103 6.0752C8.63103 5.6724 8.44916 5.2861 8.12542 5.00128C7.80169 4.71646 7.36261 4.55645 6.90478 4.55645ZM6.90478 8.60645C6.14173 8.60645 5.40993 8.33976 4.87037 7.86506C4.33082 7.39036 4.0277 6.74652 4.0277 6.0752C4.0277 5.40387 4.33082 4.76003 4.87037 4.28533C5.40993 3.81063 6.14173 3.54395 6.90478 3.54395C7.66783 3.54395 8.39963 3.81063 8.93918 4.28533C9.47874 4.76003 9.78186 5.40387 9.78186 6.0752C9.78186 6.74652 9.47874 7.39036 8.93918 7.86506C8.39963 8.33976 7.66783 8.60645 6.90478 8.60645ZM6.90478 2.27832C4.0277 2.27832 1.57067 3.85276 0.575195 6.0752C1.57067 8.29763 4.0277 9.87207 6.90478 9.87207C9.78186 9.87207 12.2389 8.29763 13.2344 6.0752C12.2389 3.85276 9.78186 2.27832 6.90478 2.27832Z" fill="#666666" fill-opacity="0.4"/>
</g>
<defs>
<clipPath id="clip0_5389_8091">
<rect width="13.81" height="12.15" fill="white"/>
</clipPath>
</defs>
</svg>
