<svg width="25" height="21" viewBox="0 0 25 21" fill="none" xmlns="http://www.w3.org/2000/svg">
<path d="M25 6.87392C25 14.1673 13.4163 20.0708 12.923 20.3146C12.793 20.3799 12.6476 20.4141 12.5 20.4141C12.3524 20.4141 12.207 20.3799 12.077 20.3146C11.5837 20.0708 0 14.1673 0 6.87392C0.00206779 5.16125 0.731764 3.51928 2.029 2.30824C3.32624 1.0972 5.08507 0.415993 6.91964 0.414062C9.22433 0.414062 11.2422 1.33928 12.5 2.90319C13.7578 1.33928 15.7757 0.414062 18.0804 0.414062C19.9149 0.415993 21.6738 1.0972 22.971 2.30824C24.2682 3.51928 24.9979 5.16125 25 6.87392Z" fill="#FAFAFA"/>
</svg>
