<svg width="14" height="14" viewBox="0 0 14 14" fill="none" xmlns="http://www.w3.org/2000/svg">
<path d="M12.8864 1.58644L12.3244 1.02749C12.1725 0.869524 11.8763 0.893826 11.694 1.11256L9.74979 3.04467C8.8764 2.66797 7.91187 2.48568 6.90936 2.48568C3.90183 2.49783 1.3044 4.24768 0.0512647 6.76306C-0.0170882 6.92103 -0.0170882 7.11542 0.0512647 7.24909C0.636062 8.43995 1.50945 9.42425 2.60309 10.1655L1.01581 11.7817C0.83354 11.9639 0.803165 12.2556 0.924681 12.4136L1.48669 12.9725C1.64618 13.1305 1.93474 13.1062 2.11702 12.8875L12.7877 2.21835C13.0155 2.03607 13.0459 1.74441 12.8864 1.58644ZM7.54729 5.25626C7.34224 5.20765 7.12202 5.14686 6.91696 5.14686C5.88407 5.14686 5.05619 5.97321 5.05619 7.0061C5.05619 7.21268 5.10937 7.43139 5.17013 7.63796L4.35753 8.43999C4.1145 8.01469 3.97779 7.54077 3.97779 7.0061C3.97779 5.38993 5.27647 4.08969 6.89416 4.08969C7.42579 4.08969 7.90427 4.22334 8.32958 4.46637L7.54729 5.25626Z" fill="#666666" fill-opacity="0.8"/>
<path d="M13.7595 6.76327C13.3342 5.91265 12.7797 5.14708 12.081 4.52734L9.82534 6.76327V7.0063C9.82534 8.62247 8.52666 9.92267 6.90898 9.92267H6.66589L5.23047 11.3566C5.7621 11.4659 6.32414 11.5388 6.87096 11.5388C9.8709 11.5388 12.4759 9.78903 13.7215 7.26149C13.8354 7.09136 13.8354 6.92124 13.7595 6.76327Z" fill="#666666" fill-opacity="0.8"/>
</svg>
