<svg width="61" height="48" viewBox="0 0 61 48" fill="none" xmlns="http://www.w3.org/2000/svg">
<g clip-path="url(#clip0_4542_719)">
<path d="M11.0893 47.7615V44.5845C11.0893 43.3664 10.3569 42.5724 9.10135 42.5724C8.47371 42.5724 7.79366 42.7842 7.32282 43.4726C6.95682 42.8901 6.43379 42.5724 5.64913 42.5724C5.12586 42.5724 4.60307 42.7311 4.18441 43.3136V42.6783H3.08594V47.7615H4.18441V44.955C4.18441 44.0551 4.65526 43.6313 5.38773 43.6313C6.11973 43.6313 6.48621 44.1079 6.48621 44.955V47.7615H7.58469V44.955C7.58469 44.0551 8.10748 43.6313 8.78753 43.6313C9.52001 43.6313 9.88601 44.1079 9.88601 44.955V47.7615H11.0893ZM27.357 42.6783H25.5787V41.1428H24.4803V42.6783H23.4864V43.6841H24.48V46.0142C24.48 47.1792 24.9509 47.8673 26.2064 47.8673C26.6772 47.8673 27.2 47.7086 27.5665 47.4969L27.2524 46.5436C26.9386 46.7554 26.5726 46.8085 26.311 46.8085C25.7879 46.8085 25.5787 46.4908 25.5787 45.9611V43.6841H27.357V42.6783ZM36.6681 42.5722C36.0405 42.5722 35.6221 42.8901 35.3604 43.3136V42.6783H34.2619V47.7615H35.3604V44.9022C35.3604 44.0551 35.7264 43.5785 36.4065 43.5785C36.6157 43.5785 36.8773 43.6315 37.0865 43.6844L37.4003 42.6255C37.1911 42.5724 36.8773 42.5724 36.6681 42.5724M22.5971 43.1021C22.0739 42.7313 21.3416 42.5726 20.557 42.5726C19.3017 42.5726 18.4648 43.208 18.4648 44.214C18.4648 45.0614 19.0925 45.5378 20.191 45.6967L20.714 45.7498C21.2894 45.8555 21.6033 46.0144 21.6033 46.2792C21.6033 46.6497 21.1848 46.9146 20.4524 46.9146C19.7199 46.9146 19.1447 46.6497 18.7784 46.3851L18.2554 47.2323C18.8308 47.6558 19.6155 47.8676 20.3999 47.8676C21.8646 47.8676 22.7017 47.1794 22.7017 46.2262C22.7017 45.326 22.0217 44.8494 20.9754 44.6907L20.4524 44.6376C19.9815 44.5845 19.6155 44.4789 19.6155 44.1612C19.6155 43.7905 19.9815 43.5787 20.557 43.5787C21.1848 43.5787 21.8125 43.8433 22.1263 44.0023L22.5971 43.1021ZM51.7854 42.5726C51.1575 42.5726 50.7391 42.8903 50.4775 43.3139V42.6785H49.379V47.7617H50.4775V44.9024C50.4775 44.0553 50.8437 43.5787 51.5235 43.5787C51.733 43.5787 51.9946 43.6318 52.2038 43.6846L52.5176 42.6257C52.3084 42.5726 51.9946 42.5726 51.7854 42.5726ZM37.7666 45.2201C37.7666 46.7556 38.8126 47.8676 40.4344 47.8676C41.1666 47.8676 41.6896 47.7089 42.2127 47.2853L41.6896 46.3851C41.2712 46.7028 40.8528 46.8615 40.382 46.8615C39.4927 46.8615 38.8651 46.2262 38.8651 45.2201C38.8651 44.2671 39.4927 43.6315 40.382 43.5787C40.8528 43.5787 41.2712 43.7374 41.6896 44.0553L42.2127 43.1551C41.6896 42.7313 41.1666 42.5726 40.4344 42.5726C38.8126 42.5726 37.7666 43.6846 37.7666 45.2201ZM47.9145 45.2201V42.6785H46.816V43.3139C46.4498 42.8375 45.9268 42.5726 45.2467 42.5726C43.8344 42.5726 42.7359 43.6846 42.7359 45.2201C42.7359 46.7556 43.8344 47.8676 45.2467 47.8676C45.9789 47.8676 46.5022 47.603 46.816 47.1264V47.7617H47.9145V45.2201ZM43.8866 45.2201C43.8866 44.3199 44.462 43.5787 45.4035 43.5787C46.2928 43.5787 46.9206 44.2671 46.9206 45.2201C46.9206 46.1203 46.2928 46.8615 45.4035 46.8615C44.462 46.8085 43.8866 46.1203 43.8866 45.2201ZM30.7573 42.5726C29.2926 42.5726 28.2463 43.6315 28.2463 45.2201C28.2463 46.8087 29.2923 47.8676 30.8095 47.8676C31.5417 47.8676 32.2742 47.6558 32.8496 47.1794L32.3264 46.3851C31.908 46.7028 31.3849 46.9146 30.8619 46.9146C30.1819 46.9146 29.5018 46.5969 29.3448 45.6965H33.0589V45.2732C33.1113 43.6315 32.1698 42.5726 30.7573 42.5726ZM30.7571 43.5256C31.4369 43.5256 31.908 43.9494 32.0123 44.7437H29.397C29.5016 44.0553 29.9724 43.5256 30.7571 43.5256ZM58.0098 45.2201V40.6664H56.9113V43.3139C56.5451 42.8375 56.022 42.5726 55.342 42.5726C53.9297 42.5726 52.8312 43.6846 52.8312 45.2201C52.8312 46.7556 53.9297 47.8676 55.342 47.8676C56.0744 47.8676 56.5975 47.603 56.9113 47.1264V47.7617H58.0098V45.2201ZM53.9821 45.2201C53.9821 44.3199 54.5573 43.5787 55.499 43.5787C56.3883 43.5787 57.0159 44.2671 57.0159 45.2201C57.0159 46.1203 56.3883 46.8615 55.499 46.8615C54.5573 46.8085 53.9821 46.1203 53.9821 45.2201ZM17.2613 45.2201V42.6785H16.1628V43.3139C15.7966 42.8375 15.2735 42.5726 14.5935 42.5726C13.1812 42.5726 12.0827 43.6846 12.0827 45.2201C12.0827 46.7556 13.1812 47.8676 14.5935 47.8676C15.326 47.8676 15.849 47.603 16.1628 47.1264V47.7617H17.2613V45.2201ZM13.1812 45.2201C13.1812 44.3199 13.7566 43.5787 14.6981 43.5787C15.5874 43.5787 16.2152 44.2671 16.2152 45.2201C16.2152 46.1203 15.5874 46.8615 14.6981 46.8615C13.7566 46.8085 13.1812 46.1203 13.1812 45.2201Z" fill="black"/>
<path d="M22.2314 4.07715H38.7086V34.0472H22.2314V4.07715Z" fill="#FF5F00"/>
<path d="M23.2775 19.0623C23.2775 12.973 26.102 7.57194 30.4435 4.07711C27.2529 1.53552 23.2253 0 18.8314 0C8.42157 0 0 8.52494 0 19.0623C0 29.5996 8.42157 38.1245 18.8311 38.1245C23.225 38.1245 27.2527 36.589 30.4435 34.0472C26.102 30.6054 23.2775 25.1515 23.2775 19.0623Z" fill="#EB001B"/>
<path d="M60.9386 19.0623C60.9386 29.5994 52.5171 38.1245 42.1075 38.1245C37.7136 38.1245 33.6859 36.589 30.4951 34.0472C34.889 30.5526 37.6614 25.1515 37.6614 19.0623C37.6614 12.973 34.8366 7.57194 30.4951 4.07711C33.6857 1.53552 37.7136 0 42.1075 0C52.5171 0 60.9386 8.57801 60.9386 19.0623Z" fill="#F79E1B"/>
</g>
<defs>
<clipPath id="clip0_4542_719">
<rect width="61" height="48" fill="white"/>
</clipPath>
</defs>
</svg>
