<svg width="84" height="34" viewBox="0 0 84 34" fill="none" xmlns="http://www.w3.org/2000/svg">
<g clip-path="url(#clip0_6842_8092)">
<path d="M84 17.4893C84 11.7047 81.1066 7.14032 75.5767 7.14032C70.0232 7.14032 66.6632 11.7049 66.6632 17.4442C66.6632 24.2455 70.6301 27.6801 76.3232 27.6801C79.0999 27.6801 81.1999 27.07 82.7866 26.2115V21.6922C81.2001 22.4605 79.38 22.9351 77.07 22.9351C74.8066 22.9351 72.7999 22.1667 72.5434 19.5004H83.9534C83.9534 19.2065 84 18.0316 84 17.4893ZM72.4733 15.3427C72.4733 12.7894 74.0834 11.7273 75.5534 11.7273C76.9766 11.7273 78.4934 12.7894 78.4934 15.3427H72.4733ZM57.6568 7.14032C55.3699 7.14032 53.8999 8.1797 53.0834 8.90292L52.7799 7.50192H47.6467V33.8487L53.4799 32.6513L53.5034 26.2566C54.3434 26.8441 55.5799 27.6801 57.6334 27.6801C61.8101 27.6801 65.6133 24.4263 65.6133 17.2634C65.59 10.7105 61.74 7.14032 57.6566 7.14032M56.2565 22.709C54.8799 22.709 54.063 22.2346 53.5032 21.647L53.4798 13.2638C54.0865 12.6086 54.9265 12.1567 56.2565 12.1567C58.3798 12.1567 59.8498 14.4614 59.8498 17.4215C59.8498 20.4494 58.4031 22.709 56.2565 22.709ZM39.6199 5.80717L45.4767 4.58698V0L39.6199 1.19763V5.80717ZM39.6199 7.52449H45.4767V27.296H39.6199V7.52449ZM33.3434 9.19652L32.97 7.52449H27.93V27.296H33.7634V13.8966C35.1399 12.1567 37.4734 12.4731 38.1967 12.7216V7.52449C37.4501 7.25328 34.7201 6.75615 33.3434 9.19652ZM21.6766 2.62118L15.9833 3.79608L15.96 21.8955C15.96 25.2399 18.5501 27.7027 22.0034 27.7027C23.9167 27.7027 25.3166 27.3638 26.0866 26.9571V22.3701C25.3401 22.6639 21.6533 23.7032 21.6533 20.359V12.3374H26.0866V7.52449H21.6533L21.6766 2.62118ZM5.9033 13.2638C5.9033 12.3827 6.64995 12.0436 7.88681 12.0436C9.66 12.0436 11.8999 12.5635 13.6733 13.4899V8.1797C11.7367 7.43408 9.82341 7.14032 7.88681 7.14032C3.15 7.14032 0 9.53557 0 13.5352C0 19.7715 8.86659 18.7774 8.86659 21.4664C8.86659 22.5056 7.93341 22.8447 6.62665 22.8447C4.69005 22.8447 2.21665 22.0763 0.256594 21.0369V26.4148C2.42665 27.3187 4.62 27.7027 6.62665 27.7027C11.4799 27.7027 14.8166 25.3754 14.8166 21.3307C14.7934 14.5971 5.9033 15.7946 5.9033 13.2638Z" fill="#635BFF"/>
</g>
<defs>
<clipPath id="clip0_6842_8092">
<rect width="84" height="34" fill="white"/>
</clipPath>
</defs>
</svg>
