<svg width="31" height="30" viewBox="0 0 31 30" fill="none" xmlns="http://www.w3.org/2000/svg">
<path d="M0.5 15.0002C0.5 21.1425 4.19352 26.4192 9.47879 28.7392C9.4366 27.6918 9.47129 26.4343 9.73988 25.2947C10.0283 24.077 11.67 17.1211 11.67 17.1211C11.67 17.1211 11.1908 16.1633 11.1908 14.7478C11.1908 12.5249 12.4791 10.8647 14.0837 10.8647C15.4481 10.8647 16.1073 11.8895 16.1073 13.1167C16.1073 14.4882 15.2325 16.5398 14.7826 18.44C14.4068 20.0312 15.5804 21.3291 17.1501 21.3291C19.9921 21.3291 21.9063 17.6788 21.9063 13.3539C21.9063 10.0663 19.692 7.60559 15.6646 7.60559C11.1145 7.60559 8.27984 10.9989 8.27984 14.7892C8.27984 16.0961 8.66516 17.0176 9.26867 17.7313C9.54617 18.0591 9.58473 18.1909 9.4843 18.5673C9.41234 18.8433 9.24711 19.5077 9.17867 19.7711C9.07883 20.151 8.77098 20.2868 8.42762 20.1465C6.33184 19.2909 5.35578 16.9958 5.35578 14.4158C5.35578 10.1548 8.94945 5.04539 16.0763 5.04539C21.8033 5.04539 25.5726 9.18961 25.5726 13.6382C25.5726 19.5225 22.3012 23.9186 17.4789 23.9186C15.8595 23.9186 14.3362 23.0432 13.8144 22.0488C13.8144 22.0488 12.9436 25.5049 12.7591 26.1723C12.4411 27.3288 11.8186 28.4848 11.2494 29.3857C12.6296 29.7938 14.0613 30.001 15.5006 30.0008C23.7839 30.0008 30.5001 23.2849 30.5001 15.0002C30.5001 6.7159 23.7839 0 15.5006 0C7.21648 0 0.5 6.7159 0.5 15.0002Z" fill="#CB1F27"/>
</svg>
