<svg width="24" height="24" viewBox="0 0 24 24" fill="none" xmlns="http://www.w3.org/2000/svg">
<path fill-rule="evenodd" clip-rule="evenodd" d="M5.40449 0.690135C9.78749 0.204851 14.2107 0.204851 18.5937 0.690135C21.0204 0.962135 22.9782 2.87322 23.263 5.30847C23.7824 9.75396 23.7824 14.2448 23.263 18.6903C22.9782 21.1256 21.0204 23.0366 18.5937 23.3086C14.2107 23.7939 9.78749 23.7939 5.40449 23.3086C2.97774 23.0366 1.01991 21.1256 0.735157 18.6903C0.215885 14.2453 0.215885 9.75491 0.735157 5.30989C0.879187 4.12678 1.41853 3.02699 2.26577 2.18875C3.11301 1.35051 4.2185 0.822939 5.40307 0.691552M11.9991 4.92597C12.2809 4.92597 12.5511 5.03791 12.7504 5.23717C12.9496 5.43642 13.0616 5.70668 13.0616 5.98847V10.9369H18.01C18.2918 10.9369 18.562 11.0488 18.7613 11.2481C18.9606 11.4473 19.0725 11.7176 19.0725 11.9994C19.0725 12.2812 18.9606 12.5514 18.7613 12.7507C18.562 12.9499 18.2918 13.0619 18.01 13.0619H13.0616V18.0103C13.0616 18.2921 12.9496 18.5623 12.7504 18.7616C12.5511 18.9609 12.2809 19.0728 11.9991 19.0728C11.7173 19.0728 11.447 18.9609 11.2478 18.7616C11.0485 18.5623 10.9366 18.2921 10.9366 18.0103V13.0619H5.98816C5.70636 13.0619 5.43611 12.9499 5.23686 12.7507C5.0376 12.5514 4.92566 12.2812 4.92566 11.9994C4.92566 11.7176 5.0376 11.4473 5.23686 11.2481C5.43611 11.0488 5.70636 10.9369 5.98816 10.9369H10.9366V5.98847C10.9366 5.70668 11.0485 5.43642 11.2478 5.23717C11.447 5.03791 11.7173 4.92597 11.9991 4.92597Z" fill="#F79256"/>
</svg>
