<svg width="34" height="34" viewBox="0 0 34 34" fill="none" xmlns="http://www.w3.org/2000/svg">
<path fill-rule="evenodd" clip-rule="evenodd" d="M10.4064 5.69014C14.7894 5.20485 19.2126 5.20485 23.5956 5.69014C26.0224 5.96214 27.9802 7.87322 28.2649 10.3085C28.7843 14.754 28.7843 19.2448 28.2649 23.6903C27.9802 26.1256 26.0224 28.0366 23.5956 28.3086C19.2126 28.7939 14.7894 28.7939 10.4064 28.3086C7.97969 28.0366 6.02186 26.1256 5.73711 23.6903C5.21784 19.2453 5.21784 14.7549 5.73711 10.3099C5.88114 9.12678 6.42048 8.02699 7.26772 7.18875C8.11497 6.35051 9.22046 5.82294 10.405 5.69155M17.001 9.92597C17.2828 9.92597 17.5531 10.0379 17.7523 10.2372C17.9516 10.4364 18.0635 10.7067 18.0635 10.9885V15.9369H23.0119C23.2937 15.9369 23.564 16.0488 23.7632 16.2481C23.9625 16.4473 24.0744 16.7176 24.0744 16.9994C24.0744 17.2812 23.9625 17.5514 23.7632 17.7507C23.564 17.9499 23.2937 18.0619 23.0119 18.0619H18.0635V23.0103C18.0635 23.2921 17.9516 23.5623 17.7523 23.7616C17.5531 23.9609 17.2828 24.0728 17.001 24.0728C16.7192 24.0728 16.449 23.9609 16.2497 23.7616C16.0505 23.5623 15.9385 23.2921 15.9385 23.0103V18.0619H10.9901C10.7083 18.0619 10.4381 17.9499 10.2388 17.7507C10.0396 17.5514 9.92761 17.2812 9.92761 16.9994C9.92761 16.7176 10.0396 16.4473 10.2388 16.2481C10.4381 16.0488 10.7083 15.9369 10.9901 15.9369H15.9385V10.9885C15.9385 10.7067 16.0505 10.4364 16.2497 10.2372C16.449 10.0379 16.7192 9.92597 17.001 9.92597Z" fill="#FAFAFA"/>
</svg>
