<svg width="34" height="34" viewBox="0 0 34 34" fill="none" xmlns="http://www.w3.org/2000/svg">
<g id="basil:add-solid">
<rect width="34" height="34" rx="15" fill="#F79256" fill-opacity="0.3"/>
<path id="Vector" fill-rule="evenodd" clip-rule="evenodd" d="M10.4045 5.69014C14.7875 5.20485 19.2107 5.20485 23.5937 5.69014C26.0204 5.96214 27.9782 7.87322 28.263 10.3085C28.7824 14.754 28.7824 19.2448 28.263 23.6903C27.9782 26.1256 26.0204 28.0366 23.5937 28.3086C19.2107 28.7939 14.7875 28.7939 10.4045 28.3086C7.97774 28.0366 6.01991 26.1256 5.73516 23.6903C5.21589 19.2453 5.21589 14.7549 5.73516 10.3099C5.87919 9.12678 6.41853 8.02699 7.26577 7.18875C8.11301 6.35051 9.2185 5.82294 10.4031 5.69155M16.9991 9.92597C17.2809 9.92597 17.5511 10.0379 17.7504 10.2372C17.9496 10.4364 18.0616 10.7067 18.0616 10.9885V15.9369H23.01C23.2918 15.9369 23.562 16.0488 23.7613 16.2481C23.9606 16.4473 24.0725 16.7176 24.0725 16.9994C24.0725 17.2812 23.9606 17.5514 23.7613 17.7507C23.562 17.9499 23.2918 18.0619 23.01 18.0619H18.0616V23.0103C18.0616 23.2921 17.9496 23.5623 17.7504 23.7616C17.5511 23.9609 17.2809 24.0728 16.9991 24.0728C16.7173 24.0728 16.447 23.9609 16.2478 23.7616C16.0485 23.5623 15.9366 23.2921 15.9366 23.0103V18.0619H10.9882C10.7064 18.0619 10.4361 17.9499 10.2369 17.7507C10.0376 17.5514 9.92566 17.2812 9.92566 16.9994C9.92566 16.7176 10.0376 16.4473 10.2369 16.2481C10.4361 16.0488 10.7064 15.9369 10.9882 15.9369H15.9366V10.9885C15.9366 10.7067 16.0485 10.4364 16.2478 10.2372C16.447 10.0379 16.7173 9.92597 16.9991 9.92597Z" fill="#F79256"/>
</g>
</svg>
