<svg width="20" height="20" viewBox="0 0 20 20" fill="none" xmlns="http://www.w3.org/2000/svg">
<path d="M10.0003 1.66699C5.40033 1.66699 1.66699 5.40033 1.66699 10.0003C1.66699 14.6003 5.40033 18.3337 10.0003 18.3337C14.6003 18.3337 18.3337 14.6003 18.3337 10.0003C18.3337 5.40033 14.6003 1.66699 10.0003 1.66699ZM10.8337 15.8337H9.16699V14.167H10.8337V15.8337ZM12.5587 9.37533L11.8087 10.142C11.392 10.567 11.092 10.9503 10.942 11.5503C10.8753 11.817 10.8337 12.117 10.8337 12.5003H9.16699V12.0837C9.16665 11.6458 9.25258 11.2121 9.41987 10.8075C9.58716 10.4028 9.83254 10.0351 10.142 9.72533L11.1753 8.67533C11.5587 8.30866 11.742 7.75866 11.6337 7.17532C11.5759 6.8771 11.4373 6.60047 11.233 6.37563C11.0288 6.15078 10.7667 5.98637 10.4753 5.90033C9.55032 5.64199 8.69199 6.16699 8.41699 6.95866C8.31699 7.26699 8.05866 7.50033 7.73366 7.50033H7.48366C7.00033 7.50033 6.66699 7.03366 6.80033 6.56699C6.97924 5.95915 7.32728 5.4147 7.80386 4.99714C8.28044 4.57958 8.86591 4.30612 9.49199 4.20866C10.7587 4.00866 11.967 4.66699 12.717 5.70866C13.7003 7.06699 13.4087 8.52533 12.5587 9.37533Z" fill="#FAFAFA"/>
</svg>
