<svg width="20" height="20" viewBox="0 0 20 20" fill="none" xmlns="http://www.w3.org/2000/svg">
<path d="M13.542 17.5V13.5292C13.5418 13.355 13.5072 13.1826 13.4403 13.0219C13.3734 12.8611 13.2755 12.7151 13.1521 12.5922C13.0288 12.4693 12.8824 12.3719 12.7214 12.3056C12.5603 12.2393 12.3878 12.2054 12.2137 12.2058H7.78699C7.61285 12.2054 7.44033 12.2393 7.2793 12.3056C7.11827 12.3719 6.97188 12.4693 6.84851 12.5922C6.72514 12.7151 6.62721 12.8611 6.56032 13.0219C6.49342 13.1826 6.45888 13.355 6.45866 13.5292V17.5M13.542 2.73751V4.70584C13.5418 4.87998 13.5072 5.05237 13.4403 5.21316C13.3734 5.37394 13.2755 5.51996 13.1521 5.64286C13.0288 5.76577 12.8824 5.86315 12.7214 5.92943C12.5603 5.99572 12.3878 6.02961 12.2137 6.02918H7.78699C7.61285 6.02961 7.44033 5.99572 7.2793 5.92943C7.11827 5.86315 6.97188 5.76577 6.84851 5.64286C6.72514 5.51996 6.62721 5.37394 6.56032 5.21316C6.49342 5.05237 6.45888 4.87998 6.45866 4.70584V2.50001M13.542 2.73751C13.1964 2.58099 12.8214 2.50003 12.442 2.50001H6.45866M13.542 2.73751C13.8287 2.86751 14.0928 3.04918 14.3203 3.27501L16.3053 5.25417C16.5518 5.49944 16.7474 5.79096 16.881 6.112C17.0146 6.43304 17.0834 6.77729 17.0837 7.12501V14.8517C17.0834 15.2 17.0145 15.5449 16.8809 15.8666C16.7473 16.1883 16.5515 16.4805 16.3048 16.7265C16.0582 16.9725 15.7654 17.1674 15.4433 17.3001C15.1213 17.4329 14.7762 17.5008 14.4278 17.5H5.57366C5.22531 17.5009 4.8802 17.4331 4.55808 17.3004C4.23596 17.1678 3.94315 16.973 3.6964 16.7271C3.44965 16.4812 3.2538 16.1891 3.12007 15.8674C2.98633 15.5457 2.91732 15.2009 2.91699 14.8525V5.14668C2.91743 4.79839 2.98652 4.45361 3.1203 4.13205C3.25409 3.81048 3.44996 3.51845 3.69669 3.27264C3.94343 3.02683 4.23621 2.83207 4.55827 2.69949C4.88034 2.56692 5.22538 2.49913 5.57366 2.50001H6.45866" stroke="white" stroke-width="1.5" stroke-linecap="round" stroke-linejoin="round"/>
</svg>
