<svg width="24" height="24" viewBox="0 0 24 24" fill="none" xmlns="http://www.w3.org/2000/svg">
<path fill-rule="evenodd" clip-rule="evenodd" d="M21.75 12C21.75 12.1338 21.7143 12.2652 21.6464 12.3806C21.5785 12.4959 21.481 12.591 21.364 12.656L19.082 13.924C14.5706 16.4302 9.8149 18.4688 4.889 20.008L4.224 20.216C4.11168 20.2511 3.99267 20.2594 3.87659 20.24C3.7605 20.2206 3.6506 20.1742 3.55578 20.1045C3.46095 20.0348 3.38386 19.9438 3.33074 19.8387C3.27762 19.7337 3.24996 19.6177 3.25 19.5V13.75C3.25 13.359 3.55 13.034 3.94 13.002L4.168 12.984C6.31814 12.8121 8.45283 12.4832 10.555 12C8.42316 11.5096 6.25789 11.178 4.077 11.008L3.942 10.998C3.75365 10.9834 3.57775 10.8982 3.44946 10.7596C3.32117 10.6209 3.24994 10.4389 3.25 10.25V4.49999C3.24996 4.3823 3.27762 4.26625 3.33074 4.16123C3.38386 4.05622 3.46095 3.96517 3.55578 3.89547C3.6506 3.82576 3.7605 3.77935 3.87659 3.75998C3.99267 3.74061 4.11168 3.74884 4.224 3.78399L4.889 3.99199C9.8149 5.53121 14.5706 7.5698 19.082 10.076L21.364 11.344C21.481 11.4089 21.5785 11.504 21.6464 11.6194C21.7143 11.7347 21.75 11.8661 21.75 12ZM19.456 12L18.353 11.388C14.0256 8.98337 9.46862 7.01759 4.75 5.51999V9.55999C7.68 9.82399 10.578 10.37 13.404 11.191L13.709 11.28C13.8648 11.3255 14.0015 11.4204 14.0988 11.5503C14.1961 11.6801 14.2486 11.8381 14.2485 12.0004C14.2484 12.1626 14.1956 12.3205 14.0982 12.4503C14.0007 12.58 13.8638 12.6747 13.708 12.72L13.318 12.833C10.5197 13.6402 7.65064 14.1783 4.75 14.44V18.48C9.46862 16.9824 14.0256 15.0166 18.353 12.612L19.456 12Z" fill="#FAFAFA"/>
</svg>
