<svg width="8" height="10" viewBox="0 0 8 10" fill="none" xmlns="http://www.w3.org/2000/svg">
<path d="M6.25 5.9375L7 6.875L6.25 7.8125M6.25 2.1875L7 3.125L6.25 4.0625M1 6.875H2.33109C2.53686 6.875 2.73945 6.81149 2.92087 6.69013C3.10229 6.56877 3.25694 6.3933 3.37109 6.1793L4 5" stroke="black" stroke-width="0.5" stroke-linecap="round" stroke-linejoin="round"/>
<path d="M1 3.125H2.33109C2.53686 3.125 2.73945 3.18851 2.92087 3.30987C3.10229 3.43123 3.25694 3.6067 3.37109 3.8207L4.62891 6.1793C4.74306 6.3933 4.89771 6.56877 5.07913 6.69013C5.26055 6.81149 5.46314 6.875 5.66891 6.875H6.5M6.5 3.125H5.66891C5.46314 3.125 5.26055 3.18851 5.07913 3.30987C4.89771 3.43123 4.74306 3.6067 4.62891 3.8207L4.5 4.0625" stroke="black" stroke-width="0.5" stroke-linecap="round" stroke-linejoin="round"/>
</svg>
