<svg width="38" height="38" viewBox="0 0 38 38" fill="none" xmlns="http://www.w3.org/2000/svg">
<path d="M33.4393 20.333C33.7614 20.6549 34.1539 20.8976 34.5859 21.0417C34.1539 21.1858 33.7613 21.4285 33.4393 21.7505C33.1172 22.0726 32.8745 22.4652 32.7305 22.8972C32.5864 22.4652 32.3437 22.0726 32.0216 21.7506C31.6996 21.4285 31.307 21.1859 30.875 21.0417C31.307 20.8977 31.6996 20.655 32.0217 20.333C32.3437 20.0109 32.5864 19.6183 32.7305 19.1863C32.874 19.6186 33.1168 20.0113 33.4393 20.333Z" fill="#F79256"/>
<path d="M29.617 24.1122C29.617 25.6438 29.0907 27.1289 28.1265 28.3188C27.1622 29.5087 25.8184 30.3312 24.32 30.6486L23.9771 30.7028C24.1908 30.3605 24.3037 29.9649 24.3029 29.5613H22.1372C22.5752 29.5614 23.0029 29.4287 23.3639 29.1806C23.7248 28.9325 24.0021 28.5808 24.159 28.172C24.9855 27.8621 25.6979 27.3075 26.2008 26.582C26.7037 25.8566 26.9732 24.9949 26.9733 24.1122C26.9733 21.7194 25.3301 19.78 22.9373 19.78C22.1474 19.7687 21.3759 20.0186 20.7427 20.4911C21.4194 19.6094 21.8779 18.5802 22.0808 17.4874C23.0225 17.3659 23.9792 17.4465 24.8873 17.7239C25.7953 18.0012 26.6338 18.4688 27.3469 19.0957C28.06 19.7226 28.6313 20.4942 29.0228 21.3592C29.4142 22.2242 29.6168 23.1627 29.617 24.1122Z" fill="#EA5700"/>
<path d="M26.9734 24.1122C26.9733 24.9949 26.7037 25.8566 26.2008 26.582C25.6979 27.3075 24.9856 27.8621 24.159 28.1719C24.2544 27.924 24.3032 27.6606 24.303 27.3949H22.1373C22.4217 27.3949 22.7034 27.339 22.9662 27.2301C23.2289 27.1213 23.4677 26.9618 23.6688 26.7607C23.8699 26.5596 24.0295 26.3208 24.1383 26.058C24.2471 25.7952 24.3031 25.5136 24.303 25.2292H22.1373C22.4218 25.2291 22.7034 25.1731 22.9662 25.0642C23.229 24.9553 23.4678 24.7957 23.6689 24.5945C23.87 24.3934 24.0295 24.1545 24.1383 23.8917C24.2471 23.6289 24.3031 23.3472 24.303 23.0627H16.5449C18.2386 22.7829 19.7215 21.8255 20.7427 20.491C21.3759 20.0186 22.1475 19.7687 22.9374 19.78C25.3302 19.78 26.9734 21.7194 26.9734 24.1122Z" fill="#F79256"/>
<path d="M16.5449 23.0627H24.303C24.3031 23.3472 24.2471 23.6289 24.1383 23.8917C24.0295 24.1545 23.87 24.3934 23.6689 24.5945C23.4678 24.7957 23.229 24.9553 22.9662 25.0642C22.7034 25.1731 22.4218 25.2292 22.1373 25.2292H8.89447C8.31991 25.2292 7.76889 25.0009 7.36261 24.5946C6.95633 24.1883 6.72807 23.6373 6.72803 23.0627H14.4861C15.1678 23.1756 15.8633 23.1756 16.5449 23.0627Z" fill="#CE4D00"/>
<path d="M22.1373 25.2291H24.303C24.3031 25.5135 24.2471 25.7952 24.1383 26.058C24.0295 26.3208 23.87 26.5595 23.6688 26.7606C23.4677 26.9618 23.229 27.1213 22.9662 27.2301C22.7034 27.3389 22.4217 27.3949 22.1373 27.3948H8.89447C8.32004 27.3948 7.76913 27.1666 7.36287 26.7605C6.95661 26.3544 6.72826 25.8036 6.72803 25.2291H22.1373Z" fill="#FAFAFA"/>
<path d="M24.159 28.172C24.0021 28.5809 23.7249 28.9326 23.3639 29.1806C23.003 29.4287 22.5753 29.5614 22.1373 29.5613H8.89447C8.31991 29.5613 7.76889 29.333 7.36261 28.9268C6.95633 28.5205 6.72807 27.9695 6.72803 27.3949H24.303C24.3032 27.6606 24.2544 27.924 24.159 28.172Z" fill="#CE4D00"/>
<path d="M23.9772 30.7028C23.7835 31.0164 23.5127 31.2753 23.1907 31.4547C22.8686 31.6341 22.506 31.7281 22.1373 31.7277H8.89447C8.31991 31.7277 7.76889 31.4994 7.36261 31.0931C6.95633 30.6869 6.72807 30.1358 6.72803 29.5613H24.303C24.3038 29.9648 24.1909 30.3604 23.9772 30.7028Z" fill="#FAFAFA"/>
<path d="M22.081 17.4874C21.8781 18.5802 21.4196 19.6094 20.7429 20.491C19.7216 21.8255 18.2387 22.7829 16.545 23.0627H14.4862C11.2859 22.5335 8.83594 19.5841 8.83594 16.245C8.83594 14.4734 9.53969 12.7744 10.7924 11.5217C12.0451 10.2691 13.7441 9.56531 15.5156 9.56531C17.2872 9.56531 18.9862 10.2691 20.2389 11.5217C21.4916 12.7744 22.1953 14.4734 22.1953 16.245C22.1952 16.6618 22.1569 17.0776 22.081 17.4874ZM19.8485 16.245C19.8485 15.0959 19.3921 13.9939 18.5795 13.1814C17.767 12.3689 16.6651 11.9125 15.516 11.9125C14.3669 11.9125 13.2649 12.3689 12.4524 13.1814C11.6399 13.9939 11.1835 15.0959 11.1835 16.245C11.1835 18.6378 13.1228 20.3552 15.5156 20.3552C17.9084 20.3552 19.8485 18.6378 19.8485 16.245Z" fill="#EA5700"/>
<path d="M15.5153 11.9128C16.0842 11.9128 16.6476 12.0248 17.1733 12.2425C17.6989 12.4602 18.1766 12.7793 18.5789 13.1815C18.9813 13.5838 19.3004 14.0614 19.5182 14.587C19.736 15.1127 19.8481 15.676 19.8481 16.245C19.8481 18.6378 17.9081 20.3552 15.5153 20.3552C13.1224 20.3552 11.1831 18.6378 11.1831 16.245C11.1831 15.6761 11.2951 15.1127 11.5128 14.5871C11.7305 14.0615 12.0496 13.5839 12.4519 13.1816C12.8542 12.7793 13.3317 12.4602 13.8574 12.2425C14.383 12.0248 14.9463 11.9128 15.5153 11.9128Z" fill="#F79256"/>
<path d="M14.4858 23.0627H16.5447C15.863 23.1756 15.1675 23.1756 14.4858 23.0627Z" fill="#EA5700"/>
<path d="M9.3575 7.60222C9.73085 7.97603 10.1863 8.2576 10.6875 8.42456C10.1864 8.59182 9.73106 8.87335 9.3575 9.24691C8.98395 9.62046 8.70241 10.0758 8.53516 10.5769C8.36813 10.0757 8.08668 9.62021 7.71309 9.24663C7.3395 8.87304 6.88405 8.59158 6.38281 8.42456C6.88392 8.25731 7.33926 7.97577 7.71281 7.60222C8.08637 7.22866 8.3679 6.77333 8.53516 6.27222C8.70212 6.77347 8.98369 7.22886 9.3575 7.60222ZM5.46547 19.8067C5.72298 20.0645 6.03709 20.2587 6.38281 20.3738C6.03717 20.489 5.72311 20.6832 5.46547 20.9408C5.20783 21.1984 5.0137 21.5125 4.89844 21.8582C4.7831 21.5126 4.58894 21.1985 4.33131 20.9409C4.07369 20.6833 3.75966 20.4891 3.41406 20.3738C3.7597 20.2585 4.07377 20.0644 4.33141 19.8067C4.58904 19.5491 4.78317 19.235 4.89844 18.8894C5.01409 19.2349 5.20817 19.5488 5.46547 19.8067Z" fill="#F79256"/>
<path d="M10.8518 7.93168C10.4273 7.78995 10.0415 7.55142 9.72498 7.23495C9.40847 6.91848 9.1699 6.53273 9.02812 6.1082C8.99368 6.00469 8.92753 5.91464 8.83905 5.85083C8.75057 5.78702 8.64425 5.75269 8.53516 5.75269C8.42607 5.75269 8.31975 5.78702 8.23127 5.85083C8.14279 5.91464 8.07664 6.00469 8.0422 6.1082C7.90042 6.53275 7.66186 6.91851 7.34535 7.23499C7.02883 7.55148 6.64305 7.79002 6.21849 7.93175C6.11504 7.96623 6.02505 8.03238 5.96128 8.12084C5.89752 8.20931 5.8632 8.31559 5.8632 8.42464C5.8632 8.53369 5.89752 8.63997 5.96128 8.72843C6.02505 8.8169 6.11504 8.88305 6.21849 8.91753C6.64269 9.05993 7.0281 9.29871 7.3445 9.61512C7.66089 9.93153 7.89966 10.317 8.04205 10.7412C8.07649 10.8447 8.14264 10.9347 8.23112 10.9985C8.3196 11.0623 8.42592 11.0967 8.53501 11.0967C8.6441 11.0967 8.75042 11.0623 8.8389 10.9985C8.92738 10.9347 8.99353 10.8447 9.02797 10.7412C9.16975 10.3166 9.40832 9.93084 9.72483 9.61434C10.0413 9.29785 10.4271 9.05929 10.8517 8.91753C10.9551 8.88303 11.0451 8.81688 11.1088 8.72842C11.1725 8.63997 11.2069 8.53371 11.2069 8.42468C11.2069 8.31565 11.1725 8.20938 11.1088 8.12093C11.0451 8.03247 10.9551 7.96632 10.8517 7.93183L10.8518 7.93168ZM8.99012 8.87953C8.82208 9.04781 8.66965 9.23099 8.53471 9.42682C8.26371 9.03528 7.92429 8.69586 7.53276 8.42486C7.92502 8.15474 8.26459 7.81517 8.53471 7.42291C8.80463 7.81511 9.14397 8.15468 9.536 8.42486C9.34058 8.55948 9.15786 8.71167 8.99012 8.87953ZM34.7505 20.5489C34.3949 20.4304 34.0719 20.2308 33.8069 19.9658C33.5418 19.7008 33.3421 19.3778 33.2236 19.0223C33.1892 18.9186 33.1231 18.8285 33.0345 18.7646C32.946 18.7007 32.8396 18.6663 32.7305 18.6663C32.6213 18.6663 32.5149 18.7007 32.4264 18.7646C32.3379 18.8285 32.2717 18.9186 32.2374 19.0223C32.1187 19.3777 31.919 19.7007 31.654 19.9656C31.389 20.2306 31.066 20.4302 30.7105 20.5487C30.6071 20.5832 30.5172 20.6494 30.4535 20.7378C30.3898 20.8263 30.3555 20.9325 30.3555 21.0415C30.3555 21.1505 30.3898 21.2567 30.4535 21.3451C30.5172 21.4336 30.6071 21.4997 30.7105 21.5343C31.0665 21.6573 31.3894 21.8607 31.6543 22.1286C31.9191 22.3966 32.1186 22.7219 32.2375 23.0794C32.2711 23.1849 32.3364 23.2775 32.4247 23.3444C32.513 23.4113 32.6198 23.4493 32.7305 23.4531C32.8412 23.4493 32.948 23.4113 33.0362 23.3444C33.1244 23.2774 33.1898 23.1848 33.2233 23.0792C33.3406 22.7215 33.5397 22.396 33.8047 22.1287C34.0698 21.8613 34.3935 21.6595 34.7503 21.5391C34.8537 21.504 34.9436 21.4374 35.0073 21.3486C35.071 21.2598 35.1052 21.1533 35.1052 21.044C35.1052 20.9347 35.071 20.8282 35.0073 20.7394C34.9436 20.6506 34.8537 20.584 34.7503 20.5489H34.7505ZM33.0723 21.3824C32.948 21.5066 32.8335 21.6401 32.7296 21.7817C32.5215 21.4995 32.2721 21.2502 31.9898 21.0422C32.273 20.8349 32.5228 20.5854 32.7305 20.3024C32.9379 20.585 33.1874 20.8343 33.4702 21.0415C33.3291 21.1448 33.1961 21.2588 33.0723 21.3824ZM4.40563 22.0408C4.43921 22.1463 4.50461 22.2388 4.59284 22.3056C4.68107 22.3724 4.78782 22.4103 4.89844 22.4141C5.00897 22.4103 5.11562 22.3724 5.20381 22.3057C5.29201 22.239 5.35742 22.1466 5.3911 22.0413C5.4814 21.7695 5.63245 21.5219 5.83278 21.3173C6.03323 21.1156 6.27762 20.9629 6.54684 20.8713C6.65043 20.8364 6.74046 20.7699 6.80425 20.6812C6.86803 20.5924 6.90234 20.4859 6.90234 20.3766C6.90234 20.2673 6.86803 20.1608 6.80425 20.072C6.74046 19.9833 6.65043 19.9168 6.54684 19.8819C6.27766 19.7919 6.03313 19.6404 5.83255 19.4396C5.63198 19.2388 5.48088 18.994 5.39118 18.7247C5.3566 18.6214 5.29043 18.5316 5.20202 18.468C5.11362 18.4043 5.00744 18.3701 4.89851 18.3701C4.78958 18.3701 4.68341 18.4043 4.595 18.468C4.50659 18.5316 4.44042 18.6214 4.40585 18.7247C4.31616 18.9939 4.16505 19.2385 3.96447 19.4392C3.76388 19.6399 3.51934 19.7911 3.25019 19.881C3.14672 19.9154 3.0567 19.9814 2.99287 20.0698C2.92904 20.1582 2.89464 20.2645 2.89453 20.3735C2.8943 20.4837 2.92836 20.5912 2.99198 20.6812C3.05559 20.7712 3.14562 20.8392 3.24959 20.8757C3.51888 20.968 3.76327 21.1211 3.96376 21.3232C4.16426 21.5252 4.31546 21.7708 4.40563 22.0408ZM4.69931 20.1735C4.76951 20.1031 4.83598 20.0291 4.89844 19.9518C5.02351 20.1071 5.16483 20.2486 5.32 20.3738C5.16462 20.4994 5.02305 20.6412 4.8977 20.7968C4.77198 20.642 4.63058 20.5006 4.47576 20.3748C4.55377 20.3117 4.62838 20.2445 4.69931 20.1735ZM18.9328 19.578C19.3905 19.1527 19.7545 18.6367 20.0016 18.0628C20.2487 17.4889 20.3734 16.8698 20.3679 16.245C20.3679 14.9582 19.8567 13.724 18.9467 12.8141C18.0368 11.9041 16.8026 11.3929 15.5158 11.3929C14.229 11.3929 12.9948 11.9041 12.0849 12.8141C11.1749 13.724 10.6637 14.9582 10.6637 16.245C10.6581 16.8698 10.7828 17.4888 11.0298 18.0627C11.2768 18.6366 11.6408 19.1527 12.0984 19.578C12.9983 20.4142 14.2118 20.8748 15.5154 20.8748C16.8191 20.8748 18.0327 20.4142 18.9328 19.578ZM11.7028 16.245C11.7028 15.2337 12.1045 14.2639 12.8196 13.5488C13.5347 12.8337 14.5045 12.432 15.5158 12.432C16.5271 12.432 17.4969 12.8337 18.212 13.5488C18.9271 14.2639 19.3288 15.2337 19.3288 16.245C19.3288 18.292 17.6894 19.8357 15.5154 19.8357C13.3415 19.8357 11.7028 18.292 11.7028 16.245Z" fill="#632A08"/>
<path d="M15.5156 9.04578C11.5459 9.04578 8.31642 12.285 8.31642 16.2546C8.31985 17.5077 8.63476 18.7402 9.23282 19.8413C9.83087 20.9424 10.6933 21.8775 11.7425 22.5625H6.72813C6.66032 22.5617 6.59301 22.5744 6.53011 22.5997C6.46721 22.6251 6.40995 22.6627 6.36165 22.7103C6.31335 22.7579 6.27496 22.8146 6.24869 22.8771C6.22242 22.9397 6.20879 23.0068 6.2086 23.0746C6.20319 23.6699 6.40258 24.249 6.77333 24.7148H6.72813C6.66026 24.7141 6.59292 24.7268 6.52998 24.7522C6.46705 24.7777 6.40978 24.8153 6.36148 24.863C6.31317 24.9107 6.27479 24.9674 6.24855 25.03C6.22231 25.0926 6.20874 25.1598 6.2086 25.2277C6.20335 25.8228 6.40273 26.4016 6.77333 26.8672H6.72813C6.66032 26.8664 6.59301 26.8791 6.53011 26.9044C6.46721 26.9298 6.40995 26.9674 6.36165 27.015C6.31335 27.0626 6.27496 27.1193 6.24869 27.1818C6.22242 27.2444 6.20879 27.3115 6.2086 27.3793C6.20319 27.9746 6.40258 28.5537 6.77333 29.0195H6.72813C6.58921 29.0221 6.45685 29.0791 6.35965 29.1784C6.26244 29.2777 6.20819 29.4112 6.2086 29.5502C6.20908 29.9016 6.27907 30.2494 6.41453 30.5737C6.55 30.8979 6.74826 31.1922 6.99791 31.4395C7.24757 31.6868 7.54367 31.8823 7.86919 32.0147C8.1947 32.1471 8.54318 32.2138 8.89458 32.2109H22.1374C22.5512 32.2157 22.9603 32.1235 23.3319 31.9415C23.7035 31.7596 24.0272 31.493 24.2772 31.1633L24.401 31.1527C24.4097 31.1513 24.4184 31.1543 24.4269 31.1527C26.1683 30.785 27.7117 29.7853 28.7592 28.3464C29.8066 26.9075 30.2839 25.1315 30.0987 23.3614C29.9136 21.5913 29.0792 19.9526 27.7567 18.7616C26.4342 17.5706 24.7173 16.9118 22.9375 16.9124C22.8529 16.9124 22.7682 16.9144 22.6837 16.9174C22.7043 16.6933 22.7149 16.4686 22.7149 16.2448C22.7127 14.3362 21.9535 12.5063 20.6039 11.1567C19.2542 9.80705 17.4243 9.0479 15.5156 9.04578ZM24.8026 27.2487C24.7719 27.1396 24.7066 27.0434 24.6165 26.9746C24.5265 26.9058 24.4165 26.8681 24.3031 26.8672H24.2566C24.6252 26.4004 24.8247 25.8225 24.8227 25.2277C24.8225 25.1598 24.809 25.0926 24.7827 25.03C24.7565 24.9674 24.7181 24.9107 24.6698 24.863C24.6215 24.8153 24.5642 24.7777 24.5013 24.7522C24.4384 24.7268 24.371 24.7141 24.3031 24.7148H24.2564C24.6252 24.2479 24.8249 23.6697 24.8227 23.0746C24.8225 23.0068 24.8089 22.9397 24.7826 22.8771C24.7563 22.8146 24.7179 22.7579 24.6696 22.7103C24.6213 22.6627 24.5641 22.6251 24.5012 22.5997C24.4383 22.5744 24.371 22.5617 24.3031 22.5625H19.2816C19.9761 22.1065 20.591 21.5393 21.1015 20.8837C21.6354 20.4984 22.2792 20.2953 22.9375 20.3044C23.9424 20.3044 24.8172 20.6816 25.4678 21.3999C26.1037 22.1023 26.454 23.0631 26.454 24.1114C26.4519 24.7287 26.3006 25.3363 26.013 25.8826C25.7255 26.4288 25.3102 26.8975 24.8026 27.2487ZM10.8609 20.3856C9.89383 19.2237 9.36156 17.7614 9.35548 16.2498C9.355 14.616 10.0035 13.049 11.1585 11.8934C12.3134 10.7378 13.88 10.0883 15.5138 10.0878C17.1476 10.0874 18.7146 10.7359 19.8702 11.8908C21.0258 13.0457 21.6753 14.6124 21.6758 16.2462C21.6756 16.6312 21.6402 17.0154 21.57 17.394C21.3852 18.3837 20.9744 19.3174 20.3698 20.1225C20.1434 20.2933 19.9295 20.48 19.7298 20.6813C19.6439 20.7703 19.591 20.886 19.58 21.0092C18.7182 21.8059 17.6498 22.3441 16.4967 22.5625H14.5342C13.1232 22.2656 11.8198 21.5419 10.8609 20.3856ZM7.73001 24.2394C7.55233 24.0582 7.41614 23.8406 7.33087 23.6016H14.4496C14.8005 23.6016 15.1587 23.6862 15.5156 23.6862C15.8726 23.6862 16.231 23.6016 16.5816 23.6016H23.6997C23.5919 23.9294 23.3822 24.2142 23.1012 24.4144C22.8201 24.6147 22.4825 24.72 22.1374 24.7148H8.89458C8.67865 24.7167 8.4645 24.6756 8.26458 24.594C8.06466 24.5124 7.88295 24.3918 7.73001 24.2394ZM7.73001 26.3917C7.55235 26.2106 7.41621 25.9929 7.33101 25.7539H23.6996C23.5918 26.0817 23.3821 26.3665 23.1011 26.5668C22.8201 26.767 22.4825 26.8723 22.1374 26.8672H8.89458C8.67864 26.869 8.46449 26.8279 8.26458 26.7462C8.06467 26.6645 7.88299 26.5439 7.73009 26.3914L7.73001 26.3917ZM7.73001 28.5445C7.55229 28.3631 7.4161 28.1453 7.33087 27.9062H23.5904C23.5051 28.0546 23.4682 28.161 23.4965 28.3077C23.3445 28.5275 23.1414 28.7071 22.9047 28.8311C22.668 28.9551 22.4047 29.0198 22.1374 29.0195H8.89458C8.67868 29.0214 8.46455 28.9804 8.26463 28.8989C8.06471 28.8174 7.88298 28.6969 7.73001 28.5445V28.5445ZM22.1374 31.1719H8.89458C8.67868 31.1738 8.46455 31.1328 8.26463 31.0512C8.06471 30.9697 7.88298 30.8492 7.73001 30.6969C7.5458 30.5126 7.41087 30.3555 7.33087 30.0586H23.6996C23.6864 30.1142 23.6667 30.1681 23.6408 30.2191L23.639 30.225L23.6394 30.2307C23.6092 30.2929 23.5744 30.3527 23.5355 30.4099C23.3879 30.6466 23.1816 30.8412 22.9367 30.9747C22.6917 31.1083 22.4164 31.1762 22.1374 31.1719ZM29.0977 24.1122C29.0934 25.4218 28.6738 26.6963 27.8992 27.7524C27.1246 28.8084 26.035 29.5915 24.7872 29.989C24.8104 29.8439 24.8222 29.6972 24.8227 29.5502C24.8231 29.4112 24.7688 29.2777 24.6716 29.1784C24.5744 29.0791 24.4421 29.0221 24.3031 29.0195H24.2559C24.3684 28.8776 24.4665 28.7248 24.5487 28.5635C25.4203 28.1881 26.1632 27.5664 26.6863 26.7746C27.2094 25.9829 27.4898 25.0555 27.4931 24.1066C27.4931 21.3407 25.5346 19.2577 22.9375 19.2577C22.6324 19.2573 22.3282 19.2887 22.0296 19.3514C22.2342 18.9065 22.395 18.4426 22.5096 17.9665C22.6517 17.9567 22.7946 17.9517 22.9375 17.9517C24.5707 17.9536 26.1365 18.6033 27.2914 19.7582C28.4462 20.9131 29.0958 22.4789 29.0977 24.1122Z" fill="#632A08"/>
</svg>
