<svg width="38" height="38" viewBox="0 0 38 38" fill="none" xmlns="http://www.w3.org/2000/svg">
<g id="salad" clip-path="url(#clip0_4294_336)">
<path id="Vector" d="M8.65299 7.82959C7.59358 7.82959 6.55797 8.14379 5.67715 8.73245C4.79634 9.32111 4.1099 10.1578 3.70466 11.1366C3.29942 12.1155 3.19359 13.1925 3.40056 14.2315C3.60753 15.2705 4.118 16.2248 4.86739 16.9736C5.61679 17.7225 6.57144 18.2322 7.61059 18.4384C8.64974 18.6446 9.7267 18.538 10.7052 18.132C11.6838 17.7261 12.5199 17.039 13.108 16.1578C13.696 15.2765 14.0094 14.2407 14.0086 13.1813C14.0076 11.7615 13.4429 10.4003 12.4386 9.39682C11.4343 8.3933 10.0727 7.82959 8.65299 7.82959ZM8.65299 16.7715C7.94291 16.7715 7.24878 16.5609 6.65838 16.1664C6.06797 15.7719 5.6078 15.2112 5.33607 14.5552C5.06433 13.8991 4.99324 13.1773 5.13177 12.4808C5.27029 11.7844 5.61223 11.1447 6.11433 10.6426C6.61643 10.1405 7.25614 9.79856 7.95257 9.66003C8.64901 9.5215 9.37088 9.5926 10.0269 9.86434C10.6829 10.1361 11.2436 10.5962 11.6381 11.1866C12.0326 11.7771 12.2432 12.4712 12.2432 13.1813C12.2442 13.653 12.1521 14.1203 11.972 14.5564C11.792 14.9925 11.5276 15.3887 11.194 15.7222C10.8604 16.0558 10.4642 16.3202 10.0281 16.5003C9.59208 16.6804 9.12476 16.7725 8.65299 16.7715Z" fill="#D16829"/>
<path id="Vector_2" d="M8.65277 9.59509C8.8789 9.6102 9.10234 9.53891 9.27795 9.39564C9.45355 9.25236 9.56823 9.04778 9.59881 8.82321C9.61491 8.70151 9.60533 8.57777 9.57069 8.46C9.53604 8.34222 9.4771 8.233 9.39767 8.1394C9.31823 8.04579 9.22006 7.96987 9.10949 7.91652C8.99892 7.86317 8.87839 7.83359 8.75569 7.82967C7.40094 7.80264 6.087 8.29395 5.08235 9.20321C4.99003 9.27824 4.91382 9.37116 4.85831 9.47639C4.80281 9.58162 4.76914 9.69698 4.75935 9.81554C4.74955 9.9341 4.76382 10.0534 4.8013 10.1663C4.83878 10.2792 4.8987 10.3834 4.97746 10.4726C5.05621 10.5617 5.15218 10.6341 5.2596 10.6852C5.36701 10.7364 5.48366 10.7653 5.60252 10.7702C5.72139 10.7751 5.84003 10.756 5.9513 10.7139C6.06258 10.6718 6.1642 10.6076 6.25006 10.5253C6.90686 9.92633 7.76386 9.59454 8.65277 9.59509Z" fill="#EF8647"/>
<path id="Vector_3" d="M8.65283 18.9326C7.5153 18.9326 6.40331 18.5953 5.45749 17.9633C4.51167 17.3313 3.77449 16.4331 3.33917 15.3821C2.90386 14.3312 2.78996 13.1748 3.01188 12.0591C3.2338 10.9434 3.78158 9.91861 4.58593 9.11425C5.39029 8.3099 6.4151 7.76212 7.53077 7.5402C8.64645 7.31828 9.80287 7.43218 10.8538 7.86749C11.9048 8.30281 12.803 9.03999 13.435 9.98581C14.067 10.9316 14.4043 12.0436 14.4043 13.1811C14.4032 14.7062 13.7969 16.1685 12.7186 17.2469C11.6402 18.3253 10.1779 18.9316 8.65283 18.9326ZM8.65283 8.24511C7.67086 8.24512 6.711 8.53661 5.89486 9.08266C5.07872 9.62871 4.44304 10.4047 4.06835 11.3124C3.69366 12.2201 3.59684 13.2185 3.79015 14.1813C3.98345 15.144 4.45819 16.0277 5.15421 16.7204C5.85023 17.4131 6.7362 17.8836 7.69986 18.0723C8.66352 18.2609 9.66151 18.1593 10.5674 17.7803C11.4732 17.4013 12.2462 16.7619 12.7883 15.9431C13.3304 15.1243 13.6173 14.1631 13.6126 13.1811C13.6116 11.8664 13.0886 10.6059 12.1585 9.6766C11.2285 8.74732 9.96756 8.22531 8.65283 8.22532V8.24511ZM8.65283 17.187C7.86531 17.187 7.09544 16.9537 6.44037 16.5166C5.78531 16.0794 5.2744 15.4581 4.97214 14.7309C4.66987 14.0037 4.58979 13.2032 4.74199 12.4306C4.8942 11.6579 5.27187 10.9476 5.82735 10.3894C6.38283 9.83113 7.09122 9.44995 7.86313 9.29392C8.63503 9.13789 9.43586 9.21401 10.1646 9.51267C10.8932 9.81133 11.5171 10.3191 11.9575 10.972C12.3979 11.6249 12.635 12.3936 12.6389 13.1811C12.6389 14.2383 12.2189 15.2522 11.4714 15.9997C10.7239 16.7472 9.70999 17.1672 8.65283 17.1672V17.187ZM8.65283 10.0105C8.02087 10.0105 7.40311 10.198 6.87772 10.5491C6.35232 10.9003 5.94289 11.3995 5.70123 11.9834C5.45957 12.5673 5.39655 13.2098 5.52012 13.8295C5.6437 14.4493 5.94833 15.0185 6.39547 15.4651C6.8426 15.9116 7.41216 16.2156 8.03206 16.3384C8.65197 16.4612 9.29438 16.3974 9.878 16.155C10.4616 15.9126 10.9602 15.5025 11.3108 14.9767C11.6613 14.4509 11.848 13.8329 11.8472 13.2009C11.8493 12.7801 11.7682 12.363 11.6086 11.9736C11.449 11.5843 11.214 11.2302 10.9172 10.9319C10.6204 10.6336 10.2675 10.3969 9.87893 10.2354C9.49033 10.0739 9.07365 9.99073 8.65283 9.99073V10.0105Z" fill="#3D332D"/>
<path id="Vector_4" d="M21.9804 19.6532C22.1504 19.6522 22.3173 19.6082 22.4655 19.5252C22.6138 19.4423 22.7387 19.3231 22.8284 19.1788C22.9182 19.0345 22.9699 18.8698 22.9787 18.7001C22.9875 18.5304 22.9532 18.3613 22.879 18.2084C22.5085 17.4991 21.9407 16.9121 21.2442 16.5182C21.3123 16.0376 21.2508 15.5475 21.0662 15.0985C20.8816 14.6496 20.5805 14.2581 20.194 13.9643C19.8075 13.6706 19.3496 13.4854 18.8676 13.4278C18.3856 13.3702 17.8969 13.4422 17.4521 13.6366C17.2111 13.1743 16.8878 12.7598 16.4981 12.4134C16.6598 11.989 16.7217 11.5331 16.6792 11.081C16.6367 10.6288 16.4909 10.1924 16.2531 9.80557C16.0152 9.41868 15.6917 9.09162 15.3074 8.8496C14.9231 8.60758 14.4883 8.45709 14.0366 8.40972C13.585 8.36236 13.1284 8.41939 12.7023 8.57643C12.2762 8.73346 11.8918 8.9863 11.5789 9.31542C11.2659 9.64455 11.0328 10.0412 10.8974 10.4747C10.762 10.9082 10.7281 11.367 10.7981 11.8157C10.4109 11.6892 10.0013 11.6462 9.59625 11.6894C9.19118 11.7325 8.79985 11.861 8.448 12.0663C8.09615 12.2715 7.79175 12.549 7.55482 12.8804C7.31789 13.2117 7.1538 13.5895 7.07336 13.9888C5.9375 13.885 4.7983 14.1486 3.82356 14.7409C1.54357 16.1263 2.63607 19.669 5.29211 19.669L21.9804 19.6532Z" fill="#D65406"/>
<path id="Vector_5" d="M7.07336 13.973C5.93752 13.8693 4.7984 14.133 3.82357 14.725C1.54357 16.1105 2.63607 19.6532 5.29211 19.6532H6.9744C4.90419 19.6532 4.06502 16.9061 5.8344 15.8334C6.58893 15.3694 7.47405 15.1637 8.35585 15.2475C8.46505 14.6828 8.79026 14.1829 9.26231 13.8542C9.42914 13.7435 9.55828 13.5845 9.63253 13.3985C9.70678 13.2126 9.72262 13.0084 9.67794 12.8132C9.63969 12.6556 9.56269 12.51 9.45393 12.3898C9.34516 12.2695 9.20808 12.1783 9.05513 12.1244C8.90217 12.0705 8.73818 12.0557 8.57805 12.0813C8.41792 12.1069 8.26671 12.172 8.13815 12.2709C7.59012 12.6918 7.21211 13.296 7.07336 13.973Z" fill="#7D3206"/>
<path id="Vector_6" d="M22.8793 18.2083C22.5075 17.501 21.9399 16.9156 21.2445 16.522C21.3113 16.0417 21.2489 15.5523 21.0639 15.104C20.8789 14.6558 20.5779 14.2649 20.1918 13.9715C19.8057 13.678 19.3484 13.4927 18.867 13.4345C18.3856 13.3764 17.8973 13.4474 17.4524 13.6404C17.2114 13.1781 16.8881 12.7636 16.4985 12.4172C16.7007 11.8746 16.7403 11.2847 16.6124 10.7199C16.4845 10.1551 16.1945 9.6399 15.7782 9.23739C15.3618 8.83489 14.8371 8.56258 14.2682 8.45383C13.6994 8.34509 13.1113 8.40462 12.5758 8.62515C12.4135 8.7011 12.2705 8.81279 12.1575 8.95186C12.0445 9.09092 11.9644 9.25375 11.9233 9.42816C11.8822 9.60256 11.8811 9.784 11.92 9.9589C11.959 10.1338 12.037 10.2976 12.1483 10.4381C12.2729 10.6172 12.4445 10.7585 12.6442 10.8465C12.8439 10.9345 13.064 10.9657 13.2804 10.9368C13.6693 10.9017 14.0608 10.9656 14.4184 11.1228C14.7759 11.2799 15.0878 11.525 15.325 11.8353C15.5622 12.1456 15.7168 12.5109 15.7746 12.8972C15.8324 13.2834 15.7914 13.678 15.6553 14.0441C15.9566 14.3132 16.2062 14.6352 16.3916 14.9941C16.7367 14.8448 17.1152 14.7899 17.4884 14.8349C17.8617 14.88 18.2163 15.0234 18.5159 15.2505C18.8155 15.4776 19.0494 15.7803 19.1936 16.1275C19.3378 16.4747 19.3872 16.8541 19.3366 17.2266C19.8761 17.5341 20.3158 17.9903 20.6033 18.5408C20.6601 18.6601 20.6862 18.7917 20.6792 18.9237C20.6721 19.0557 20.6321 19.1838 20.5629 19.2963C20.4936 19.4089 20.3972 19.5023 20.2826 19.5681C20.168 19.6338 20.0387 19.6699 19.9066 19.6729H21.9689C22.1425 19.6756 22.3139 19.6334 22.4664 19.5502C22.6188 19.4671 22.7471 19.3458 22.8388 19.1984C22.9305 19.0509 22.9824 18.8822 22.9895 18.7087C22.9966 18.5351 22.9586 18.3628 22.8793 18.2083Z" fill="#FF9556"/>
<path id="Vector_7" d="M19.9185 19.6531C20.0507 19.6501 20.1799 19.6141 20.2946 19.5483C20.4092 19.4826 20.5055 19.3891 20.5748 19.2766C20.6441 19.164 20.684 19.0359 20.6911 18.904C20.6982 18.772 20.6721 18.6404 20.6152 18.5211C20.3277 17.9706 19.888 17.5144 19.3485 17.2069C19.4004 16.834 19.3519 16.4541 19.2081 16.1061C19.0643 15.7582 18.8304 15.4549 18.5303 15.2275C18.2303 15.0001 17.8751 14.8568 17.5013 14.8123C17.1275 14.7678 16.7485 14.8237 16.4035 14.9744C16.2181 14.6155 15.9686 14.2935 15.6673 14.0244C15.7927 13.6952 15.8407 13.3415 15.8077 12.9908C15.7747 12.64 15.6616 12.3015 15.4771 12.0014C15.2925 11.7013 15.0415 11.4476 14.7434 11.2599C14.4453 11.0722 14.108 10.9555 13.7576 10.9188C13.4072 10.8821 13.0531 10.9264 12.7225 11.0482C12.392 11.1701 12.0938 11.3662 11.8511 11.6216C11.6084 11.877 11.4276 12.1847 11.3226 12.521C11.2177 12.8573 11.1914 13.2132 11.2458 13.5613C10.9454 13.4635 10.6277 13.4303 10.3135 13.4639C9.99937 13.4976 9.69589 13.5973 9.423 13.7566C9.15012 13.9158 8.914 14.131 8.73015 14.3879C8.5463 14.6449 8.41888 14.9378 8.35625 15.2475C7.47458 15.1657 6.5901 15.3712 5.8348 15.8334C4.06542 16.9061 4.90459 19.6531 6.9748 19.6531H19.9185Z" fill="#9B3E06"/>
<path id="Vector_8" d="M21.9807 20.0489H5.29238C2.25634 20.0489 0.977793 15.9955 3.618 14.3884C4.56919 13.8068 5.67043 13.5177 6.78467 13.5572C7.01941 12.8169 7.50882 12.1837 8.16606 11.7699C8.82329 11.3562 9.60585 11.1886 10.3749 11.297C10.3757 10.8145 10.4803 10.3379 10.6817 9.89952C10.8832 9.46113 11.1766 9.07124 11.5421 8.75636C11.9076 8.44149 12.3367 8.209 12.8001 8.07471C13.2634 7.94042 13.7503 7.90747 14.2276 7.97811C14.7048 8.04875 15.1613 8.22132 15.5659 8.48409C15.9705 8.74685 16.3138 9.09365 16.5724 9.50092C16.831 9.90818 16.999 10.3664 17.0647 10.8443C17.1305 11.3222 17.0926 11.8087 16.9536 12.2707C17.2128 12.526 17.4401 12.8118 17.6305 13.1218C18.1121 12.975 18.622 12.9468 19.1168 13.0393C19.6117 13.1319 20.0769 13.3426 20.4729 13.6535C20.8689 13.9644 21.184 14.3663 21.3913 14.825C21.5987 15.2838 21.6923 15.7858 21.664 16.2884C22.3326 16.7115 22.8785 17.3025 23.2474 18.0024C23.3603 18.2176 23.4152 18.4585 23.4066 18.7013C23.398 18.9442 23.3262 19.1806 23.1983 19.3873C23.0704 19.5939 22.8908 19.7636 22.6773 19.8796C22.4638 19.9957 22.2237 20.054 21.9807 20.0489ZM4.02967 15.0653C2.09009 16.2528 3.02821 19.2572 5.29238 19.2572H21.9807C22.0852 19.2585 22.1882 19.2328 22.2798 19.1825C22.3714 19.1323 22.4485 19.0592 22.5035 18.9703C22.5584 18.8815 22.5895 18.7799 22.5936 18.6755C22.5977 18.5711 22.5748 18.4674 22.527 18.3745C22.1919 17.7338 21.6793 17.2034 21.0505 16.8466C20.9818 16.8078 20.9263 16.7494 20.8911 16.6789C20.8558 16.6084 20.8424 16.5289 20.8526 16.4507C20.9092 16.0403 20.8556 15.6221 20.6973 15.2392C20.5389 14.8563 20.2815 14.5224 19.9516 14.2718C19.6216 14.0212 19.2309 13.8629 18.8195 13.8131C18.4081 13.7633 17.9909 13.8239 17.6107 13.9887C17.5184 14.029 17.4142 14.0326 17.3193 13.9987C17.2245 13.9649 17.1461 13.8962 17.1001 13.8066C16.881 13.3852 16.5858 13.0081 16.2293 12.6943C16.1695 12.641 16.1273 12.5709 16.1082 12.4932C16.0891 12.4154 16.0941 12.3337 16.1224 12.2589C16.2621 11.8912 16.3155 11.4963 16.2785 11.1047C16.2415 10.7131 16.1151 10.3352 15.909 10.0002C15.7029 9.6652 15.4226 9.38199 15.0897 9.17241C14.7569 8.96283 14.3803 8.83249 13.9891 8.79143C13.5979 8.75037 13.2025 8.79968 12.8334 8.93557C12.4643 9.07147 12.1313 9.2903 11.8601 9.57522C11.5889 9.86014 11.3868 10.2035 11.2693 10.5789C11.1518 10.9543 11.1221 11.3516 11.1824 11.7403C11.1931 11.8075 11.1864 11.8762 11.1628 11.94C11.1392 12.0038 11.0996 12.0605 11.0478 12.1045C10.7668 12.342 10.6163 12.053 9.89592 12.053C9.32095 12.0542 8.76399 12.2537 8.31905 12.6179C7.87411 12.9821 7.56844 13.4886 7.45363 14.052C7.4345 14.1477 7.38067 14.233 7.3025 14.2914C7.22432 14.3499 7.12731 14.3774 7.03009 14.3687C5.98106 14.2723 4.92893 14.5166 4.02967 15.0653Z" fill="#3D332D"/>
<path id="Vector_9" d="M21.1056 12.7854C20.0464 12.7854 19.0109 13.0995 18.1302 13.688C17.2495 14.2765 16.563 15.1129 16.1577 16.0915C15.7523 17.0701 15.6463 18.147 15.8529 19.1859C16.0596 20.2247 16.5696 21.179 17.3186 21.928C18.0676 22.677 19.0219 23.1871 20.0608 23.3937C21.0997 23.6004 22.1765 23.4943 23.1551 23.089C24.1337 22.6836 24.9702 21.9972 25.5587 21.1165C26.1472 20.2357 26.4613 19.2003 26.4613 18.141C26.4602 16.7209 25.8956 15.3593 24.8915 14.3552C23.8873 13.351 22.5257 12.7864 21.1056 12.7854ZM21.1056 21.7273C20.3954 21.7273 19.7011 21.5166 19.1106 21.1219C18.5201 20.7273 18.0599 20.1663 17.7883 19.5101C17.5167 18.8538 17.4458 18.1317 17.5847 17.4352C17.7235 16.7387 18.0659 16.0989 18.5684 15.597C19.0709 15.0951 19.7109 14.7534 20.4076 14.6154C21.1043 14.4773 21.8263 14.5489 22.4823 14.8213C23.1382 15.0936 23.6987 15.5544 24.0927 16.1453C24.4867 16.7363 24.6966 17.4308 24.6958 18.141C24.699 18.6132 24.6083 19.0813 24.4289 19.5181C24.2496 19.9549 23.9852 20.3516 23.6511 20.6853C23.317 21.019 22.92 21.283 22.483 21.4619C22.046 21.6407 21.5778 21.731 21.1056 21.7273Z" fill="#F8A06C"/>
<path id="Vector_10" d="M21.7153 14.6023C21.9302 14.6433 22.1526 14.6038 22.3402 14.4914C22.5278 14.379 22.6675 14.2015 22.7326 13.9927C22.7689 13.8765 22.7805 13.754 22.7667 13.633C22.7529 13.5121 22.7141 13.3954 22.6526 13.2903C22.5911 13.1852 22.5084 13.0942 22.4097 13.0229C22.311 12.9516 22.1986 12.9017 22.0795 12.8764C20.9375 12.6636 19.7572 12.8304 18.7189 13.3514C18.5911 13.4142 18.4804 13.507 18.3963 13.6219C18.3121 13.7367 18.257 13.8702 18.2356 14.011C18.2142 14.1518 18.2272 14.2956 18.2734 14.4303C18.3197 14.5649 18.3978 14.6864 18.5012 14.7843C18.6291 14.9091 18.7925 14.9913 18.9689 15.0196C19.1453 15.048 19.3262 15.0211 19.4868 14.9427C20.1732 14.591 20.9552 14.4715 21.7153 14.6023Z" fill="#F8BF9D"/>
<path id="Vector_11" d="M21.1059 23.8887C19.9682 23.8887 18.8561 23.5512 17.9102 22.9191C16.9643 22.2869 16.2271 21.3884 15.7919 20.3373C15.3567 19.2861 15.2431 18.1295 15.4653 17.0137C15.6875 15.8979 16.2357 14.8731 17.0405 14.0689C17.8452 13.2647 18.8704 12.7172 19.9863 12.4958C21.1023 12.2743 22.2588 12.3888 23.3097 12.8247C24.3606 13.2606 25.2585 13.9984 25.89 14.9447C26.5215 15.8911 26.8582 17.0035 26.8574 18.1412C26.8564 19.6659 26.2499 21.1277 25.1714 22.2055C24.0929 23.2832 22.6306 23.8887 21.1059 23.8887ZM21.1059 13.1814C20.125 13.1814 19.1661 13.4723 18.3504 14.0172C17.5348 14.5622 16.8991 15.3368 16.5237 16.2431C16.1483 17.1494 16.0501 18.1467 16.2415 19.1088C16.4328 20.0709 16.9052 20.9546 17.5988 21.6483C18.2925 22.3419 19.1762 22.8143 20.1383 23.0056C21.1004 23.197 22.0977 23.0988 23.004 22.7234C23.9103 22.348 24.6849 21.7123 25.2299 20.8967C25.7749 20.081 26.0657 19.1221 26.0657 18.1412C26.0657 17.4898 25.9374 16.8449 25.6882 16.2431C25.4389 15.6414 25.0736 15.0946 24.613 14.6341C24.1525 14.1735 23.6057 13.8082 23.004 13.5589C22.4022 13.3097 21.7573 13.1814 21.1059 13.1814ZM21.1059 22.1232C20.3174 22.1232 19.5466 21.8894 18.891 21.4512C18.2354 21.013 17.7245 20.3903 17.423 19.6617C17.1214 18.9331 17.0427 18.1314 17.1968 17.3581C17.3509 16.5848 17.7309 15.8745 18.2888 15.3172C18.8466 14.7599 19.5573 14.3806 20.3307 14.2273C21.1042 14.0739 21.9058 14.1534 22.6341 14.4557C23.3624 14.758 23.9846 15.2695 24.4221 15.9256C24.8597 16.5816 25.0928 17.3526 25.092 18.1412C25.0909 19.1976 24.6705 20.2105 23.9231 20.9572C23.1757 21.7038 22.1624 22.1232 21.1059 22.1232ZM21.1059 14.9468C20.4742 14.9468 19.8566 15.1341 19.3312 15.4851C18.8059 15.8361 18.3965 16.335 18.1547 16.9187C17.913 17.5024 17.8497 18.1447 17.973 18.7644C18.0962 19.384 18.4004 19.9532 18.8472 20.3999C19.2939 20.8467 19.8631 21.1509 20.4828 21.2742C21.1024 21.3974 21.7447 21.3342 22.3284 21.0924C22.9121 20.8506 23.411 20.4412 23.762 19.9159C24.113 19.3905 24.3003 18.7729 24.3003 18.1412C24.3003 17.294 23.9638 16.4815 23.3647 15.8824C22.7657 15.2833 21.9531 14.9468 21.1059 14.9468Z" fill="#3D332D"/>
<path id="Vector_12" d="M36.2027 16.6804L35.3714 16.2608C35.1973 16.1714 35.0545 16.0311 34.9618 15.8586C34.8692 15.6861 34.8312 15.4896 34.8529 15.295L35.1458 12.6667C35.178 12.3673 35.1186 12.0652 34.9755 11.8003C34.8324 11.5353 34.6123 11.3201 34.3443 11.1828C34.0763 11.0456 33.7729 10.9929 33.4743 11.0317C33.1757 11.0705 32.8959 11.1989 32.6718 11.4L30.6927 13.1931C30.5485 13.3241 30.3681 13.4081 30.1751 13.4343C29.9822 13.4605 29.7858 13.4274 29.612 13.3396L28.757 12.9042C28.5636 12.8038 28.3455 12.7609 28.1285 12.7803C27.9114 12.7997 27.7044 12.8807 27.5318 13.0138C27.3593 13.1468 27.2283 13.3264 27.1543 13.5314C27.0804 13.7364 27.0665 13.9582 27.1143 14.1708L28.0129 18.2083C28.1152 18.6634 28.3167 19.0903 28.6032 19.4585C28.8896 19.8266 29.2539 20.127 29.6699 20.338C30.0859 20.549 30.5434 20.6655 31.0096 20.6792C31.4759 20.6929 31.9394 20.6034 32.367 20.4171L36.1433 18.7665C36.3469 18.6819 36.5217 18.5402 36.6467 18.3586C36.7717 18.1769 36.8415 17.963 36.8478 17.7427C36.854 17.5223 36.7965 17.3048 36.682 17.1163C36.5676 16.9278 36.4011 16.7765 36.2027 16.6804Z" fill="#D65406"/>
<path id="Vector_13" d="M30.7761 19.7361C30.4163 19.7358 30.0673 19.6128 29.7867 19.3876C29.5061 19.1624 29.3106 18.8484 29.2323 18.4972L28.5356 15.378C28.9967 15.6202 29.521 15.7152 30.0377 15.6501C30.5544 15.585 31.0387 15.3629 31.4252 15.0139L32.5256 14.0203C32.5785 13.971 32.6453 13.9392 32.7169 13.9292C32.7885 13.9192 32.8615 13.9314 32.9259 13.9642C32.9903 13.9971 33.043 14.049 33.0769 14.1128C33.1108 14.1767 33.1243 14.2494 33.1154 14.3211L32.9452 15.853C32.8888 16.3584 32.9926 16.8687 33.2419 17.3119C33.4912 17.7551 33.8734 18.1088 34.3346 18.323C31.1996 19.6926 31.2115 19.7361 30.7721 19.7361H30.7761Z" fill="#9B3E06"/>
<path id="Vector_14" d="M36.2027 16.6804L35.3714 16.2608C35.1973 16.1714 35.0544 16.0311 34.9618 15.8586C34.8692 15.6861 34.8312 15.4896 34.8529 15.295L35.1458 12.6667C35.178 12.3673 35.1186 12.0652 34.9755 11.8003C34.8324 11.5354 34.6123 11.3201 34.3443 11.1828C34.0762 11.0456 33.7729 10.9929 33.4743 11.0317C33.1757 11.0705 32.8959 11.1989 32.6718 11.4C31.3775 12.5875 30.8747 13.0586 30.5779 13.2683C30.4822 13.3463 30.4029 13.4424 30.3443 13.551C30.2858 13.6596 30.2493 13.7787 30.2368 13.9015C30.2243 14.0243 30.2361 14.1483 30.2715 14.2665C30.3069 14.3847 30.3653 14.4948 30.4433 14.5904C30.5213 14.6861 30.6173 14.7654 30.7259 14.824C30.8346 14.8825 30.9537 14.919 31.0765 14.9315C31.1992 14.944 31.3232 14.9322 31.4415 14.8968C31.5597 14.8614 31.6697 14.803 31.7654 14.725L32.557 14.0244C32.6099 13.9751 32.6767 13.9433 32.7483 13.9333C32.8199 13.9232 32.8928 13.9355 32.9573 13.9683C33.0217 14.0012 33.0744 14.053 33.1083 14.1169C33.1422 14.1807 33.1557 14.2535 33.1468 14.3252L32.9766 15.8571C32.9207 16.3614 33.0243 16.8705 33.2728 17.3129C33.5213 17.7552 33.9023 18.1085 34.362 18.3231L33.3883 18.7467C33.3197 18.7742 33.2572 18.815 33.2043 18.8667C33.1515 18.9184 33.1093 18.9801 33.0803 19.0481C33.0512 19.1161 33.0359 19.1891 33.0351 19.2631C33.0343 19.337 33.048 19.4104 33.0756 19.479C33.1031 19.5476 33.1439 19.6101 33.1956 19.663C33.2473 19.7158 33.309 19.758 33.377 19.787C33.445 19.816 33.518 19.8314 33.5919 19.8322C33.6659 19.833 33.7393 19.8192 33.8079 19.7917L36.1433 18.7704C36.348 18.6864 36.5239 18.5447 36.6498 18.3626C36.7756 18.1806 36.8459 17.9659 36.8522 17.7447C36.8585 17.5235 36.8005 17.3052 36.6852 17.1163C36.5699 16.9274 36.4023 16.776 36.2027 16.6804Z" fill="#FF9556"/>
<path id="Vector_15" d="M27.6253 18.2795L26.7267 14.2499C26.6637 13.9646 26.683 13.6671 26.7824 13.3923C26.8818 13.1175 27.0571 12.8765 27.2881 12.6974C27.519 12.5182 27.7961 12.4084 28.087 12.3805C28.3779 12.3526 28.6708 12.4079 28.9315 12.5399L29.7905 12.9754C29.8925 13.0263 30.0076 13.0453 30.1206 13.0298C30.2336 13.0142 30.3393 12.9649 30.4238 12.8883L32.403 11.0951C32.686 10.8387 33.0404 10.6745 33.419 10.6244C33.7976 10.5743 34.1825 10.6407 34.5224 10.8148C34.8624 10.9888 35.1413 11.2623 35.322 11.5988C35.5027 11.9352 35.5766 12.3187 35.534 12.6983L35.2292 15.3385C35.2175 15.453 35.2407 15.5683 35.2959 15.6694C35.351 15.7704 35.4354 15.8524 35.538 15.9045L36.3653 16.3281C36.622 16.4615 36.8359 16.6646 36.9825 16.914C37.1292 17.1634 37.2025 17.4491 37.1943 17.7383C37.186 18.0275 37.0964 18.3085 36.9358 18.5492C36.7752 18.7898 36.55 18.9803 36.2861 19.0989L32.5098 20.7495C32.0304 20.9567 31.5113 21.0559 30.9893 21.0402C30.4673 21.0244 29.9552 20.8941 29.4891 20.6584C29.0231 20.4228 28.6145 20.0875 28.2924 19.6764C27.9703 19.2653 27.7426 18.7884 27.6253 18.2795ZM28.2309 13.1693C28.1186 13.1695 28.0078 13.1949 27.9067 13.2437C27.8056 13.2925 27.7167 13.3635 27.6468 13.4513C27.5768 13.5391 27.5275 13.6416 27.5026 13.7511C27.4776 13.8605 27.4776 13.9742 27.5025 14.0837L28.3971 18.1054C28.4862 18.5041 28.6624 18.8782 28.913 19.2009C29.1636 19.5235 29.4825 19.7868 29.8468 19.9718C30.2111 20.1567 30.6117 20.2589 31.0201 20.2708C31.4285 20.2828 31.8345 20.2043 32.209 20.041L35.9853 18.3904C36.1198 18.3354 36.2354 18.2425 36.318 18.123C36.4005 18.0034 36.4465 17.8624 36.4503 17.7172C36.4541 17.572 36.4155 17.4287 36.3392 17.3051C36.263 17.1814 36.1524 17.0826 36.0209 17.0208L35.1936 16.6249C34.9482 16.4983 34.7467 16.3006 34.6154 16.0577C34.484 15.8148 34.429 15.5379 34.4573 15.2633L34.7503 12.631C34.7755 12.411 34.7331 12.1886 34.6286 11.9934C34.5242 11.7982 34.3627 11.6395 34.1657 11.5384C33.9688 11.4374 33.7457 11.3988 33.5262 11.4278C33.3067 11.4568 33.1013 11.552 32.9373 11.7008L30.9582 13.4979C30.7538 13.6806 30.4991 13.7976 30.2273 13.8336C29.9555 13.8696 29.6791 13.823 29.4342 13.6997C28.5396 13.2366 28.4644 13.1693 28.2309 13.1693Z" fill="#3D332D"/>
<path id="Vector_16" d="M28.5318 22.9584C28.4644 22.9582 28.3981 22.9408 28.3392 22.9077C28.2804 22.8747 28.231 22.8272 28.1957 22.7696C28.1604 22.7121 28.1404 22.6466 28.1376 22.5792C28.1347 22.5117 28.1492 22.4447 28.1796 22.3845L31.6391 15.5642C31.6869 15.4703 31.77 15.3991 31.8703 15.3665C31.9705 15.3338 32.0796 15.3423 32.1735 15.3901C32.2675 15.4378 32.3386 15.521 32.3713 15.6212C32.4039 15.7214 32.3954 15.8305 32.3477 15.9245L28.896 22.7447C28.8617 22.811 28.8093 22.8663 28.7448 22.9042C28.6804 22.942 28.6065 22.9608 28.5318 22.9584Z" fill="#3D332D"/>
<path id="Vector_17" d="M30.3368 19.3958C30.25 19.4 30.1642 19.3756 30.0927 19.3262C30.0211 19.2769 29.9678 19.2053 29.941 19.1227L29.1493 16.6566C29.1168 16.5564 29.1254 16.4473 29.1733 16.3534C29.2211 16.2595 29.3044 16.1884 29.4046 16.1559C29.5049 16.1233 29.614 16.132 29.7079 16.1798C29.8018 16.2277 29.8728 16.3109 29.9053 16.4112L30.5862 18.5012L32.6801 17.8125C32.7301 17.7941 32.7832 17.7859 32.8364 17.7885C32.8896 17.7912 32.9416 17.8045 32.9895 17.8277C33.0374 17.8509 33.0802 17.8835 33.1152 17.9236C33.1502 17.9638 33.1767 18.0105 33.1932 18.0611C33.2097 18.1117 33.2159 18.1651 33.2113 18.2182C33.2067 18.2712 33.1914 18.3227 33.1664 18.3697C33.1414 18.4167 33.1072 18.4582 33.0658 18.4917C33.0244 18.5252 32.9767 18.5499 32.9256 18.5645C30.2299 19.4591 30.4278 19.3958 30.3368 19.3958Z" fill="#3D332D"/>
<path id="Vector_18" d="M17.6105 16.2648H16.6803C16.4849 16.2688 16.293 16.2129 16.1302 16.1047C15.9675 15.9964 15.8418 15.841 15.7699 15.6592L14.7882 13.1971C14.6758 12.9189 14.4817 12.6812 14.2314 12.5155C13.9812 12.3498 13.6866 12.2639 13.3865 12.269C13.0864 12.2742 12.795 12.3701 12.5505 12.5443C12.3061 12.7185 12.1202 12.9627 12.0174 13.2446L11.111 15.7582C11.0454 15.9411 10.926 16.1 10.7684 16.2137C10.6109 16.3275 10.4225 16.3908 10.2282 16.3955L9.26637 16.4153C9.04875 16.4187 8.83662 16.4842 8.65491 16.604C8.47319 16.7238 8.32942 16.893 8.24049 17.0916C8.15155 17.2903 8.12113 17.5102 8.1528 17.7255C8.18447 17.9409 8.27692 18.1427 8.41929 18.3073L11.0832 21.4542C11.3861 21.8109 11.7643 22.0959 12.1905 22.289C12.6167 22.482 13.0804 22.5782 13.5482 22.5707C14.016 22.5631 14.4764 22.4519 14.8961 22.2452C15.3159 22.0385 15.6846 21.7413 15.9758 21.375L18.5328 18.1411C18.6746 17.9712 18.7641 17.7639 18.7905 17.5442C18.8169 17.3245 18.7789 17.1019 18.6813 16.9033C18.5837 16.7047 18.4306 16.5387 18.2405 16.4254C18.0505 16.3121 17.8316 16.2563 17.6105 16.2648Z" fill="#9B3E06"/>
<path id="Vector_19" d="M12.2944 20.4211L10.2163 17.9986C10.7369 17.9932 11.2434 17.8287 11.6679 17.5274C12.0924 17.226 12.4146 16.802 12.5913 16.3123L12.8011 15.7344C12.8481 15.6051 12.9332 15.493 13.0451 15.413C13.1571 15.333 13.2907 15.2888 13.4283 15.2863C13.5658 15.2837 13.701 15.3229 13.8158 15.3986C13.9307 15.4744 14.0199 15.5832 14.0717 15.7107L14.3053 16.2886C14.491 16.7593 14.8152 17.1627 15.235 17.4454C15.6548 17.7281 16.1504 17.8768 16.6565 17.8719C16.7357 17.8719 16.9415 17.579 14.7288 20.3775C14.5834 20.5588 14.3999 20.7059 14.1914 20.8083C13.9828 20.9108 13.7542 20.966 13.5218 20.9702C13.2895 20.9743 13.0591 20.9273 12.8469 20.8324C12.6348 20.7375 12.4462 20.5971 12.2944 20.4211Z" fill="#7D3206"/>
<path id="Vector_20" d="M12.8051 15.7344C12.8521 15.6051 12.9372 15.493 13.0492 15.413C13.1611 15.333 13.2947 15.2888 13.4323 15.2862C13.5699 15.2837 13.705 15.3229 13.8199 15.3986C13.9347 15.4744 14.0239 15.5832 14.0757 15.7107L14.3291 16.3361C14.3693 16.4353 14.4292 16.5253 14.5052 16.6007C14.5811 16.6761 14.6716 16.7353 14.7711 16.7748C14.8706 16.8142 14.9771 16.8331 15.0841 16.8302C15.1911 16.8273 15.2964 16.8027 15.3937 16.758C15.4909 16.7133 15.5781 16.6493 15.6499 16.5699C15.7217 16.4905 15.7767 16.3974 15.8115 16.2961C15.8463 16.1949 15.8602 16.0877 15.8524 15.9809C15.8445 15.8742 15.8151 15.7701 15.766 15.675C15.6037 15.3346 15.3701 14.6894 14.7882 13.2169C14.6758 12.9386 14.4817 12.701 14.2314 12.5353C13.9812 12.3696 13.6866 12.2836 13.3865 12.2888C13.0864 12.2939 12.795 12.3899 12.5505 12.5641C12.3061 12.7383 12.1202 12.9824 12.0174 13.2644C11.4949 14.7092 11.2772 15.3504 11.1545 15.675C11.0988 15.8109 11.088 15.9609 11.1236 16.1033C11.1592 16.2457 11.2394 16.373 11.3524 16.4667L11.5068 16.5973C11.5896 16.6697 11.6885 16.7213 11.7952 16.7476C11.902 16.774 12.0135 16.7744 12.1205 16.7488C12.2275 16.7233 12.3268 16.6724 12.4101 16.6006C12.4933 16.5288 12.5582 16.4381 12.5993 16.3361C12.5993 16.3361 12.5716 16.3836 12.8051 15.7344Z" fill="#D65406"/>
<path id="Vector_21" d="M10.7943 21.7115L8.11057 18.6042C7.91943 18.3825 7.79541 18.111 7.75304 17.8215C7.71067 17.5319 7.7517 17.2362 7.87134 16.9691C7.99097 16.702 8.18425 16.4745 8.42852 16.3134C8.67279 16.1522 8.95794 16.0639 9.25057 16.059L10.2124 16.0392C10.3269 16.0368 10.4379 15.9994 10.5305 15.9322C10.6232 15.865 10.6931 15.7712 10.731 15.6631L11.6374 13.1496C11.7639 12.7896 11.9968 12.4766 12.3054 12.2521C12.6139 12.0276 12.9834 11.9024 13.3649 11.8929C13.7463 11.8835 14.1216 11.9903 14.4409 12.1992C14.7602 12.4081 15.0084 12.7092 15.1524 13.0625L16.1341 15.5246C16.1764 15.6321 16.2507 15.724 16.347 15.7877C16.4434 15.8514 16.557 15.884 16.6724 15.8808H17.6027C17.893 15.8763 18.1788 15.9539 18.4269 16.1048C18.675 16.2557 18.8754 16.4737 19.005 16.7336C19.1345 16.9935 19.1879 17.2847 19.159 17.5737C19.1301 17.8627 19.0201 18.1376 18.8416 18.3667L16.2885 21.6006C15.9625 22.0123 15.5495 22.3468 15.0791 22.5802C14.6087 22.8136 14.0925 22.9401 13.5675 22.9507C13.0425 22.9613 12.5216 22.8557 12.0422 22.6415C11.5628 22.4272 11.1367 22.1096 10.7943 21.7115ZM12.3777 13.399L11.4791 15.9125C11.3864 16.1707 11.2176 16.3948 10.9951 16.5552C10.7725 16.7156 10.5065 16.8048 10.2322 16.8111L9.27036 16.8308C9.12705 16.8313 8.9869 16.873 8.86657 16.9508C8.74623 17.0286 8.65079 17.1394 8.59158 17.2699C8.53237 17.4004 8.5119 17.5452 8.53258 17.687C8.55327 17.8288 8.61425 17.9616 8.70828 18.0698L11.392 21.1929C11.6581 21.5024 11.9892 21.7493 12.3618 21.916C12.7343 22.0826 13.1391 22.1649 13.5471 22.157C13.9552 22.149 14.3564 22.051 14.7222 21.87C15.088 21.689 15.4093 21.4294 15.6631 21.1098L18.2083 17.8758C18.2972 17.7646 18.3526 17.6304 18.3678 17.4888C18.3831 17.3472 18.3577 17.2042 18.2945 17.0766C18.2313 16.949 18.133 16.8421 18.0112 16.7684C17.8893 16.6947 17.749 16.6573 17.6066 16.6606H16.6764C16.4053 16.6672 16.1386 16.5917 15.9112 16.4441C15.6837 16.2965 15.5062 16.0836 15.4018 15.8333L14.4202 13.3713C14.3384 13.1663 14.1964 12.9909 14.013 12.8682C13.8296 12.7455 13.6134 12.6812 13.3927 12.6838C13.1721 12.6863 12.9574 12.7557 12.7769 12.8826C12.5964 13.0096 12.4586 13.1882 12.3816 13.395L12.3777 13.399Z" fill="#3D332D"/>
<path id="Vector_22" d="M13.6087 25.4599C13.5038 25.4599 13.4031 25.4182 13.3289 25.344C13.2546 25.2697 13.2129 25.1691 13.2129 25.0641L13.0625 17.4166C13.0625 17.3116 13.1042 17.2109 13.1784 17.1367C13.2527 17.0625 13.3534 17.0208 13.4583 17.0208C13.5633 17.0208 13.664 17.0625 13.7382 17.1367C13.8125 17.2109 13.8542 17.3116 13.8542 17.4166L14.0085 25.0641C14.0085 25.1164 13.9982 25.1682 13.978 25.2165C13.9579 25.2648 13.9284 25.3086 13.8912 25.3454C13.854 25.3822 13.8099 25.4113 13.7614 25.4309C13.713 25.4506 13.6611 25.4604 13.6087 25.4599Z" fill="#3D332D"/>
<path id="Vector_23" d="M13.2565 21.3751L11.3842 19.578C11.3471 19.5412 11.3176 19.4974 11.2975 19.4492C11.2774 19.401 11.2671 19.3492 11.2671 19.297C11.2671 19.2447 11.2774 19.193 11.2975 19.1447C11.3176 19.0965 11.3471 19.0527 11.3842 19.0159C11.4583 18.9422 11.5587 18.9008 11.6632 18.9008C11.7678 18.9008 11.8681 18.9422 11.9423 19.0159L13.5256 20.5359L15.0496 18.9526C15.1239 18.8858 15.2207 18.8495 15.3206 18.8511C15.4204 18.8527 15.516 18.892 15.5882 18.9611C15.6603 19.0302 15.7036 19.1241 15.7094 19.2238C15.7153 19.3235 15.6832 19.4218 15.6196 19.4988L13.8146 21.3513C13.7436 21.4283 13.645 21.474 13.5404 21.4785C13.4358 21.4829 13.3337 21.4457 13.2565 21.3751Z" fill="#3D332D"/>
<path id="Vector_24" d="M26.7108 12.8171C27.8803 13.9866 28.5373 15.5728 28.5373 17.2267C28.5373 18.8806 27.8803 20.4668 26.7108 21.6363C25.5413 22.8058 23.9551 23.4628 22.3012 23.4628C20.6473 23.4628 19.0611 22.8058 17.8916 21.6363L26.7108 12.8171Z" fill="#BD6029"/>
<path id="Vector_25" d="M25.6025 13.9255C26.036 14.3591 26.3799 14.8737 26.6145 15.4402C26.8492 16.0066 26.9699 16.6137 26.9699 17.2268C26.9699 17.8399 26.8492 18.447 26.6145 19.0134C26.3799 19.5798 26.036 20.0945 25.6025 20.528C25.169 20.9616 24.6543 21.3055 24.0879 21.5401C23.5214 21.7747 22.9143 21.8955 22.3012 21.8955C21.063 21.8955 19.8755 21.4036 19 20.528L25.6025 13.9255Z" fill="#EF8647"/>
<path id="Vector_26" d="M25.1671 18.343C25.3556 17.86 25.4209 17.3376 25.3571 16.823C25.3537 16.7892 25.3408 16.7571 25.3199 16.7304C25.2989 16.7038 25.2708 16.6836 25.2388 16.6724C25.2067 16.6612 25.1722 16.6593 25.1391 16.6671C25.1061 16.6748 25.076 16.6918 25.0523 16.7161L23.7817 17.9867C23.7362 18.0321 23.7053 18.09 23.6928 18.153C23.6802 18.2159 23.6867 18.2812 23.7112 18.3406C23.7358 18.3999 23.7774 18.4506 23.8308 18.4863C23.8842 18.5219 23.947 18.5409 24.0112 18.5409H24.8623C24.9271 18.5426 24.991 18.5246 25.0454 18.4893C25.0998 18.454 25.1423 18.4029 25.1671 18.343Z" fill="#FAFAFA"/>
<path id="Vector_27" d="M17.6146 21.9172C17.5775 21.8804 17.5481 21.8367 17.528 21.7884C17.5079 21.7402 17.4976 21.6884 17.4976 21.6362C17.4976 21.5839 17.5079 21.5322 17.528 21.484C17.5481 21.4357 17.5775 21.392 17.6146 21.3552L26.4299 12.5399C26.4667 12.5028 26.5104 12.4734 26.5587 12.4533C26.6069 12.4332 26.6586 12.4229 26.7109 12.4229C26.7632 12.4229 26.8149 12.4332 26.8631 12.4533C26.9114 12.4734 26.9551 12.5028 26.9919 12.5399C28.2355 13.7834 28.934 15.47 28.934 17.2286C28.934 18.9872 28.2355 20.6737 26.9919 21.9172C25.7484 23.1607 24.0619 23.8593 22.3033 23.8593C20.5447 23.8593 18.8582 23.1607 17.6146 21.9172ZM18.4617 21.6283C19.3082 22.3606 20.3469 22.8347 21.4546 22.9944C22.5624 23.1541 23.6927 22.9927 24.7116 22.5293C25.7304 22.066 26.5949 21.3201 27.2025 20.3802C27.8102 19.4403 28.1355 18.3458 28.1399 17.2266C28.1458 15.8142 27.6347 14.4485 26.703 13.387L18.4617 21.6283Z" fill="#3D332D"/>
<path id="Vector_28" d="M18.7191 20.809C18.6454 20.7348 18.604 20.6345 18.604 20.5299C18.604 20.4253 18.6454 20.325 18.7191 20.2508L25.3335 13.6483C25.3703 13.6112 25.4141 13.5818 25.4623 13.5617C25.5105 13.5416 25.5623 13.5312 25.6145 13.5312C25.6668 13.5312 25.7185 13.5416 25.7668 13.5617C25.815 13.5818 25.8588 13.6112 25.8956 13.6483C26.8021 14.6071 27.2989 15.8816 27.2803 17.201C27.2617 18.5203 26.7291 19.7804 25.7958 20.7131C24.8626 21.6459 23.6022 22.1778 22.2829 22.1957C20.9635 22.2136 19.6892 21.7161 18.731 20.809H18.7191ZM19.5702 20.516C20.3899 21.194 21.433 21.5419 22.4956 21.4919C23.5582 21.4419 24.564 20.9975 25.3165 20.2455C26.0689 19.4935 26.514 18.4881 26.5647 17.4255C26.6154 16.3629 26.2682 15.3196 25.5908 14.4994L19.5702 20.516Z" fill="#3D332D"/>
<path id="Vector_29" d="M4.0454 12.4884L3.40019 13.2326C3.36753 13.2695 3.32611 13.2975 3.27975 13.3141C3.2334 13.3307 3.18361 13.3353 3.13498 13.3276L2.23248 13.1811C2.06406 13.1539 1.89146 13.1701 1.73106 13.2282C1.57066 13.2864 1.42777 13.3845 1.31595 13.5134C1.20414 13.6423 1.1271 13.7976 1.09214 13.9646C1.05719 14.1316 1.06548 14.3047 1.11623 14.4676L1.3854 15.3384C1.40052 15.3858 1.403 15.4363 1.39259 15.4849C1.38217 15.5335 1.35922 15.5785 1.32602 15.6155L0.680813 16.3597C0.532324 16.5304 0.437774 16.7412 0.409118 16.9656C0.380462 17.19 0.418985 17.4179 0.519819 17.6204C0.620652 17.8229 0.779267 17.991 0.97561 18.1034C1.17195 18.2158 1.39721 18.2674 1.6229 18.2518L2.96477 18.1607C3.86901 18.0938 4.70991 17.6714 5.30341 16.9859C5.8969 16.3004 6.19463 15.4077 6.13144 14.5032L6.03644 13.1574C6.0178 12.9348 5.93443 12.7226 5.7966 12.5469C5.65877 12.3711 5.47251 12.2396 5.2608 12.1685C5.0491 12.0973 4.8212 12.0897 4.60522 12.1466C4.38924 12.2034 4.19463 12.3223 4.0454 12.4884Z" fill="#9B3E06"/>
<path id="Vector_30" d="M1.53567 18.6516C1.24158 18.6479 0.954681 18.5601 0.708929 18.3985C0.463177 18.2369 0.268849 18.0083 0.148931 17.7397C0.0290126 17.4711 -0.0114777 17.1738 0.0322492 16.883C0.0759761 16.5921 0.202091 16.3199 0.395675 16.0984L0.989425 15.3978L0.736092 14.6062C0.665615 14.3783 0.654485 14.1361 0.703757 13.9027C0.753029 13.6693 0.861071 13.4524 1.01765 13.2724C1.17423 13.0924 1.37416 12.9554 1.5985 12.8743C1.82285 12.7933 2.06418 12.7708 2.29963 12.8091L3.1388 12.9476L3.74838 12.247C3.94806 12.0167 4.2116 11.8508 4.50563 11.7704C4.79966 11.69 5.11094 11.6986 5.40004 11.7953C5.68914 11.8919 5.94305 12.0722 6.1296 12.3133C6.31616 12.5544 6.42696 12.8454 6.44797 13.1495L6.54297 14.4953C6.57739 14.9973 6.51252 15.5011 6.35206 15.978C6.1916 16.4548 5.93869 16.8954 5.60782 17.2744C5.27694 17.6535 4.87458 17.9636 4.42375 18.187C3.97292 18.4104 3.48248 18.5427 2.98047 18.5764C1.6663 18.6476 1.62276 18.6516 1.53567 18.6516ZM2.06609 13.5651C1.97082 13.5655 1.87698 13.5883 1.79219 13.6318C1.70741 13.6753 1.63408 13.7381 1.57815 13.8152C1.52223 13.8924 1.48529 13.9816 1.47035 14.0757C1.4554 14.1698 1.46286 14.2661 1.49213 14.3568L1.76526 15.2276C1.80059 15.3392 1.8064 15.458 1.78212 15.5724C1.75784 15.6869 1.70429 15.7931 1.62672 15.8807L0.97755 16.6249C0.88204 16.7359 0.821222 16.8726 0.802639 17.0178C0.784056 17.1631 0.808525 17.3107 0.873011 17.4422C0.937497 17.5737 1.03916 17.6833 1.16541 17.7576C1.29165 17.8319 1.43691 17.8674 1.58317 17.8599L2.92505 17.7649C3.32252 17.7383 3.71082 17.6334 4.06764 17.4563C4.42446 17.2792 4.74277 17.0333 5.00429 16.7328C5.26581 16.4323 5.46538 16.0831 5.59153 15.7052C5.71769 15.3273 5.76795 14.9283 5.73942 14.5309L5.64838 13.1851C5.63515 13.0411 5.58046 12.904 5.49091 12.7904C5.40137 12.6768 5.28083 12.5916 5.14387 12.5451C5.00691 12.4986 4.85941 12.4928 4.71922 12.5284C4.57904 12.564 4.45218 12.6395 4.35401 12.7457L3.69692 13.4939C3.62005 13.5821 3.52183 13.6492 3.41164 13.6887C3.30146 13.7282 3.18299 13.7388 3.06755 13.7195C2.73655 13.6511 2.40231 13.5996 2.06609 13.5651Z" fill="#3D332D"/>
<path id="Vector_31" d="M13.9967 24.5417C13.7564 24.8169 13.4303 25.003 13.0711 25.0698C12.7119 25.1366 12.3407 25.0802 12.0176 24.9099L4.75006 21.0149C4.28275 20.7676 3.87739 20.4178 3.56431 19.9918C3.25123 19.5658 3.03853 19.0745 2.94211 18.5546C2.84569 18.0348 2.86806 17.4999 3.00753 16.9899C3.147 16.4799 3.39996 16.0081 3.74751 15.6096C4.09506 15.2112 4.52819 14.8965 5.01451 14.6891C5.50083 14.4817 6.02775 14.3869 6.55587 14.4119C7.08398 14.4368 7.59962 14.5808 8.06423 14.8332C8.52883 15.0855 8.93037 15.4396 9.23881 15.869L14.0838 22.5151C14.3024 22.8123 14.4129 23.1752 14.397 23.5437C14.3812 23.9123 14.24 24.2644 13.9967 24.5417Z" fill="#F79256"/>
<path id="Vector_32" d="M5.09414 18.4062H8.2133C8.29858 18.4068 8.38232 18.3836 8.45515 18.3392C8.52798 18.2949 8.58702 18.2311 8.62564 18.1551C8.66427 18.0791 8.68097 17.9938 8.67386 17.9088C8.66675 17.8238 8.63611 17.7425 8.58538 17.6739L7.99164 16.8585C7.77096 16.5244 7.45149 16.2674 7.07779 16.1234C6.70409 15.9795 6.29478 15.9558 5.90695 16.0556C5.51912 16.1553 5.1721 16.3737 4.91428 16.6801C4.65646 16.9866 4.5007 17.3658 4.46872 17.765C4.46549 17.8487 4.47934 17.9322 4.50942 18.0105C4.5395 18.0887 4.58519 18.16 4.6437 18.2199C4.70221 18.2799 4.77232 18.3274 4.84976 18.3594C4.9272 18.3914 5.01034 18.4074 5.09414 18.4062Z" fill="#FA9D66"/>
<path id="Vector_33" d="M12.7737 25.4955C12.4395 25.495 12.1105 25.412 11.8158 25.2541L4.54437 21.3749C4.03073 21.0965 3.58616 20.7062 3.24344 20.2331C2.90073 19.7599 2.66863 19.2158 2.56425 18.6409C2.45988 18.0661 2.48589 17.4751 2.64038 16.9117C2.79487 16.3482 3.07389 15.8266 3.45686 15.3854C3.83983 14.9442 4.31698 14.5945 4.8531 14.3623C5.38922 14.1301 5.97064 14.0212 6.55446 14.0437C7.13829 14.0661 7.70962 14.2194 8.22631 14.4921C8.743 14.7649 9.19186 15.1501 9.53979 15.6195L14.4046 22.2813C14.6243 22.5828 14.7564 22.939 14.7862 23.3108C14.8161 23.6826 14.7426 24.0554 14.5738 24.388C14.4051 24.7207 14.1476 25.0001 13.8299 25.1956C13.5123 25.391 13.1467 25.4948 12.7737 25.4955ZM6.385 14.808C5.69148 14.8079 5.0178 15.0395 4.47097 15.466C3.92413 15.8926 3.53548 16.4896 3.36674 17.1623C3.198 17.835 3.25885 18.5447 3.53962 19.1789C3.8204 19.813 4.30499 20.3352 4.91645 20.6624L12.1919 24.5416C12.4377 24.6763 12.7221 24.7231 12.9981 24.6742C13.2742 24.6253 13.5252 24.4837 13.7099 24.2728C13.8945 24.0619 14.0016 23.7943 14.0135 23.5142C14.0254 23.2341 13.9413 22.9584 13.7752 22.7326L8.89854 16.0866C8.61034 15.6903 8.23221 15.3682 7.79524 15.1466C7.35826 14.925 6.87494 14.8103 6.385 14.812V14.808Z" fill="#3D332D"/>
<path id="Vector_34" d="M7.45738 17.3296C7.38131 17.3295 7.30687 17.3074 7.24299 17.2661C7.17911 17.2249 7.12847 17.166 7.09715 17.0967C7.06583 17.0274 7.05515 16.9505 7.06638 16.8753C7.07762 16.8 7.11029 16.7296 7.1605 16.6725L8.50633 15.1208C8.57562 15.0415 8.67356 14.9931 8.7786 14.986C8.88364 14.9789 8.98718 15.0139 9.06644 15.0832C9.1457 15.1525 9.19419 15.2504 9.20124 15.3555C9.20829 15.4605 9.17333 15.564 9.10404 15.6433L7.75821 17.191C7.72105 17.2345 7.67491 17.2693 7.62298 17.2933C7.57105 17.3172 7.51455 17.3296 7.45738 17.3296ZM5.04279 20.1043C4.9678 20.1029 4.89477 20.0801 4.83221 20.0387C4.76965 19.9973 4.72014 19.939 4.68945 19.8706C4.65875 19.8021 4.64813 19.7264 4.65883 19.6521C4.66953 19.5779 4.70111 19.5082 4.74988 19.4512L5.308 18.81C5.37679 18.7308 5.47422 18.6821 5.57887 18.6747C5.68353 18.6672 5.78684 18.7017 5.86613 18.7704C5.94534 18.8392 5.99401 18.9366 6.00143 19.0413C6.00885 19.1459 5.97443 19.2492 5.90571 19.3285L5.34363 19.9698C5.30609 20.0125 5.2598 20.0466 5.20788 20.0699C5.15597 20.0931 5.09966 20.1048 5.04279 20.1043ZM8.13425 21.6639C8.05892 21.6632 7.98536 21.641 7.92222 21.5999C7.85909 21.5588 7.80899 21.5005 7.77781 21.4319C7.74664 21.3633 7.73568 21.2873 7.74623 21.2127C7.75679 21.1381 7.7884 21.0681 7.83738 21.0108L10.5686 17.8679C10.6384 17.7923 10.7349 17.7468 10.8376 17.7411C10.9403 17.7355 11.0412 17.77 11.1189 17.8374C11.1966 17.9048 11.245 17.9998 11.2538 18.1023C11.2627 18.2048 11.2313 18.3067 11.1663 18.3864L8.43113 21.5294C8.39403 21.5716 8.34837 21.6054 8.29718 21.6286C8.246 21.6518 8.19045 21.6639 8.13425 21.6639Z" fill="#3D332D"/>
<path id="Vector_35" d="M36.4958 19.6531H2.00286C1.39075 19.6531 0.894531 20.1493 0.894531 20.7614V21.0147C0.894531 21.6269 1.39075 22.1231 2.00286 22.1231H36.4958C37.1079 22.1231 37.6041 21.6269 37.6041 21.0147V20.7614C37.6041 20.1493 37.1079 19.6531 36.4958 19.6531Z" fill="#C37344"/>
<path id="Vector_36" d="M36.496 19.6531H11.1508C10.5387 19.6531 10.0425 20.1493 10.0425 20.7614V21.0147C10.0425 21.6269 10.5387 22.1231 11.1508 22.1231H36.496C37.1081 22.1231 37.6044 21.6269 37.6044 21.0147V20.7614C37.6044 20.1493 37.1081 19.6531 36.496 19.6531Z" fill="#E18B58"/>
<path id="Vector_37" d="M32.9094 19.6531H19.5223C19.1812 19.6531 18.9048 19.9295 18.9048 20.2706C18.9048 20.6116 19.1812 20.8881 19.5223 20.8881H32.9094C33.2504 20.8881 33.5269 20.6116 33.5269 20.2706C33.5269 19.9295 33.2504 19.6531 32.9094 19.6531Z" fill="#FFA976"/>
<path id="Vector_38" d="M36.4956 22.519H2.0027C1.60446 22.519 1.22247 22.3611 0.940493 22.0798C0.65852 21.7986 0.499583 21.417 0.498535 21.0188V20.7615C0.498535 20.3626 0.657009 19.98 0.939095 19.6979C1.22118 19.4158 1.60377 19.2573 2.0027 19.2573H36.4956C36.8946 19.2573 37.2772 19.4158 37.5592 19.6979C37.8413 19.98 37.9998 20.3626 37.9998 20.7615V21.0188C37.9987 21.417 37.8398 21.7986 37.5578 22.0798C37.2759 22.3611 36.8939 22.519 36.4956 22.519ZM2.0027 20.049C1.81406 20.05 1.63343 20.1254 1.50004 20.2588C1.36664 20.3922 1.29124 20.5728 1.2902 20.7615V21.0188C1.29125 21.2071 1.36678 21.3873 1.50028 21.52C1.63379 21.6528 1.81442 21.7273 2.0027 21.7273H36.4956C36.6839 21.7273 36.8645 21.6528 36.998 21.52C37.1316 21.3873 37.2071 21.2071 37.2081 21.0188V20.7615C37.2071 20.5728 37.1317 20.3922 36.9983 20.2588C36.8649 20.1254 36.6843 20.05 36.4956 20.049H2.0027Z" fill="#3D332D"/>
<path id="Vector_39" d="M26.224 31.0928H12.2748C11.6627 31.0928 11.1665 31.589 11.1665 32.2011V32.4544C11.1665 33.0666 11.6627 33.5628 12.2748 33.5628H26.224C26.8361 33.5628 27.3323 33.0666 27.3323 32.4544V32.2011C27.3323 31.589 26.8361 31.0928 26.224 31.0928Z" fill="#C37344"/>
<path id="Vector_40" d="M26.2239 31.0928H19.8906C19.2784 31.0928 18.7822 31.589 18.7822 32.2011V32.4544C18.7822 33.0666 19.2784 33.5628 19.8906 33.5628H26.2239C26.836 33.5628 27.3322 33.0666 27.3322 32.4544V32.2011C27.3322 31.589 26.836 31.0928 26.2239 31.0928Z" fill="#E18B58"/>
<path id="Vector_41" d="M26.2238 33.9584H12.2707C11.8732 33.9574 11.4922 33.799 11.2111 33.5179C10.9299 33.2368 10.7716 32.8558 10.7705 32.4582V32.2009C10.7705 31.802 10.929 31.4194 11.2111 31.1373C11.4932 30.8553 11.8757 30.6968 12.2747 30.6968H26.2238C26.6228 30.6968 27.0054 30.8553 27.2874 31.1373C27.5695 31.4194 27.728 31.802 27.728 32.2009V32.4582C27.727 32.8565 27.568 33.2381 27.2861 33.5193C27.0041 33.8005 26.6221 33.9584 26.2238 33.9584ZM12.2707 31.4884C12.0821 31.4895 11.9014 31.5649 11.7681 31.6983C11.6347 31.8317 11.5593 32.0123 11.5582 32.2009V32.4582C11.5593 32.6465 11.6348 32.8267 11.7683 32.9595C11.9018 33.0923 12.0824 33.1668 12.2707 33.1668H26.2238C26.4121 33.1668 26.5928 33.0923 26.7263 32.9595C26.8598 32.8267 26.9353 32.6465 26.9363 32.4582V32.2009C26.9353 32.0123 26.8599 31.8317 26.7265 31.6983C26.5931 31.5649 26.4125 31.4895 26.2238 31.4884H12.2707Z" fill="#3D332D"/>
<path id="Vector_42" d="M25.6938 31.0926H12.8054C11.014 31.093 9.26176 30.5683 7.76538 29.5834C6.269 28.5985 5.09413 27.1965 4.38607 25.551L2.91357 22.123H35.5856L34.1131 25.547C33.4057 27.1933 32.2311 28.5961 30.7346 29.5817C29.2382 30.5674 27.4857 31.0927 25.6938 31.0926Z" fill="#D9A789"/>
<path id="Vector_43" d="M21.5533 31.0926H12.8054C11.014 31.093 9.26176 30.5683 7.76538 29.5834C6.269 28.5985 5.09413 27.1965 4.38607 25.551L2.91357 22.123H11.6575L13.13 25.547C13.8386 27.1933 15.014 28.5959 16.511 29.5815C18.008 30.5671 19.761 31.0924 21.5533 31.0926Z" fill="#B68161"/>
<path id="Vector_44" d="M19.2495 25.9312V27.2889C19.2495 27.8778 19.4835 28.4426 19.8999 28.8591C20.3164 29.2755 20.8812 29.5095 21.4701 29.5095H25.6937C27.1744 29.5107 28.6232 29.0785 29.8611 28.2661C31.0991 27.4536 32.0722 26.2966 32.6603 24.9376L33.1828 23.7224H21.4701C20.8836 23.7234 20.3211 23.9561 19.9052 24.3698C19.4894 24.7834 19.2537 25.3446 19.2495 25.9312Z" fill="#EDC7B1"/>
<path id="Vector_45" d="M31.0055 26.9405C31.1215 26.9412 31.2362 26.9164 31.3415 26.8678C31.4469 26.8192 31.5402 26.7481 31.615 26.6595C32.3869 25.6936 32.6323 24.989 33.1984 23.7065H26.2238C26.0138 23.7065 25.8125 23.79 25.664 23.9384C25.5155 24.0869 25.4321 24.2882 25.4321 24.4982C25.4321 24.7082 25.5155 24.9095 25.664 25.058C25.8125 25.2065 26.0138 25.2899 26.2238 25.2899H30.6611C30.5793 25.4139 30.4922 25.5327 30.3998 25.6461C30.3049 25.7616 30.2446 25.9016 30.2259 26.05C30.2073 26.1983 30.231 26.3489 30.2943 26.4844C30.3577 26.6198 30.4581 26.7345 30.584 26.8152C30.7098 26.8959 30.856 26.9394 31.0055 26.9405Z" fill="#FAFAFA"/>
<path id="Vector_46" d="M20.5755 10.9052C21.2052 10.9052 21.7155 10.3948 21.7155 9.76524C21.7155 9.13564 21.2052 8.62524 20.5755 8.62524C19.9459 8.62524 19.4355 9.13564 19.4355 9.76524C19.4355 10.3948 19.9459 10.9052 20.5755 10.9052Z" fill="#F79256"/>
<path id="Vector_47" d="M20.5832 11.3012C20.2794 11.3012 19.9825 11.2111 19.7299 11.0423C19.4774 10.8736 19.2805 10.6337 19.1643 10.3531C19.048 10.0724 19.0176 9.76362 19.0769 9.4657C19.1361 9.16778 19.2824 8.89412 19.4972 8.67933C19.712 8.46454 19.9856 8.31826 20.2836 8.259C20.5815 8.19974 20.8903 8.23016 21.1709 8.3464C21.4516 8.46264 21.6914 8.6595 21.8602 8.91206C22.029 9.16463 22.119 9.46157 22.119 9.76533C22.118 10.1723 21.9558 10.5624 21.668 10.8502C21.3802 11.138 20.9902 11.3001 20.5832 11.3012ZM20.5832 9.02116C20.436 9.02116 20.2921 9.0648 20.1698 9.14657C20.0474 9.22834 19.952 9.34457 19.8957 9.48055C19.8394 9.61652 19.8246 9.76615 19.8533 9.91051C19.882 10.0549 19.9529 10.1875 20.057 10.2915C20.1611 10.3956 20.2937 10.4665 20.438 10.4952C20.5824 10.5239 20.732 10.5092 20.868 10.4528C21.004 10.3965 21.1202 10.3011 21.2019 10.1788C21.2837 10.0564 21.3274 9.91251 21.3274 9.76533C21.3263 9.56828 21.2476 9.3796 21.1083 9.24027C20.9689 9.10094 20.7802 9.0222 20.5832 9.02116Z" fill="#3D332D"/>
<path id="Vector_48" d="M28.4999 8.95374C28.4207 8.87457 28.4286 8.95374 28.6147 8.78353C28.8633 8.49996 28.995 8.13258 28.9832 7.75564C28.9714 7.37869 28.8169 7.02029 28.551 6.75287C28.2851 6.48544 27.9275 6.32894 27.5507 6.31498C27.1738 6.30103 26.8057 6.43067 26.5207 6.67769C26.3307 6.86374 26.4257 6.86769 26.3505 6.78853C26.2104 6.65207 26.0448 6.54455 25.8632 6.4721C25.6815 6.39964 25.4874 6.36368 25.2919 6.36625C24.8969 6.37144 24.5202 6.53331 24.2447 6.81623C23.9691 7.09916 23.8172 7.47997 23.8224 7.87489C23.8276 8.26981 23.9895 8.64649 24.2724 8.92207L26.4059 11.0556C26.5394 11.212 26.7038 11.3391 26.8887 11.4288C27.0737 11.5185 27.2753 11.5689 27.4808 11.5769C27.6862 11.5848 27.8911 11.5501 28.0824 11.4749C28.2738 11.3998 28.4475 11.2857 28.5926 11.1401C28.7377 10.9944 28.8511 10.8203 28.9255 10.6286C29 10.437 29.0339 10.232 29.0252 10.0266C29.0165 9.82118 28.9653 9.6198 28.8749 9.43515C28.7845 9.2505 28.6568 9.08658 28.4999 8.95374Z" fill="#FA8D4D"/>
<path id="Vector_49" d="M28.5 11.0596C28.3618 11.198 28.1977 11.3077 28.017 11.3826C27.8363 11.4575 27.6427 11.496 27.4471 11.496C27.2515 11.496 27.0579 11.4575 26.8772 11.3826C26.6966 11.3077 26.5324 11.198 26.3942 11.0596L24.2607 8.92607C23.9777 8.65049 23.8159 8.27381 23.8107 7.87889C23.8055 7.48397 23.9574 7.10316 24.233 6.82023C24.5085 6.53731 24.8852 6.37544 25.2801 6.37025C25.6751 6.36505 26.0559 6.51695 26.3388 6.79252C26.4457 6.93107 28.4684 8.91815 28.5 8.95773C28.7773 9.23724 28.9329 9.61498 28.9329 10.0087C28.9329 10.4024 28.7773 10.7801 28.5 11.0596Z" fill="#E6732F"/>
<path id="Vector_50" d="M27.4469 11.875C26.9532 11.8773 26.4783 11.6854 26.1249 11.3406L23.9913 9.20704C23.6468 8.87943 23.4386 8.43391 23.4082 7.95947C23.3778 7.48502 23.5275 7.01657 23.8274 6.64768C24.1273 6.2788 24.5553 6.03663 25.026 5.96954C25.4966 5.90245 25.9753 6.01539 26.3663 6.28579C26.727 5.97884 27.1899 5.81895 27.6631 5.83794C28.1363 5.85694 28.585 6.05342 28.9199 6.38829C29.2547 6.72315 29.4512 7.17184 29.4702 7.64503C29.4892 8.11821 29.3293 8.5812 29.0224 8.94183C29.2129 9.22617 29.3224 9.55706 29.3391 9.89894C29.3558 10.2408 29.2791 10.5808 29.1171 10.8824C28.9551 11.1839 28.7141 11.4356 28.4198 11.6105C28.1256 11.7854 27.7892 11.8768 27.4469 11.875ZM26.6553 10.7666C26.8613 10.9704 27.1394 11.0847 27.4291 11.0847C27.7189 11.0847 27.997 10.9704 28.203 10.7666C28.3086 10.6625 28.3917 10.5378 28.4474 10.4004C28.5031 10.2629 28.5301 10.1155 28.5267 9.96727C28.5234 9.81901 28.4898 9.67299 28.428 9.53817C28.3662 9.40336 28.2775 9.28259 28.1674 9.18329C28.1242 9.14415 28.0901 9.09595 28.0677 9.04213C28.0453 8.98831 28.0351 8.93021 28.0377 8.87197C28.0404 8.81374 28.0558 8.7568 28.083 8.70524C28.1102 8.65368 28.1485 8.60877 28.1951 8.57371C28.3209 8.48172 28.4256 8.36376 28.5019 8.22783C28.5783 8.09189 28.6245 7.94114 28.6375 7.78578C28.6506 7.63042 28.6301 7.47408 28.5774 7.32733C28.5248 7.18058 28.4412 7.04685 28.3324 6.93519C28.2236 6.82353 28.0921 6.73654 27.9468 6.68011C27.8015 6.62368 27.6457 6.59913 27.4901 6.60811C27.3344 6.6171 27.1825 6.65941 27.0446 6.73219C26.9068 6.80497 26.7861 6.90652 26.6909 7.02996C26.6613 7.08059 26.6208 7.12401 26.5723 7.15706C26.5238 7.19011 26.4686 7.21198 26.4106 7.22107C26.3527 7.23016 26.2934 7.22625 26.2371 7.20963C26.1809 7.19301 26.129 7.16409 26.0853 7.12496C25.9866 7.01378 25.8661 6.92417 25.7312 6.8617C25.5963 6.79924 25.45 6.76527 25.3014 6.76193C25.1528 6.75858 25.0051 6.78593 24.8675 6.84227C24.73 6.8986 24.6055 6.98271 24.502 7.08933C24.4001 7.19083 24.3193 7.31143 24.2641 7.44423C24.209 7.57702 24.1806 7.7194 24.1806 7.86319C24.1806 8.00697 24.209 8.14935 24.2641 8.28214C24.3193 8.41494 24.4001 8.53554 24.502 8.63704L26.6553 10.7666Z" fill="#3D332D"/>
<path id="Vector_51" d="M25.8906 10.5542L24.7402 9.40381L23.5563 10.5878L24.7066 11.7381L25.8906 10.5542Z" fill="#F8BF9D"/>
<path id="Vector_52" d="M24.4227 12.0175L23.2748 10.8696C23.2377 10.8328 23.2083 10.789 23.1882 10.7408C23.1681 10.6925 23.1577 10.6408 23.1577 10.5885C23.1577 10.5363 23.1681 10.4845 23.1882 10.4363C23.2083 10.3881 23.2377 10.3443 23.2748 10.3075L24.4623 9.11999C24.5365 9.04626 24.6368 9.00488 24.7414 9.00488C24.8459 9.00488 24.9463 9.04626 25.0204 9.11999L26.1683 10.2917C26.2054 10.3285 26.2349 10.3722 26.255 10.4205C26.2751 10.4687 26.2854 10.5204 26.2854 10.5727C26.2854 10.625 26.2751 10.6767 26.255 10.7249C26.2349 10.7732 26.2054 10.8169 26.1683 10.8537L24.9808 12.0412C24.9036 12.1119 24.8015 12.1491 24.6969 12.1446C24.5923 12.1402 24.4937 12.0945 24.4227 12.0175ZM24.114 10.5885L24.7038 11.1783L25.3331 10.5529L24.7394 9.96311L24.114 10.5885Z" fill="#3D332D"/>
<path id="Vector_53" d="M16.15 4.45324C16.9417 4.69074 16.9694 4.71053 17.1159 4.67095L17.86 4.45324C17.9268 4.43582 17.997 4.43617 18.0636 4.45426C18.1303 4.47235 18.191 4.50755 18.2398 4.55637C18.2886 4.60518 18.3238 4.66592 18.3419 4.73254C18.36 4.79916 18.3604 4.86936 18.3429 4.93616C18.1054 5.72783 18.0817 5.75553 18.1252 5.89803L18.3429 6.6422C18.3604 6.709 18.36 6.7792 18.3419 6.84582C18.3238 6.91244 18.2886 6.97318 18.2398 7.02199C18.191 7.07081 18.1303 7.10601 18.0636 7.1241C17.997 7.14219 17.9268 7.14254 17.86 7.12512C17.0684 6.88762 17.0367 6.86387 16.8942 6.90741L16.15 7.12512C16.0832 7.14254 16.013 7.14219 15.9464 7.1241C15.8798 7.10601 15.819 7.07081 15.7702 7.02199C15.7214 6.97318 15.6862 6.91244 15.6681 6.84582C15.65 6.7792 15.6497 6.709 15.6671 6.6422C15.9046 5.85053 15.9284 5.82283 15.8848 5.68033L15.6671 4.93616C15.6497 4.86936 15.65 4.79916 15.6681 4.73254C15.6862 4.66592 15.7214 4.60518 15.7702 4.55637C15.819 4.50755 15.8798 4.47235 15.9464 4.45426C16.013 4.43617 16.0832 4.43582 16.15 4.45324Z" fill="#FCA571"/>
<path id="Vector_54" d="M17.9711 7.52095C17.6456 7.48467 17.3263 7.40616 17.0211 7.28741L16.2611 7.52095C16.1261 7.55819 15.9838 7.55899 15.8484 7.52327C15.7131 7.48755 15.5896 7.41658 15.4907 7.31761C15.3917 7.21863 15.3207 7.09519 15.285 6.95985C15.2493 6.82452 15.2501 6.68213 15.2873 6.5472L15.505 5.80303L15.2873 5.06283C15.2501 4.9279 15.2493 4.78551 15.285 4.65018C15.3207 4.51484 15.3917 4.3914 15.4907 4.29242C15.5896 4.19345 15.7131 4.12248 15.8484 4.08676C15.9838 4.05104 16.1261 4.05184 16.2611 4.08908L17.0092 4.30678L17.7494 4.08908C17.8843 4.05184 18.0267 4.05104 18.1621 4.08676C18.2974 4.12248 18.4208 4.19345 18.5198 4.29242C18.6188 4.3914 18.6897 4.51484 18.7255 4.65018C18.7612 4.78551 18.7604 4.9279 18.7232 5.06283L18.5015 5.80699L18.7232 6.5472C18.7503 6.66195 18.7515 6.78132 18.7266 6.89658C18.7017 7.01184 18.6514 7.12009 18.5793 7.21341C18.5072 7.30674 18.4152 7.38278 18.31 7.43599C18.2047 7.4892 18.089 7.51822 17.9711 7.52095ZM16.0394 4.81741C16.3798 5.91783 16.3838 5.60908 16.0394 6.7372C17.1557 6.39283 16.8311 6.40074 17.9632 6.7372C17.6227 5.63283 17.6188 5.94554 17.9632 4.81345C16.8429 5.1697 17.1675 5.14595 16.0394 4.83324V4.81741ZM34.224 25.6857H26.5448C26.4398 25.6857 26.3392 25.644 26.2649 25.5698C26.1907 25.4956 26.149 25.3949 26.149 25.2899C26.149 25.1849 26.1907 25.0842 26.2649 25.01C26.3392 24.9358 26.4398 24.8941 26.5448 24.8941H34.224C34.329 24.8941 34.4297 24.9358 34.5039 25.01C34.5781 25.0842 34.6198 25.1849 34.6198 25.2899C34.6198 25.3949 34.5781 25.4956 34.5039 25.5698C34.4297 25.644 34.329 25.6857 34.224 25.6857ZM23.5761 25.6857H21.7909C21.6859 25.6857 21.5852 25.644 21.511 25.5698C21.4367 25.4956 21.395 25.3949 21.395 25.2899C21.395 25.1849 21.4367 25.0842 21.511 25.01C21.5852 24.9358 21.6859 24.8941 21.7909 24.8941H23.5761C23.6811 24.8941 23.7817 24.9358 23.856 25.01C23.9302 25.0842 23.9719 25.1849 23.9719 25.2899C23.9719 25.3949 23.9302 25.4956 23.856 25.5698C23.7817 25.644 23.6811 25.6857 23.5761 25.6857Z" fill="#3D332D"/>
<path id="Vector_55" d="M25.6935 31.4886H12.8052C10.9358 31.4899 9.10719 30.9427 7.54586 29.9147C5.98453 28.8867 4.75918 27.4231 4.02166 25.7054L2.54916 22.2815C2.52282 22.2211 2.51195 22.1552 2.51754 22.0896C2.52313 22.0239 2.54499 21.9608 2.58115 21.9057C2.61731 21.8507 2.66662 21.8056 2.72462 21.7744C2.78263 21.7433 2.84749 21.7271 2.91333 21.7273H35.5854C35.6513 21.7271 35.7161 21.7433 35.7741 21.7744C35.8321 21.8056 35.8814 21.8507 35.9176 21.9057C35.9538 21.9608 35.9756 22.0239 35.9812 22.0896C35.9868 22.1552 35.9759 22.2211 35.9496 22.2815L34.4771 25.7054C33.7396 27.4231 32.5142 28.8867 30.9529 29.9147C29.3916 30.9427 27.5629 31.4899 25.6935 31.4886ZM3.52687 22.519L4.74999 25.3927C5.4263 26.9681 6.55002 28.3104 7.98188 29.2532C9.41374 30.1961 11.0908 30.698 12.8052 30.6969H25.6935C27.4079 30.698 29.085 30.1961 30.5169 29.2532C31.9487 28.3104 33.0724 26.9681 33.7488 25.3927L34.9837 22.519H3.52687Z" fill="#3D332D"/>
<path id="Vector_56" d="M26.9753 8.48895L26.6226 8.13628C26.4788 7.99252 26.2464 7.99189 26.1034 8.13488C25.9604 8.27787 25.961 8.51033 26.1048 8.65409L26.4575 9.00676C26.6012 9.15052 26.8337 9.15115 26.9767 9.00816C27.1197 8.86517 27.119 8.63271 26.9753 8.48895Z" fill="#FAFAFA"/>
</g>
<defs>
<clipPath id="clip0_4294_336">
<rect width="38" height="38" fill="white"/>
</clipPath>
</defs>
</svg>
