<svg width="38" height="38" viewBox="0 0 38 38" fill="none" xmlns="http://www.w3.org/2000/svg">
<g clip-path="url(#clip0_4294_292)">
<path d="M7.72284 6.31059L13.6192 13.5124C14.5694 13.2688 15.7227 13.6017 16.5917 14.4623C17.7937 15.6639 17.9724 17.434 16.9896 18.4164C16.0069 19.3988 14.2363 19.2203 13.0344 18.0186C12.1491 17.1336 11.8161 15.9319 12.1004 14.9739L4.89639 9.15231C3.96238 8.39718 3.8893 7.0088 4.74211 6.15631C5.57876 5.31999 6.96755 5.39307 7.72284 6.31059Z" fill="#FB9F68"/>
<path d="M14.0904 17.4502C13.3067 16.6668 12.9559 15.6353 13.0828 14.7442C13.1146 14.5207 13.0229 14.2976 12.8473 14.1556L5.95244 8.58393C5.02599 7.83505 4.94706 6.46332 5.77795 5.60913C5.38556 5.68303 5.02465 5.87376 4.74253 6.15631C3.8898 7.0088 3.96288 8.39726 4.89689 9.15231L12.1008 14.9738C11.8165 15.9318 12.1495 17.1335 13.0348 18.0185C14.2346 19.2178 16.0005 19.3979 16.9844 18.4217C16.0511 18.6303 14.9316 18.2912 14.0904 17.4502Z" fill="#F79256"/>
<path d="M29.3836 30.6846H8.62451V34.8011C8.62451 36.3437 13.2702 37.5941 19.0041 37.5941C24.738 37.5941 29.3837 36.3437 29.3837 34.8011L29.3836 30.6846Z" fill="#FB9F68"/>
<path d="M10.0861 32.3084H29.3836V30.6846H8.62451V34.8011C8.62451 35.3237 9.15814 35.8126 10.0861 36.2309V32.3084Z" fill="#F79256"/>
<path d="M19.0041 35.1259C24.7366 35.1259 29.3837 33.4864 29.3837 31.464C29.3837 29.4417 24.7366 27.8022 19.0041 27.8022C13.2716 27.8022 8.62451 29.4417 8.62451 31.464C8.62451 33.4864 13.2716 35.1259 19.0041 35.1259Z" fill="#FAFAFA"/>
<path d="M28.1814 31.5778H9.82631C8.03138 31.5778 6.57764 30.1245 6.57764 28.3301V15.9563H31.4301V28.3301C31.4301 30.1245 29.9763 31.5778 28.1814 31.5778Z" fill="#E0E0E0"/>
<path d="M8.20157 28.3301V15.9563H6.57764V28.3301C6.57764 30.1245 8.03146 31.5778 9.82631 31.5778H11.4502C9.65531 31.5778 8.20157 30.1245 8.20157 28.3301Z" fill="#C9C9C9"/>
<path d="M31.3572 26.8442C31.2516 25.4071 30.0496 24.2704 28.5795 24.2704C27.946 24.2704 27.3612 24.4815 26.8902 24.8388C26.8821 23.3124 25.6395 22.0701 24.1044 22.0701C22.9755 22.0701 22.0009 22.7441 21.5623 23.7183V23.6777C21.5623 22.0539 20.2466 20.7305 18.6142 20.7305C17.2822 20.7305 16.1614 21.6154 15.7959 22.8253C15.3005 22.3543 14.6264 22.0701 13.8873 22.0701C12.3523 22.0701 11.1178 23.3042 11.1015 24.8388C10.6305 24.4815 10.0457 24.246 9.41225 24.2704C6.89451 24.3597 6.56152 26.8442 6.56152 26.8442V28.33C6.56152 30.1243 8.01535 31.5777 9.8102 31.5777H28.1816C29.9765 31.5777 31.4302 30.1243 31.4302 28.33V26.8442H31.3572Z" fill="#F7F7F7"/>
<path d="M8.02306 28.3299V26.8441C8.02306 26.8441 8.2932 24.8371 10.177 24.3666C9.9337 24.2959 9.67736 24.2601 9.41226 24.2703C6.89451 24.3596 6.56152 26.8441 6.56152 26.8441V28.3299C6.56152 30.1243 8.01535 31.5776 9.8102 31.5776H11.2717C9.47681 31.5776 8.02306 30.1243 8.02306 28.3299Z" fill="#EDEDED"/>
<path d="M14.943 28.7522C15.6515 28.7522 16.2258 28.1778 16.2258 27.4693C16.2258 26.7609 15.6515 26.1865 14.943 26.1865C14.2345 26.1865 13.6602 26.7609 13.6602 27.4693C13.6602 28.1778 14.2345 28.7522 14.943 28.7522Z" fill="#ED8548"/>
<path d="M14.9432 29.1581C14.0117 29.1581 13.2539 28.4005 13.2539 27.4693C13.2539 26.5382 14.0117 25.7805 14.9432 25.7805C15.8747 25.7805 16.6324 26.5381 16.6324 27.4693C16.6324 28.4006 15.8747 29.1581 14.9432 29.1581ZM14.9432 26.5925C14.4594 26.5925 14.0659 26.9859 14.0659 27.4693C14.0659 27.9529 14.4594 28.3462 14.9432 28.3462C15.4269 28.3462 15.8205 27.9529 15.8205 27.4693C15.8205 26.9858 15.4269 26.5925 14.9432 26.5925Z" fill="#333333"/>
<path d="M22.5372 28.7522C23.2457 28.7522 23.82 28.1778 23.82 27.4693C23.82 26.7609 23.2457 26.1865 22.5372 26.1865C21.8287 26.1865 21.2544 26.7609 21.2544 27.4693C21.2544 28.1778 21.8287 28.7522 22.5372 28.7522Z" fill="#ED8548"/>
<path d="M22.5369 29.1581C21.6054 29.1581 20.8477 28.4005 20.8477 27.4693C20.8477 26.5382 21.6054 25.7805 22.5369 25.7805C23.4684 25.7805 24.2261 26.5381 24.2261 27.4693C24.2261 28.4006 23.4683 29.1581 22.5369 29.1581ZM22.5369 26.5925C22.0532 26.5925 21.6596 26.9859 21.6596 27.4693C21.6596 27.9529 22.0532 28.3462 22.5369 28.3462C23.0206 28.3462 23.4141 27.9529 23.4141 27.4693C23.414 26.9858 23.0206 26.5925 22.5369 26.5925Z" fill="#333333"/>
<path d="M10.2003 21.4612C10.9088 21.4612 11.4831 20.8868 11.4831 20.1783C11.4831 19.4698 10.9088 18.8955 10.2003 18.8955C9.49182 18.8955 8.91748 19.4698 8.91748 20.1783C8.91748 20.8868 9.49182 21.4612 10.2003 21.4612Z" fill="#CC8B65"/>
<path d="M10.2 21.8669C9.26847 21.8669 8.51074 21.1093 8.51074 20.1781C8.51074 19.2468 9.26847 18.4893 10.2 18.4893C11.1314 18.4893 11.8892 19.2468 11.8892 20.1781C11.8892 21.1093 11.1314 21.8669 10.2 21.8669ZM10.2 19.3012C9.71627 19.3012 9.32271 19.6945 9.32271 20.1781C9.32271 20.6616 9.71627 21.0549 10.2 21.0549C10.6836 21.0549 11.0772 20.6616 11.0772 20.1781C11.0772 19.6946 10.6836 19.3012 10.2 19.3012Z" fill="#333333"/>
<path d="M27.7511 21.4612C28.4596 21.4612 29.0339 20.8868 29.0339 20.1783C29.0339 19.4698 28.4596 18.8955 27.7511 18.8955C27.0426 18.8955 26.4683 19.4698 26.4683 20.1783C26.4683 20.8868 27.0426 21.4612 27.7511 21.4612Z" fill="#FF9F66"/>
<path d="M27.7513 21.8669C26.8198 21.8669 26.062 21.1093 26.062 20.1781C26.062 19.2468 26.8198 18.4893 27.7513 18.4893C28.6828 18.4893 29.4405 19.2468 29.4405 20.1781C29.4405 21.1093 28.6828 21.8669 27.7513 21.8669ZM27.7513 19.3012C27.2675 19.3012 26.874 19.6945 26.874 20.1781C26.874 20.6616 27.2675 21.0549 27.7513 21.0549C28.235 21.0549 28.6286 20.6616 28.6286 20.1781C28.6286 19.6946 28.235 19.3012 27.7513 19.3012Z" fill="#333333"/>
<path d="M14.6967 27.7941C14.8312 27.7941 14.9403 27.6487 14.9403 27.4693C14.9403 27.2899 14.8312 27.1445 14.6967 27.1445C14.5622 27.1445 14.4531 27.2899 14.4531 27.4693C14.4531 27.6487 14.5622 27.7941 14.6967 27.7941Z" fill="#CC7440"/>
<path d="M22.6943 27.7941C22.8288 27.7941 22.9379 27.6487 22.9379 27.4693C22.9379 27.2899 22.8288 27.1445 22.6943 27.1445C22.5597 27.1445 22.4507 27.2899 22.4507 27.4693C22.4507 27.6487 22.5597 27.7941 22.6943 27.7941Z" fill="#CC7440"/>
<path d="M33.1276 21.9806H31.4302V18.5461H33.1195C34.0697 18.5461 34.8331 19.3175 34.8331 20.2593C34.8412 21.2092 34.0697 21.9806 33.1276 21.9806Z" fill="#E0E0E0"/>
<path d="M33.1276 20.6816H31.4302V21.9807H33.1276C34.0697 21.9807 34.8412 21.2093 34.8331 20.2594C34.8331 20.0323 34.7879 19.8157 34.7073 19.6169C34.4526 20.2415 33.839 20.6816 33.1276 20.6816Z" fill="#C9C9C9"/>
<path d="M4.88016 21.9806H6.57757V18.5461H4.88016C3.92991 18.5461 3.1665 19.3175 3.1665 20.2593C3.1665 21.2092 3.93803 21.9806 4.88016 21.9806Z" fill="#E0E0E0"/>
<path d="M3.29471 19.6106C3.21005 19.8164 3.16649 20.0368 3.1665 20.2594C3.1665 21.2093 3.93803 21.9806 4.88016 21.9806H6.57757V20.6815H4.88016C4.16636 20.6815 3.55129 20.2383 3.29471 19.6106Z" fill="#C9C9C9"/>
<path d="M20.466 33.3151C20.466 34.3056 19.6457 35.1095 18.6305 35.1095C17.6153 35.1095 16.7949 34.3056 16.7949 33.3151C16.7949 32.3246 18.6305 30.4084 18.6305 30.4084C18.6305 30.4084 20.466 32.3245 20.466 33.3151Z" fill="#EAA880"/>
<path d="M19.7033 34.0607C19.7033 34.6396 19.2239 35.1094 18.6305 35.1094C18.0371 35.1094 17.5576 34.6396 17.5576 34.0607C17.5576 33.4818 18.6305 32.3618 18.6305 32.3618C18.6305 32.3618 19.7033 33.4818 19.7033 34.0607Z" fill="#C89374"/>
<path d="M12.0926 31.4153C12.0926 32.3327 11.3211 33.0797 10.3627 33.0797C9.40434 33.0797 8.63281 32.3327 8.63281 31.4153C8.63281 30.4978 10.3627 28.7197 10.3627 28.7197C10.3627 28.7197 12.0926 30.4978 12.0926 31.4153Z" fill="#EAA880"/>
<path d="M11.4353 32.0651C11.4353 32.644 10.9558 33.1138 10.3624 33.1138C9.76902 33.1138 9.28955 32.644 9.28955 32.0651C9.28955 31.4862 10.3624 30.3662 10.3624 30.3662C10.3624 30.3662 11.4353 31.4862 11.4353 32.0651Z" fill="#C89374"/>
<path d="M29.3753 31.5857C29.3753 32.5031 28.6038 33.2501 27.6454 33.2501C26.6871 33.2501 25.9155 32.5031 25.9155 31.5857C25.9155 30.6683 27.6454 28.8901 27.6454 28.8901C27.6454 28.8901 29.3753 30.6682 29.3753 31.5857Z" fill="#EAA880"/>
<path d="M28.7185 32.2274C28.7185 32.8064 28.239 33.2762 27.6456 33.2762C27.0522 33.2762 26.5728 32.8064 26.5728 32.2274C26.5728 31.6485 27.6456 30.5286 27.6456 30.5286C27.6456 30.5286 28.7185 31.6485 28.7185 32.2274Z" fill="#C89374"/>
<path d="M33.1197 18.1402H31.8364V15.9561C31.8364 15.8484 31.7936 15.7451 31.7175 15.669C31.6413 15.5928 31.5381 15.5501 31.4304 15.5501H17.7843C17.1772 13.9965 15.4825 12.7922 13.778 13.0651L8.03714 6.05324C7.12896 4.98738 5.4628 4.86193 4.45532 5.86901C3.45189 6.87219 3.53649 8.57448 4.6415 9.46788L11.6461 15.1283C11.6202 15.2675 11.6046 15.4086 11.5996 15.5502H6.57788C6.4702 15.5502 6.36694 15.5929 6.2908 15.6691C6.21467 15.7452 6.17189 15.8485 6.17189 15.9561V18.1402H4.88038C3.71164 18.1402 2.76074 19.0908 2.76074 20.2593C2.76074 21.4323 3.71164 22.3866 4.88038 22.3866H6.17181V26.7072C6.08501 27.2286 6.15557 27.8028 6.15557 28.3298C6.15557 29.7742 6.99872 31.0249 8.21846 31.6176V34.801C8.21846 35.7615 9.37348 36.58 11.5586 37.168C13.5522 37.7044 16.1964 37.9999 19.0041 37.9999C21.8118 37.9999 24.4561 37.7044 26.4496 37.1679C28.6346 36.5799 29.7896 35.7614 29.7896 34.8009V31.6086C31.0006 31.0129 31.8364 29.7677 31.8364 28.3298V22.3865H33.1278C34.2785 22.3865 35.2492 21.411 35.2393 20.2592C35.2393 19.0908 34.2884 18.1402 33.1197 18.1402ZM6.17189 21.5746H4.88038C4.15927 21.5746 3.57271 20.9846 3.57271 20.2593C3.57271 19.5385 4.15935 18.9521 4.88038 18.9521H6.17181L6.17189 21.5746ZM5.1519 8.83642C4.41366 8.23954 4.35926 7.1131 5.02938 6.44315C5.68804 5.78465 6.81854 5.8509 7.40917 6.56787L13.3052 13.7693C13.3542 13.8291 13.4193 13.8737 13.4928 13.8978C13.5663 13.9219 13.6452 13.9245 13.7201 13.9054C14.9843 13.5814 16.3245 14.456 16.895 15.5501H12.4108C12.4201 15.3923 12.4457 15.2377 12.4899 15.0891C12.5127 15.012 12.5122 14.9299 12.4883 14.8532C12.4645 14.7764 12.4183 14.7084 12.3558 14.6579L5.1519 8.83642ZM28.9777 34.8009C28.9777 35.1911 28.2603 35.8398 26.2387 36.3839C24.3119 36.9024 21.7426 37.1879 19.0041 37.1879C16.2657 37.1879 13.6964 36.9023 11.7696 36.3838C9.74788 35.8398 9.0305 35.191 9.0305 34.8008V33.0312C9.63485 33.7349 10.6803 34.1364 11.5295 34.4359C13.5322 35.1424 16.1868 35.5315 19.0041 35.5315C21.8215 35.5315 24.476 35.1424 26.4787 34.4359C27.308 34.1434 28.2791 33.7435 28.9777 33.2011V34.8009ZM16.8415 34.6389C14.4268 34.456 12.4305 33.9767 11.0604 33.3715C11.7141 33.1518 12.2233 32.632 12.4149 31.9835H16.8773C16.3563 32.8447 16.1851 33.7863 16.8415 34.6389ZM10.3625 32.6736C9.63258 32.6736 9.03862 32.1091 9.03862 31.4151C9.03862 30.9688 9.73968 30.0128 10.3627 29.3154C10.9856 30.0122 11.6865 30.9679 11.6865 31.4151C11.6865 32.1091 11.0926 32.6736 10.3625 32.6736ZM17.201 33.3151C17.201 32.82 17.9617 31.7668 18.6305 31.0088C19.2992 31.7668 20.06 32.82 20.06 33.3151C20.06 34.0807 19.4187 34.7034 18.6305 34.7034C17.8422 34.7034 17.201 34.0806 17.201 33.3151ZM20.3838 31.9834H25.5506C25.6828 32.6381 26.1334 33.1836 26.7401 33.4602C25.2269 34.0863 23.0252 34.5623 20.3811 34.6869C21.0778 33.832 20.916 32.8634 20.3838 31.9834ZM26.3217 31.5857C26.3217 31.1393 27.0228 30.1833 27.6457 29.4859C28.2687 30.1828 28.9696 31.1385 28.9696 31.5857C28.9696 32.2796 28.3758 32.8441 27.6456 32.8441C26.9155 32.8441 26.3217 32.2796 26.3217 31.5857ZM29.5721 30.8067C29.1416 29.8773 28.1742 28.8511 27.9367 28.607C27.7427 28.4431 27.5486 28.4431 27.3546 28.607C27.0854 28.8838 25.8774 30.1652 25.5774 31.1716H19.8211C19.5397 30.8086 19.2402 30.4602 18.9236 30.1275C18.7281 29.9607 18.5327 29.9607 18.3373 30.1275C18.0207 30.4602 17.7211 30.8086 17.4398 31.1716H12.4723C12.272 30.1453 10.9382 28.7292 10.6535 28.4365C10.4595 28.2727 10.2654 28.2727 10.0714 28.4365C9.8242 28.6907 8.78667 29.7919 8.38661 30.7494C7.58512 30.2453 6.96746 29.3417 6.96746 28.3298V26.8737C7.00708 26.6254 7.37499 24.7487 9.42788 24.6758C10.0472 24.6522 10.5464 24.9271 10.8562 25.162C11.1172 25.3598 11.504 25.1702 11.5075 24.8428C11.5288 22.8319 14.0297 21.706 15.5162 23.1192C15.7317 23.324 16.0985 23.227 16.1845 22.9424C17.0065 20.2216 21.1562 20.836 21.1562 23.6775C21.1714 24.0769 21.7345 24.3243 21.9325 23.8847C22.9551 21.6133 26.4708 22.3478 26.4842 24.8407C26.4859 25.1693 26.8739 25.3604 27.1355 25.162C27.5545 24.8442 28.0539 24.6762 28.5794 24.6762C29.8194 24.6762 30.8616 25.6415 30.9522 26.8738C30.9873 27.3502 31.0242 27.836 31.0242 28.3298C31.0244 29.392 30.4379 30.3192 29.5721 30.8067ZM31.0244 25.0088C30.1045 23.9153 28.5179 23.5556 27.2213 24.1656C26.6809 21.7271 23.5386 20.8456 21.8057 22.6447C20.9029 19.8635 16.9302 19.5405 15.6199 22.1713C13.7838 20.9814 11.2541 22.0443 10.7742 24.1619C9.50315 23.545 7.89391 23.922 6.98378 24.9859V16.362H31.0243L31.0244 25.0088ZM34.05 21.1889C33.8034 21.4376 33.476 21.5746 33.1279 21.5746H31.8365V18.952H33.1198C34.2522 18.952 34.8522 20.38 34.05 21.1889Z" fill="#333333"/>
<path d="M14.3315 2.07955C14.7261 1.52822 14.3334 0.758965 13.6555 0.743944C13.538 0.741346 13.4574 0.746786 13.4419 0.764893C13.4404 0.757504 13.4278 0.742077 13.4056 0.719747C12.6636 -0.028073 11.4012 0.674765 11.6272 1.70361C11.6481 1.79909 11.6659 1.85877 11.6788 1.86925C11.6589 1.87022 11.6305 1.8945 11.596 1.93615C11.0828 2.55674 11.6783 3.4918 12.4578 3.28881C12.5314 3.26964 12.5802 3.24602 12.5929 3.21695L14.2046 6.06135L15.652 5.21024L14.0403 2.36585C14.0993 2.37218 14.2074 2.25298 14.3315 2.07955Z" fill="#FBEEE7"/>
<path d="M18.377 7.51307C18.5289 6.59246 18.1537 5.66235 17.4007 5.11095C16.3258 4.32366 14.7985 3.42141 13.955 3.89844C13.1124 4.37498 13.1451 6.11876 13.3027 7.42408C13.4137 8.34265 14.0325 9.12044 14.8997 9.44368L15.0483 9.49906C16.5131 10.0451 18.1123 9.11816 18.3666 7.57616L18.377 7.51307Z" fill="#F8D2BB"/>
<path d="M16.2662 8.76844L16.1177 8.71306C15.2505 8.38982 14.6317 7.61203 14.5207 6.69346C14.4044 5.73063 14.3566 4.52981 14.6774 3.77436C14.407 3.74837 14.1606 3.78223 13.955 3.89851C13.1124 4.37505 13.1451 6.11883 13.3027 7.42414C13.4137 8.34272 14.0325 9.1205 14.8997 9.44375L15.0483 9.49912C16.0403 9.86889 17.0933 9.56254 17.7491 8.84776C17.278 8.96915 16.7645 8.95413 16.2662 8.76844Z" fill="#DABBA9"/>
<path d="M17.6405 4.7835C16.6558 4.0624 15.8124 3.61468 15.1165 3.44222L14.5571 2.45503C14.881 2.04978 15.0015 1.51493 14.7611 1.03401C14.5385 0.588887 14.0773 0.337746 13.5883 0.337015C13.1296 -0.0473698 12.5073 -0.109729 11.9664 0.184934C11.3954 0.495998 11.0999 1.12365 11.2231 1.75568C10.9319 2.16775 10.92 2.70081 11.1995 3.1396C11.4683 3.56149 11.9306 3.77593 12.4064 3.71195L12.966 4.69955C12.7809 5.37461 12.7581 6.30074 12.8997 7.4729C13.1476 9.52482 15.5839 10.7042 17.365 9.67194C19.1418 8.64221 19.3053 6.00267 17.6405 4.7835ZM12.9458 3.01691C12.8239 2.80182 12.5327 2.74514 12.3389 2.89999C12.0725 2.96023 11.9239 2.76561 11.8842 2.70333C11.8452 2.64211 11.734 2.43099 11.8951 2.21274C12.0797 2.07698 12.1276 1.90029 12.0391 1.68285C11.955 1.36764 12.0625 1.05707 12.3547 0.897921C12.5573 0.787575 12.8593 0.756314 13.1094 0.998361C13.2333 1.15207 13.3872 1.20257 13.571 1.14979C13.7551 1.14525 13.9473 1.2223 14.0348 1.39712C14.1441 1.6161 14.0328 1.82843 13.8864 1.9901C13.67 2.0786 13.5721 2.3636 13.6867 2.56602L14.1571 3.3961C13.8667 3.45578 13.6032 3.60742 13.4057 3.82855L12.9458 3.01691ZM17.9764 7.44708C17.888 8.07936 17.5115 8.64854 16.9578 8.96951C15.674 9.7136 13.8851 8.85974 13.7057 7.37554C13.5025 5.69364 13.6703 4.52595 14.1548 4.25191C15.0103 3.76798 16.5515 4.99234 17.1608 5.4386C17.7919 5.90077 18.1045 6.67035 17.9764 7.44708Z" fill="#333333"/>
<path d="M27.8513 5.18102L25.0332 6.83849L25.8611 8.29921L28.6792 6.64175C28.6756 6.67325 28.7061 6.71807 28.7602 6.7715C29.3337 7.33703 30.3171 6.82501 30.1829 6.03091C30.1738 5.97756 30.1613 5.94232 30.1446 5.9316C30.1611 5.929 30.2063 5.88621 30.2722 5.81395C30.9823 5.03592 30.2405 3.79605 29.2239 4.07269C29.1936 4.08097 29.1749 4.08803 29.1698 4.09364C29.1655 4.07025 29.0985 4.02519 28.9954 3.96868C28.4008 3.64275 27.6759 4.11256 27.742 4.7873C27.7629 4.99971 27.7968 5.15699 27.8513 5.18102Z" fill="#FBEEE7"/>
<path d="M21.5216 7.4703C21.8504 6.59712 22.6404 5.97921 23.5682 5.87812C24.8928 5.73383 26.6666 5.71605 27.1586 6.55083C27.65 7.3848 26.7498 8.87866 25.9605 9.93023C25.4051 10.6703 24.4803 11.0344 23.5676 10.8808L23.4113 10.8545C21.8697 10.595 20.9482 8.99274 21.499 7.53014L21.5216 7.4703Z" fill="#F8D2BB"/>
<path d="M22.7219 9.61262L22.8782 9.63893C23.7909 9.79255 24.7157 9.42839 25.2711 8.68836C25.8533 7.91269 26.4951 6.8966 26.595 6.08203C26.8422 6.19473 27.0387 6.34722 27.1585 6.5507C27.6499 7.38467 26.7498 8.87852 25.9605 9.9301C25.405 10.6701 24.4803 11.0343 23.5676 10.8807L23.4112 10.8544C22.3673 10.6787 21.6085 9.88682 21.3979 8.93991C21.7453 9.28053 22.1976 9.52436 22.7219 9.61262Z" fill="#DABBA9"/>
<path d="M21.3188 9.84588C22.3451 11.6303 25.0446 11.827 26.2855 10.174C26.9942 9.22968 27.4376 8.41625 27.6147 7.73908L28.5931 7.16363C28.9732 7.457 29.4808 7.50239 29.9245 7.27138C30.386 7.03112 30.6422 6.56351 30.596 6.06107C31.0187 5.57535 31.0767 4.88396 30.7377 4.32914C30.4166 3.80356 29.8465 3.54641 29.2571 3.65001C28.8332 3.40618 28.3082 3.39303 27.8929 3.66723C27.4442 3.96351 27.2811 4.48691 27.359 4.99983L26.3809 5.5751C25.6919 5.3765 24.7377 5.34256 23.5244 5.47475C21.473 5.69796 20.2948 8.06565 21.3188 9.84588ZM27.6695 6.76488C27.609 6.47464 27.4566 6.2116 27.235 6.0147L28.0573 5.53101C28.2578 5.41304 28.3155 5.11724 28.1724 4.93243C28.1263 4.71921 28.1362 4.47968 28.3403 4.34473C28.5034 4.23707 28.7084 4.26646 28.8656 4.36243C28.9985 4.49998 29.1569 4.53319 29.3411 4.46206C29.6787 4.37754 29.9247 4.5556 30.0449 4.75242C30.2184 5.0362 30.1562 5.35896 29.9258 5.58996C29.7405 5.73401 29.6937 5.91102 29.7856 6.12083C29.816 6.39032 29.6142 6.51763 29.5497 6.55117C29.4843 6.58527 29.2582 6.67946 29.0577 6.49417C28.9673 6.26316 28.6868 6.1667 28.4737 6.29199L27.6695 6.76488ZM23.6124 6.28176C24.3631 6.19991 26.3101 5.91012 26.809 6.75692C27.0916 7.23647 26.6531 8.33165 25.6361 9.68657C24.7385 10.8823 22.7624 10.7273 22.0226 9.44104C21.7036 8.8863 21.6622 8.20514 21.9017 7.6133C22.1791 6.87669 22.8347 6.36645 23.6124 6.28176ZM19.7033 13.5982C19.5957 13.5982 19.4924 13.5554 19.4163 13.4793C19.3401 13.4032 19.2974 13.2999 19.2974 13.1922V11.9871C19.2974 11.8794 19.3401 11.7762 19.4163 11.7C19.4924 11.6239 19.5957 11.5811 19.7033 11.5811C19.811 11.5811 19.9143 11.6239 19.9904 11.7C20.0666 11.7762 20.1093 11.8794 20.1093 11.9871V13.1923C20.1093 13.3 20.0665 13.4032 19.9904 13.4793C19.9143 13.5555 19.811 13.5982 19.7033 13.5982ZM22.3016 14.4102C22.194 14.4102 22.0907 14.3674 22.0146 14.2913C21.9384 14.2151 21.8957 14.1119 21.8957 14.0042V12.799C21.8957 12.6913 21.9384 12.5881 22.0146 12.5119C22.0907 12.4358 22.194 12.393 22.3016 12.393C22.4093 12.393 22.5126 12.4358 22.5887 12.5119C22.6648 12.5881 22.7076 12.6913 22.7076 12.799V14.0042C22.7076 14.1119 22.6648 14.2151 22.5887 14.2913C22.5126 14.3674 22.4093 14.4102 22.3016 14.4102Z" fill="#333333"/>
</g>
<defs>
<clipPath id="clip0_4294_292">
<rect width="38" height="38" fill="white"/>
</clipPath>
</defs>
</svg>
