<svg width="38" height="38" viewBox="0 0 38 38" fill="none" xmlns="http://www.w3.org/2000/svg">
<g id="Food">
<g id="Group">
<path id="Vector" d="M15.5396 9.81003C15.9308 9.81004 16.3063 9.65561 16.5842 9.38031C16.8622 9.10501 17.0202 8.73111 17.024 8.3399C17.0278 7.94845 16.8768 7.57133 16.604 7.29065C16.3311 7.00997 15.9583 6.84846 15.5669 6.84128M15.4114 12.7645C15.0199 12.7645 14.6444 12.6099 14.3663 12.3344C14.0883 12.0588 13.9304 11.6846 13.927 11.2932C13.9235 10.902 14.0746 10.5252 14.3475 10.2447C14.6203 9.96431 14.9929 9.80296 15.3841 9.79578M15.5396 15.7333C15.931 15.7333 16.3066 15.5787 16.5846 15.3031C16.8626 15.0276 17.0205 14.6534 17.024 14.262C17.0275 13.8707 16.8764 13.4939 16.6035 13.2135C16.3307 12.9331 15.9581 12.7717 15.5669 12.7645M21.4771 9.81003C21.8683 9.81004 22.2438 9.65561 22.5217 9.38031C22.7997 9.10501 22.9577 8.73111 22.9615 8.3399C22.9653 7.94845 22.8143 7.57133 22.5415 7.29065C22.2686 7.00997 21.8958 6.84846 21.5044 6.84128M21.3489 12.7645C20.9574 12.7645 20.5818 12.6099 20.3038 12.3344C20.0258 12.0588 19.8679 11.6846 19.8645 11.2932C19.861 10.902 20.0121 10.5252 20.285 10.2447C20.5578 9.96431 20.9304 9.80296 21.3216 9.79578M21.4771 15.7333C21.8685 15.7333 22.2441 15.5787 22.5221 15.3031C22.8001 15.0276 22.958 14.6534 22.9615 14.262C22.965 13.8707 22.8139 13.4939 22.541 13.2135C22.2682 12.9331 21.8956 12.7717 21.5044 12.7645M10.0617 9.80884C10.4529 9.80886 10.8283 9.65442 11.1063 9.37913C11.3843 9.10383 11.5423 8.72992 11.5461 8.33871C11.5499 7.94746 11.3991 7.57052 11.1264 7.28987C10.8538 7.00923 10.4814 6.84758 10.0902 6.84009M9.93462 12.7645C9.54319 12.7645 9.1676 12.6099 8.8896 12.3344C8.6116 12.0588 8.45369 11.6846 8.45025 11.2932C8.44705 10.9024 8.59813 10.526 8.8707 10.2459C9.14327 9.96577 9.51533 9.80445 9.90612 9.79696M10.0617 15.7333C10.4531 15.7333 10.8287 15.5787 11.1067 15.3031C11.3847 15.0276 11.5426 14.6534 11.5461 14.262C11.5496 13.8709 11.3986 13.4943 11.126 13.2139C10.8534 12.9335 10.4812 12.772 10.0902 12.7645" stroke="#FA6D1A" stroke-linecap="round" stroke-linejoin="round"/>
<path id="Vector_2" d="M35.5144 11.78C35.5144 13.2988 34.4611 14.5291 33.1632 14.5291C31.8629 14.5291 30.8096 13.2988 30.8096 11.7812C30.8096 10.2636 31.8629 7.86719 33.162 7.86719C34.4611 7.86719 35.5144 10.2624 35.5144 11.78Z" fill="#F79256" stroke="#473D37" stroke-linecap="round" stroke-linejoin="round"/>
<path id="Vector_3" d="M10.6401 31.1588H21.3264V27.6248C19.0488 28.6294 17.7224 28.7862 15.8782 28.8242C13.5697 28.8717 12.0069 28.4727 10.6413 28.1319L10.6401 31.1588ZM33.1433 15.1846C32.027 18.6343 32.3417 23.0387 31.9819 26.9931C31.9819 28.8123 34.3438 28.7506 34.3438 26.9931C33.9804 23.066 34.5469 19.2007 33.1433 15.1846Z" stroke="#473D37" stroke-linecap="round" stroke-linejoin="round"/>
<path id="Vector_4" d="M29.4653 18.3647C27.4692 25.8151 19.811 30.2362 12.3606 28.24C9.99261 27.6056 7.83334 26.359 6.09987 24.6255C4.36639 22.892 3.11978 20.7327 2.48535 18.3647H29.4653Z" fill="#F79256" stroke="#473D37" stroke-linecap="round" stroke-linejoin="round"/>
<path id="Vector_5" d="M25.4682 20.7791C24.6275 23.3429 22.3771 25.1253 19.7646 25.6098" stroke="#FAFAFA" stroke-linecap="round" stroke-linejoin="round"/>
</g>
</g>
</svg>
