<svg width="80" height="28" viewBox="0 0 80 28" fill="none" xmlns="http://www.w3.org/2000/svg">
<g clip-path="url(#clip0_4542_717)">
<path d="M41.3741 8.91541C41.3284 12.8003 44.5813 14.9681 47.0316 16.2571C49.5491 17.5796 50.3947 18.4276 50.3847 19.6104C50.3659 21.4203 48.3766 22.2191 46.515 22.2502C43.2672 22.3045 41.3787 21.3036 39.8775 20.5465L38.7075 26.4566C40.2137 27.2058 43.0028 27.8593 45.895 27.8879C52.6841 27.8879 57.1256 24.2702 57.1497 18.6611C57.1763 11.5423 48.0284 11.1483 48.0909 7.96644C48.1125 7.00163 48.9653 5.97204 50.8341 5.71025C51.7591 5.57801 54.3125 5.47681 57.2075 6.91594L58.3438 1.19787C56.7869 0.585915 54.7859 -6.10352e-05 52.2947 -6.10352e-05C45.9047 -6.10352e-05 41.4103 3.66693 41.3741 8.91541ZM69.2619 0.492468C68.0222 0.492468 66.9775 1.27309 66.5112 2.47102L56.8134 27.4679H63.5975L64.9475 23.4403H73.2375L74.0206 27.4679H80L74.7822 0.492468H69.2619ZM70.2109 7.77955L72.1687 17.9091H66.8069L70.2109 7.77955ZM33.1488 0.492805L27.8012 27.4676H34.2659L39.6109 0.49213L33.1488 0.492805ZM23.5853 0.492805L16.8566 18.853L14.1347 3.24153C13.8153 1.49878 12.5541 0.492468 11.1534 0.492468H0.154062L0 1.27579C2.25812 1.80476 4.82375 2.65791 6.37813 3.57078C7.32937 4.12842 7.60063 4.61589 7.91313 5.941L13.0684 27.4679H19.9L30.3737 0.492468L23.5853 0.492805Z" fill="url(#paint0_linear_4542_717)"/>
</g>
<defs>
<linearGradient id="paint0_linear_4542_717" x1="3677.92" y1="83.8313" x2="3765.05" y2="-2779.93" gradientUnits="userSpaceOnUse">
<stop stop-color="#222357"/>
<stop offset="1" stop-color="#254AA5"/>
</linearGradient>
<clipPath id="clip0_4542_717">
<rect width="80" height="28" fill="white"/>
</clipPath>
</defs>
</svg>
